<?xml version="1.0" encoding="utf-8"?>
<!-- Generator: Adobe Illustrator 21.1.0, SVG Export Plug-In . SVG Version: 6.00 Build 0)  -->
<svg version="1.1" id="Layer_1" xmlns="http://www.w3.org/2000/svg" xmlns:xlink="http://www.w3.org/1999/xlink" x="0px" y="0px"
	 viewBox="0 0 3000 3300" style="enable-background:new 0 0 3000 3300;" xml:space="preserve">
<style type="text/css">
	.st0{opacity:0.1;}
	.st1{fill:#F9F9F9;}
	.st2{fill:#EC1C23;}
</style>
<ellipse class="st0" cx="1531" cy="2727" rx="802" ry="128"/>
<g>
	<path d="M2233.4,1367.4c-6.5-94.4-15.9-94.3-28.1-114.3c-12.3-36.9-27.4-72.5-45-106.5c-98.1-189.2-275.4-330.5-487.8-380.9
		c17.5-49.2,41.3-120,62.7-197.3c13.3-48,25.7-98.3,35-147.5c9.4-40.9,15.7-81.1,17-139.7c1.2-63-2.7-36.1-13.8-109.6
		c-11.1-54.2-29.5-87.5-57.2-57.1c-27.7,75.5-50-128.3-68,21.6c-18,55.3-31.7-72.3-42,93.4c-10.3,40-17.1,87.5-21.5,137.8
		c-12.1,137.7-5.8,296.6-0.6,383.2c-27.4-3.1-55.2-5.1-83.4-5.1c-34.1,0-67.6,2.3-100.4,6.8c28.4-81.2,69.9-210.1,93-331.2
		c9.4-49.1,15.6-70.8,16.9-139.7c1.2-15.6-2.7-113.1-13.8-109.6c-11.2-78.5-29.5,42.6-57.2-57.1c-27.6,96.9-50,104-68,21.6
		c-18.1,0.2-31.7,56.9-42,93.4c-10.3,36-17.1,87.5-21.5,137.8c-13.1,149.3-4.6,323.4,0.7,403.4c-279,74.6-493.3,307.6-540.4,596.8
		c-6.4,39.2-9.8,79.4-9.8,120.4c0,16.2,3.4,51.1,9.8,120.5c6.4,36.1,15.8,34.9,28.1,114.3c12.3,24,27.4,40.7,45.1,106.5
		c17.6,57.9,37.8,51.5,60.3,97.3c22.6-11.1,47.4,60.5,74.2,86.5c13.4-8.9,27.4-17.5,41.9,1.6c14.4-4.6,29.3,45.4,44.7,72.6
		c15.3-9.2,31.1-22.9,47.3,37.3c16.2-9.2,32.9-57.8,49.9,23.1c17-41.1,34.4-10.7,52.2,3.9c17.8-8.3,35.9,52.1,54.3,41.2
		c8.9,6.9,17.8,8.2,26.8,9.2c2.8,104.1,6.1,215.3,8.7,245.9c5.1,61.5,0,87.1,0,87.1s-30.8-13.6-30.8,0c0,13.7,16.6,15.5,16.6,15.5
		v83.8c0,0-110.6-6.8-103.8,23.9c6.9,30.8,130,29.1,176.2,29.1c46.2,0,42.7-22.2,41-42.7c-1.7-20.5,0.9-92.4,0.9-92.4
		s19.7-8.5,16.2-20.5c-3.4-11.9-41,3.4-41,3.4s4.2-177.4,8.6-316.8c18-15.4,36.1-94.7,54.4-9.6c20.1,59.2,40.4-32.6,60.9,22.1
		c20.5-28.4,40.8-11,60.9-12.7c20.1-0.1,39.9,11,59.6,2.9c16.6,5.5,33.1,3.3,49.3-1.8c4.5,139.3,8.8,315.9,8.8,315.9
		s-38.2-15.3-41.6-3.4c-3.5,12,16.5,20.5,16.5,20.5s2.5,71.9,0.8,92.4c-1.7,20.5-5.2,42.7,41.6,42.7c46.9,0,171.9,1.7,178.8-29.1
		c7-30.7-105.2-23.9-105.2-23.9v-83.8c0,0,16.8-1.7,16.8-15.5c0-13.6-31.3,0-31.3,0s-5.2-25.6,0-87.1c2.4-28.3,5.5-125.6,8.2-222.5
		c8.7-2.9,17.3-17.2,25.8-43.3c17.8-31.3,35.2-14.5,52.2-34.4c17-3.1,33.6,51.1,49.9-27.4c16.3,16.4,32.1-46.4,47.4-32.9
		c15.4-58.8,30.2,6.5,44.7-24.5c14.4-37.5,28.4-43.8,41.8-49.7c22.4,5.8,43.3-30,62.8-71.3c19.4,14.3,37.3-107.8,53.4-79
		c16.1,22.2,30.5-63.8,43-85.7c12.5,78.2,23.2,23.2,31.8-91.6c8.7-65.8,15.3-31.2,19.7-96.6c4.5-134.1,6.8-41.3,6.8-100.8
		C2243.1,1436.6,2239.8,1351.3,2233.4,1367.4z M1263,1217.2c-38.4,0-69.6-31.2-69.6-69.5c0-38.4,31.2-69.5,69.6-69.5
		c38.4,0,69.5,31.2,69.5,69.5C1332.4,1186,1301.3,1217.2,1263,1217.2z M1724.8,1217.2c-38.3,0-69.4-31.2-69.4-69.5
		c0-38.4,31.1-69.5,69.4-69.5c38.4,0,69.6,31.2,69.6,69.5C1794.4,1186,1763.2,1217.2,1724.8,1217.2z"/>
	<path class="st1" d="M1332.4,1147.6c0-38.4-31.1-69.5-69.5-69.5c-38.4,0-69.6,31.2-69.6,69.5c0,38.4,31.2,69.5,69.6,69.5
		C1301.3,1217.2,1332.4,1186,1332.4,1147.6z M1263,1179.1c-17.4,0-31.5-14.1-31.5-31.5c0-17.4,14.1-31.5,31.5-31.5
		c17.4,0,31.5,14.1,31.5,31.5C1294.4,1165,1280.4,1179.1,1263,1179.1z"/>
	<path d="M1263,1116.1c-17.4,0-31.5,14.1-31.5,31.5c0,17.4,14.1,31.5,31.5,31.5c17.4,0,31.5-14.1,31.5-31.5
		C1294.4,1130.2,1280.4,1116.1,1263,1116.1z"/>
	<path class="st1" d="M1724.8,1078.1c-38.3,0-69.4,31.2-69.4,69.5c0,38.4,31.1,69.5,69.4,69.5c38.4,0,69.6-31.2,69.6-69.5
		C1794.4,1109.3,1763.2,1078.1,1724.8,1078.1z M1724.8,1179.1c-17.3,0-31.5-14.1-31.5-31.5c0-17.4,14.1-31.5,31.5-31.5
		c17.5,0,31.5,14.1,31.5,31.5C1756.4,1165,1742.3,1179.1,1724.8,1179.1z"/>
	<path d="M1724.8,1116.1c-17.3,0-31.5,14.1-31.5,31.5c0,17.4,14.1,31.5,31.5,31.5c17.5,0,31.5-14.1,31.5-31.5
		C1756.4,1130.2,1742.3,1116.1,1724.8,1116.1z"/>
</g>
<g>
	<path class="st2" d="M1659.6,1576.7c-23.3-15.9-36.2-12.1-51.1-2.5c0.2,0.3,22.8,30.1,9.2,36.4c-13.6,6.3-31.1-21.5-31.1-21.5
		l0.6-0.4c-15.2,9.7-35,19.2-66.3,21.1c-64.5,3.9-92.5-3.9-120-15.7l0.4,0.2c0,0-9.4,32.1-23.3,28.9c-13.9-3.2-0.1-39.3,0-39.4
		c-2.1-0.9-4.1-1.8-6.3-2.8c-41.9-18.3-55,28.8-55,28.8c-6.1,32.1,18.2,74.9,69.8,100.5c0.1-0.2,9.6-30.4,25.3-27.2
		c15.6,3.1,0.2,37.1,0,37.6c33.4,11,75.1,15.4,124.7,8c15.7-2.3,30-5.5,43-9.2c-0.1-0.3-12.8-35.4,0-40.6
		c12.7-5.2,24.5,31.7,24.6,32.3C1694.2,1675.3,1702.8,1606.1,1659.6,1576.7z"/>
	<path class="st1" d="M1378,1623.1c13.9,3.1,23.3-28.9,23.3-28.9l-0.4-0.2l-22.9-10.3v0C1377.9,1583.8,1364.1,1620,1378,1623.1z"/>
	<path class="st1" d="M1617.7,1610.5c13.6-6.3-9-36.1-9.2-36.4l0,0l-3.7,2.5l-2.6,1.8l-15,10.2l-0.6,0.4
		C1586.5,1589.1,1604,1616.8,1617.7,1610.5z"/>
	<path class="st1" d="M1411.8,1683c-15.7-3.1-25.2,27-25.3,27.2l0,0l0.3,0.1l24.4,10l0.6,0.2l0,0
		C1412.1,1720.1,1427.5,1686.1,1411.8,1683z"/>
	<path class="st1" d="M1579.6,1678.8c-12.8,5.2-0.1,40.3,0,40.6l0,0l0.8-0.3l22.9-7.7l1-0.3c0,0,0,0,0-0.1
		C1604.1,1710.6,1592.4,1673.6,1579.6,1678.8z"/>
</g>
<path d="M2221,1339c16-4,220-132,228-204s12-340,8-360s-68-56-68-108s48-32,48-32c22,2,25.1-26.8,20-76c-6-58,4-101.1,22-102
	c38-2,36,108,36,108s40-2,76,18s38,104-10,144c-44.3,36.9-41.2,91.9-44,136c-8,128-2.2,243.2-10,296c-10,68-52,84-124,154
	c-54.4,52.9-170,126-170,126L2221,1339z"/>
<path d="M781,1375c0,0-292.4,51.4-304,292c-10,207-2.5,225.1-8,327c-3,56-17.8,73.9-36,106c-12,21.2-41.7,114.5-12,119
	c20,3,32-42,38-43c7-1-2,78,28,78c20,0,27-68,31-68c6-4,14,67,43,58c25.6-8-2.2-86.4,0-106c2-18,41,8,46-14
	c6.6-29.1-68.9-65.9-70-88c-4-79,4.9-321.9,12-363c25-144,185-207,213-207S781,1375,781,1375z"/>
</svg>
