<?xml version="1.0" encoding="utf-8"?>
<!-- Generator: Adobe Illustrator 21.1.0, SVG Export Plug-In . SVG Version: 6.00 Build 0)  -->
<svg version="1.1" id="Layer_1" xmlns="http://www.w3.org/2000/svg" xmlns:xlink="http://www.w3.org/1999/xlink" x="0px" y="0px"
	 viewBox="0 0 3000 3000" style="enable-background:new 0 0 3000 3000;" xml:space="preserve">
<style type="text/css">
	.st0{fill:#391D3A;}
	.st1{fill:#46E21F;}
	.st2{fill:#3183B7;}
	.st3{fill:#F9F9F9;}
</style>
<g>
	<path class="st0" d="M1639.1,290.2c0,0-278.4-116.3-468.2,58.2C981.2,523,922.1,961.6,901,1033.2C880,1104.8,796,1193.8,796,1193.8
		l125.5-25.8c0,0-6.5,367.6-57.2,651.9c-38,213.2-51.8,296.4-51.8,296.4l54.9-49.2c0,0,4.2,125.3,0,268.5
		c-4.6,158.2,33.7,326.7,33.7,326.7s21.1-68.3,67.5-31.9c46.4,36.3,97,94.5,320.5,90.1c223.5-4.5,319.3-19.1,282-90.1
		c-37.3-71.1-193.4-57.6-193.4-57.6l-12.6-71.6l54.8,31.3c0,0-21.1-67.1-29.5-111.9c-8.4-44.7-8.4-44.7-8.4-44.7
		s59.1,8.9,130.8,22.4c71.7,13.4,71.7,13.4,71.7,13.4l8.4,107.4l33.3-22.7c0,0-33.3,194.4,80.6,212.1
		c113.9,17.7,451.2,61.2,463.9-19.4c12.7-80.6-160.3-129.8-160.3-129.8l-4.2-76.1l37.9,62.6c0,0-4.2-161.1,16.9-237.2
		c21.1-76.1,46.4-268.5,46.4-268.5l63.7,67.1c0,0-0.4-317.8-38.4-487.8c-38-170.1-67.5-501.2-67.5-501.2l105.9,71.6
		c0,0-139.6-232.7-173.4-367c-33.7-134.3-71.7-290.9-130.7-380.4c-59.1-89.5-88.6-107.4-88.6-107.4l84.4,8.9
		C1862.6,343.9,1740.3,285.8,1639.1,290.2z"/>
	<path class="st0" d="M940.9,1055.5c0,0-190.2,288.3-240,394.1c-49.8,105.7-90.6,124.9-90.6,124.9l86-28.8c0,0-45.3,100.9-86,197
		c-40.8,96.1-22.7,245.1-22.7,245.1l40.8-67.3l-9.1,110.6l45.3-43.3l-13.6,86.5l77-67.3v67.3c0,0,167.6-182.6,253.6-427.7
		C1067.8,1401.5,1081.3,896.9,940.9,1055.5z"/>
	<path class="st0" d="M2037,1098.8c0,0,172.1,288.3,226.4,374.9c54.3,86.5,63.4,129.8,63.4,129.8l-40.8-28.9c0,0,4.5,0,40.8,187.5
		c36.2,187.5,31.7,240.3,31.7,240.3h-27.2l-9.1,115.3l-49.8-43.3l9.1,72.1l-58.9-48.1l4.5,67.3c0,0-113.2-163.4-144.9-264.3
		C2050.6,1800.4,1824.1,1180.5,2037,1098.8z"/>
	<g>
		<path class="st1" d="M1558.7,1672.5c0,0-19,13.3-28.1,32c-9,18.6-11.1,21.3-11.1,21.3s17.6-29.3,29.1-34.1
			C1560.2,1686.9,1564.2,1671.5,1558.7,1672.5z"/>
		<path class="st1" d="M1441.8,1708.2c0,0-27.6,24.6-38.6,43.1c-11,18.7-11,18.7-11,18.7s17.1-25.5,30.6-34.1
			C1436.3,1727.4,1447.8,1708.8,1441.8,1708.2z"/>
		<path class="st1" d="M1464.6,1980.2c0,0-24.2,33.2-45.5,36.2c-21.3,3-29.9,6-29.9,6s52.6-7.6,68.3-18.1
			C1473.2,1993.8,1468.9,1981.7,1464.6,1980.2z"/>
		<path class="st1" d="M1346.1,2124.8c0,0-1.9,15-6.4,30.5c-3.2,10.9-7.6,22-13.5,28.3c-14.2,15.1-22.8,15.1-22.8,15.1
			s31.3-22.7,31.3-49.8C1334.8,2121.7,1344.7,2115.7,1346.1,2124.8z"/>
		<path class="st1" d="M1460.3,2078.3c0,0-18.4,19.6-29.8,36.2c-11.4,16.6-17,25.6-17,25.6s32.7-30.2,39.8-37.7
			C1460.3,2094.8,1464.6,2082.8,1460.3,2078.3z"/>
		<path class="st1" d="M1525.7,1775c0,0,12.8,43.8,19.9,63.4c7.1,19.6,17.1,28.6,17.1,28.6s-24.2-28.6-32.7-52.8
			C1521.5,1790.1,1518.6,1772,1525.7,1775z"/>
		<path class="st1" d="M1466,1788.6c0,0-45.5,42.2-52.6,54.4c-7.1,12-7.1,12-7.1,12s29.8-30.2,41.2-39.2
			C1458.9,1806.7,1473.1,1791.6,1466,1788.6z"/>
		<path class="st1" d="M1488.8,1871.6c0,0-39.8,33.2-54,48.3c-14.2,15.1-14.2,15.1-14.2,15.1s28.5-25.6,42.7-30.2
			C1477.4,1900.2,1497.3,1871.6,1488.8,1871.6z"/>
		<path class="st1" d="M1510.1,2207.9c0,0,22.8,31.7,34.2,40.8c11.4,9,14.2,16.6,14.2,16.6s-34.1-30.2-34.1-48.3
			C1524.3,2198.9,1508.7,2201.9,1510.1,2207.9z"/>
		<path class="st1" d="M1480.3,2211c0,0-2.8,7-6.5,15.3c-4.7,10.5-10.8,22.9-14.8,25.4c-7.1,4.5-15.6,4.5-15.6,4.5
			s22.8-22.6,25.6-37.7C1471.8,2203.4,1480.3,2200.4,1480.3,2211z"/>
		<path class="st1" d="M1424.8,2176.3c0,0-14.2,22.6-18.5,31.6c-4.3,9.1-8.6,16.6-8.6,16.6S1434.8,2183.8,1424.8,2176.3z"/>
		<path class="st2" d="M1423.9,2271.9c0,0-54.9-1.7-79.2-10.3c-24.2-8.6-37.2-8.6-37.2-8.6S1440,2309.7,1423.9,2271.9z"/>
		<path class="st2" d="M1423.9,2203.3c0,0-67.9,0-88.8,3.4c-21,3.4-21,3.4-21,3.4S1420.7,2167.3,1423.9,2203.3z"/>
		<path class="st2" d="M1456.2,2340.4c0,0-54.9-10.3-72.6-15.4c-17.8-5.1-25.9-6.8-25.9-6.8S1459.4,2369.6,1456.2,2340.4z"/>
		<path class="st2" d="M1540.2,2268.5c0,0-21,29.1-42,34.3c-21,5.1-43.6,5.1-43.6,5.1s48.4-1.7,69.4-8.6
			C1545,2292.5,1551.5,2263.3,1540.2,2268.5z"/>
		<path class="st2" d="M1575.5,1966.6c0,0-29.1,32.5-46.9,49.8c-17.8,17.1-17.8,17.1-17.8,17.1s43.6-34.3,54.9-39.4
			C1577.1,1988.9,1583.6,1970,1575.5,1966.6z"/>
		<path class="st2" d="M1488,1639c0,0-16.2,39.4-22.6,54.9c-6.6,15.4-17.9,29.1-17.9,29.1S1513.8,1659.6,1488,1639z"/>
		<path class="st2" d="M1507.8,2184.5c0,0-27.4,37.7-51.7,41.1c-24.2,3.4-33.9,6.9-33.9,6.9s59.7-8.6,77.5-20.6
			C1517.5,2199.8,1512.7,2186.2,1507.8,2184.5z"/>
		<path class="st2" d="M1581.1,2031.8c0,0-40.4,54.8-56.5,68.5c-16.1,13.8-25.9,17.2-25.9,17.2s53.4-46.3,55-63.4
			C1555.3,2037,1587.6,2009.5,1581.1,2031.8z"/>
		<path class="st2" d="M1571.5,1891.4c0,0-50.1,41.1-56.5,51.4c-6.5,10.3-6.5,10.3-6.5,10.3s19.4-32.6,33.9-49.7
			C1556.9,1886.2,1576.3,1875.9,1571.5,1891.4z"/>
		<path class="st2" d="M1372.4,1681c0,0-21,60-24.2,66.9c-3.2,6.9,11.3-6.9,21-27.4C1378.8,1699.9,1372.4,1681,1372.4,1681z"/>
		<path class="st2" d="M1410.9,1699.4c0,0-19.4,34.3-40.4,60c-21,25.8-21,32.6-21,32.6s38.7-46.3,43.6-54.9
			C1398.1,1728.5,1419,1704.5,1410.9,1699.4z"/>
		<path class="st2" d="M1502.8,1703.9c0,0-21,22.3-33.9,41.2c-12.9,18.8-19.4,29.1-19.4,29.1s37.1-34.2,45.2-42.8
			C1502.8,1722.8,1507.6,1709.1,1502.8,1703.9z"/>
		<path class="st2" d="M1593.8,1728.6c0,0-50,53.1-64.6,60c-14.5,6.8-25.8,12-25.8,12s48.4-29.1,61.4-54.8
			C1577.7,1720,1600.3,1718.3,1593.8,1728.6z"/>
	</g>
	<g>
		<path class="st1" d="M1156.1,1969.9c0,0-19.1,13.3-28.1,32c-9,18.6-11,21.3-11,21.3s17.5-29.3,29.1-34.1
			C1157.6,1984.3,1161.6,1968.9,1156.1,1969.9z"/>
		<path class="st1" d="M1039.1,2005.6c0,0-27.5,24.6-38.6,43.1c-11.1,18.6-11.1,18.6-11.1,18.6s17.1-25.5,30.6-34.1
			C1033.6,2024.8,1045.1,2006.2,1039.1,2005.6z"/>
		<path class="st1" d="M1062,2277.6c0,0-24.2,33.2-45.5,36.2c-21.3,3-29.9,6-29.9,6s52.6-7.6,68.3-18.1
			C1070.5,2291.2,1066.2,2279.1,1062,2277.6z"/>
		<path class="st1" d="M943.4,2422.2c0,0-1.9,15-6.4,30.5c-3.2,10.9-7.6,22.1-13.5,28.4c-14.2,15.1-22.7,15.1-22.7,15.1
			s31.3-22.6,31.3-49.8C932.1,2419.2,942.1,2413.2,943.4,2422.2z"/>
		<path class="st1" d="M1057.7,2375.7c0,0-18.5,19.5-29.8,36.2c-11.4,16.6-17.1,25.6-17.1,25.6s32.7-30.2,39.8-37.7
			C1057.7,2392.3,1062,2380.2,1057.7,2375.7z"/>
		<path class="st1" d="M1123.1,2072.4c0,0,12.8,43.8,19.9,63.4c7.1,19.6,17.1,28.6,17.1,28.6s-24.2-28.6-32.7-52.8
			C1118.8,2087.6,1116,2069.4,1123.1,2072.4z"/>
		<path class="st1" d="M1063.4,2086c0,0-45.5,42.2-52.6,54.4c-7.1,12-7.1,12-7.1,12s29.8-30.2,41.2-39.2
			C1056.3,2104.1,1070.5,2089,1063.4,2086z"/>
		<path class="st1" d="M1086.1,2169c0,0-39.8,33.2-54,48.3c-14.2,15.1-14.2,15.1-14.2,15.1s28.5-25.6,42.6-30.2
			C1074.7,2197.6,1094.7,2169,1086.1,2169z"/>
		<path class="st1" d="M1107.4,2505.4c0,0,22.8,31.7,34.1,40.8c11.4,9.1,14.2,16.6,14.2,16.6s-34.1-30.1-34.1-48.3
			C1121.7,2496.3,1106,2499.3,1107.4,2505.4z"/>
		<path class="st1" d="M1077.6,2508.4c0,0-2.8,7-6.5,15.3c-4.7,10.5-10.9,22.9-14.9,25.4c-7.1,4.5-15.6,4.5-15.6,4.5
			s22.8-22.7,25.6-37.7C1069.1,2500.8,1077.6,2497.8,1077.6,2508.4z"/>
		<path class="st1" d="M1022.2,2473.7c0,0-14.2,22.6-18.5,31.7c-4.3,9.1-8.5,16.6-8.5,16.6S1032.1,2481.2,1022.2,2473.7z"/>
		<path class="st2" d="M1021.2,2569.3c0,0-54.9-1.7-79.2-10.3c-24.2-8.6-37.1-8.6-37.1-8.6S1037.4,2607.1,1021.2,2569.3z"/>
		<path class="st2" d="M1021.2,2500.7c0,0-67.9,0-88.9,3.4c-21,3.4-21,3.4-21,3.4S1018,2464.7,1021.2,2500.7z"/>
		<path class="st2" d="M1053.5,2637.9c0,0-54.9-10.3-72.7-15.4c-17.8-5.1-25.9-6.9-25.9-6.9S1056.8,2667,1053.5,2637.9z"/>
		<path class="st2" d="M1137.5,2565.9c0,0-21,29.1-42,34.3c-21,5.1-43.6,5.1-43.6,5.1s48.4-1.7,69.4-8.6
			C1142.3,2589.9,1148.8,2560.7,1137.5,2565.9z"/>
		<path class="st2" d="M1172.9,2264c0,0-29.1,32.6-46.8,49.7c-17.8,17.2-17.8,17.2-17.8,17.2s43.6-34.3,54.9-39.5
			C1174.5,2286.3,1180.9,2267.5,1172.9,2264z"/>
		<path class="st2" d="M1085.3,1936.5c0,0-16.2,39.4-22.6,54.9c-6.5,15.4-17.8,29.1-17.8,29.1S1111.1,1957,1085.3,1936.5z"/>
		<path class="st2" d="M1105.2,2481.9c0,0-27.4,37.7-51.7,41.1c-24.2,3.4-33.9,6.9-33.9,6.9s59.7-8.6,77.5-20.6
			C1114.9,2497.3,1110.1,2483.6,1105.2,2481.9z"/>
		<path class="st2" d="M1178.5,2329.3c0,0-40.4,54.8-56.5,68.5c-16.2,13.8-25.9,17.2-25.9,17.2s53.4-46.3,54.9-63.5
			C1152.6,2334.4,1184.9,2307,1178.5,2329.3z"/>
		<path class="st2" d="M1168.8,2188.8c0,0-50.1,41.1-56.5,51.4c-6.5,10.3-6.5,10.3-6.5,10.3s19.4-32.6,33.9-49.7
			C1154.3,2183.7,1173.7,2173.3,1168.8,2188.8z"/>
		<path class="st2" d="M969.7,1978.4c0,0-21,60-24.2,66.9c-3.2,6.9,11.3-6.9,21-27.4C976.2,1997.3,969.7,1978.4,969.7,1978.4z"/>
		<path class="st2" d="M1008.3,1996.8c0,0-19.4,34.3-40.4,60c-21,25.7-21,32.6-21,32.6s38.7-46.3,43.6-54.9
			C995.4,2025.9,1016.3,2001.9,1008.3,1996.8z"/>
		<path class="st2" d="M1100.1,2001.4c0,0-21,22.3-33.9,41.2c-12.9,18.8-19.4,29.1-19.4,29.1s37.1-34.2,45.2-42.8
			C1100.1,2020.2,1105,2006.5,1100.1,2001.4z"/>
		<path class="st2" d="M1191.2,2026c0,0-50.1,53.1-64.6,60c-14.5,6.8-25.8,12-25.8,12s48.4-29.1,61.4-54.8
			C1175,2017.4,1197.6,2015.7,1191.2,2026z"/>
	</g>
	<g>
		<g>
			<path class="st1" d="M992.1,1415.5c0,0-7.6,44.7-31.9,79.6c-24.3,35-34.7,42.2-34.7,42.2s37.6-54.3,43.8-82.7
				C975.7,1426.3,992.6,1409.3,992.1,1415.5z"/>
			<path class="st1" d="M1062,1535.5c0,0,5.6,50.1,16.4,84.2c10.8,34,10.8,34,10.8,34s-14.6-59.1-12.2-87.9
				C1079.4,1537.1,1059.3,1520.8,1062,1535.5z"/>
			<path class="st1" d="M956.4,1612.5c0,0-2.3,3.3-5.9,8.4c-10.5,15.2-32.3,47-40.8,61.6c-11.3,19.6-11.3,19.6-11.3,19.6
				s45.7-59.8,58.5-73.1C969.7,1615.8,962.3,1604.1,956.4,1612.5z"/>
			<path class="st1" d="M996.5,1645.1c0,0-31.1,116.9-37.1,143.2c-6.1,26.3-8.7,34.3-8.7,34.3s39.5-101.6,44.9-119.8
				C1001,1684.8,999.2,1637.1,996.5,1645.1z"/>
			<path class="st1" d="M1056.3,1745.7l18.7,80.2c0,0-4.9-58.3-7.2-77.1C1065.4,1730,1054.9,1739.4,1056.3,1745.7z"/>
			<path class="st1" d="M990.7,1857.3c0,0-12.9,85.6-18.8,109.8c-5.9,24.3-8.8,36.4-8.8,36.4s34.6-89.7,36-106.2
				C1000.4,1881,991.9,1843,990.7,1857.3z"/>
			<path class="st1" d="M916,1889.6c0,0-19.9,76.7-23.2,92.9c-3.3,16.2-12.6,33.9-12.6,33.9s34-81.5,34.8-91.8
				C915.9,1914.5,920.7,1879.8,916,1889.6z"/>
			<path class="st1" d="M978.9,2035.3c0,0,2.1,45.6,13.4,73.5c11.3,27.9,11.3,27.9,11.3,27.9s-16.2-63.5-14.8-79.9
				C990.1,2040.5,978.9,2035.3,978.9,2035.3z"/>
			<path class="st1" d="M1078.4,1896.4c0,0-18,76.8-27.1,92.5c-9.1,15.7-19.8,27.1-19.8,27.1s44.2-64,50.1-88.3
				C1087.5,1903.5,1080.8,1890.5,1078.4,1896.4z"/>
			<path class="st1" d="M991.3,1312.7c0,0-12.4-23.4-18.2-48.8c-5.7-25.4-5-33.6-5-33.6s13.4,59.3,24.3,68.7
				C1003.5,1308.2,993.5,1318.4,991.3,1312.7z"/>
			<path class="st1" d="M979.5,1361.4c0,0-12.7-4-37.3-22.8c-24.6-18.9-26.6-26-26.6-26s29.4,38.7,43.1,46.9
				C972.4,1367.7,981.6,1367.2,979.5,1361.4z"/>
			<path class="st1" d="M1063.1,1360.9c0,0-17.7,39.9-20.7,75.6c-2.9,35.7-9,46.2-9,46.2s15.7-63.6,22.2-79.6
				C1062.2,1387.1,1071.2,1357.4,1063.1,1360.9z"/>
			<path class="st1" d="M1137.4,1313.8c0,0-36.1-4.8-53.8-28.6c-17.6-23.8-16.4-22.3-16.4-22.3s25.2,25.9,38,29.8
				C1117.9,1296.7,1144.7,1304.7,1137.4,1313.8z"/>
		</g>
		<path class="st1" d="M1068.2,989.8c0,0,16.8,71.3,24,93.7c7.2,22.3,15.4,32.7,15.4,32.7s-22.4-86.3-23.2-103.2
			C1083.5,996,1072,970.9,1068.2,989.8z"/>
		<path class="st1" d="M997.1,1081.9c0,0-10.5,44.8-18.5,58.4c-7.9,13.7-7.9,13.7-7.9,13.7s31.7-54.8,37.6-71.1
			C1014.2,1066.6,997.1,1081.9,997.1,1081.9z"/>
		<path class="st1" d="M1168.9,1032.9c0,0-0.7,36,19.7,64.4c20.4,28.4,20.4,28.4,20.4,28.4s-26.6-51-25.8-72.2
			C1183.9,1033.7,1168.9,1032.9,1168.9,1032.9z"/>
		<g>
			<path class="st1" d="M1123.4,2085.9c0,0-85.2,60.5-95.5,79.7c-10.3,19.3-20.6,29.5-20.6,29.5s46.4-41.9,73.5-61.1
				C1107.9,2114.8,1140.8,2082.4,1123.4,2085.9z"/>
			<path class="st1" d="M961.9,2056.5c0,0-32.9,29.3-53.6,54.6c-20.9,25.4-31.3,39.3-31.3,39.3s57.5-44.3,70.1-55.5
				C959.6,2083.6,968.2,2064.6,961.9,2056.5z"/>
			<path class="st1" d="M1025.6,2275.9c0,0,32.8,55.2,50.2,71.7c17.4,16.5,21,29.2,21,29.2s-51.7-54.4-49.3-83.9
				C1050.1,2263.3,1024.1,2265.9,1025.6,2275.9z"/>
			<path class="st1" d="M976.5,2276.3c0,0-5.5,11-12.7,24c-9.1,16.4-20.8,35.7-27.6,39.2c-12.3,6.3-26.2,5.1-26.2,5.1
				s40.2-33.6,46.9-57.8C963.6,2262.7,977.9,2259.1,976.5,2276.3z"/>
			<path class="st1" d="M890.7,2211.2c0,0-26.3,34.8-34.5,48.9C848,2274.3,840,2286,840,2286S905.9,2225.1,890.7,2211.2z"/>
		</g>
		<path class="st2" d="M1003.2,1147.1c0,0-10,59.3-42.2,105.5c-32.2,46.2-45.9,55.9-45.9,55.9s49.7-71.9,58-109.4
			C981.5,1161.5,1003.9,1138.9,1003.2,1147.1z"/>
		<path class="st2" d="M1095.8,1306.1c0,0,7.4,66.3,21.8,111.4c14.3,45.1,14.3,45.1,14.3,45.1s-19.3-78.3-16.2-116.3
			C1118.8,1308.2,1092.2,1286.6,1095.8,1306.1z"/>
		<path class="st2" d="M956,1407.9c0,0-3,4.3-7.8,11.2c-14,20.2-42.8,62.2-54,81.5c-15,26-15,26-15,26s60.7-79.1,77.5-96.7
			C973.6,1412.3,963.7,1396.8,956,1407.9z"/>
		<path class="st2" d="M1009.1,1451.1c0,0-41.1,154.8-49.1,189.6c-8,34.8-11.5,45.4-11.5,45.4s52.3-134.6,59.5-158.5
			C1015,1503.7,1012.6,1440.5,1009.1,1451.1z"/>
		<path class="st2" d="M1088.3,1584.3l24.7,106.2c0,0-6.5-77.2-9.6-102.1C1100.3,1563.6,1086.4,1575.9,1088.3,1584.3z"/>
		<path class="st2" d="M1001.4,1732.1c0,0-17.1,113.2-24.9,145.4c-7.8,32.1-11.7,48.1-11.7,48.1s45.9-118.8,47.7-140.5
			C1014.2,1763.4,1003,1713.1,1001.4,1732.1z"/>
		<path class="st2" d="M902.5,1774.8c0,0-26.4,101.5-30.7,122.9c-4.3,21.4-16.6,44.9-16.6,44.9s45-107.9,46.1-121.5
			C902.4,1807.7,908.7,1761.7,902.5,1774.8z"/>
		<path class="st2" d="M1023.3,1996.6c0,0,2.7,60.4,17.8,97.4c15,36.9,15,36.9,15,36.9s-21.5-84-19.7-105.7
			C1038.2,2003.5,1023.3,1996.6,1023.3,1996.6z"/>
		<path class="st2" d="M909.6,2062.6c0,0-23.8,101.7-35.8,122.4c-12,20.8-26.2,35.9-26.2,35.9s58.6-84.8,66.3-116.9
			C921.7,2071.9,912.9,2054.7,909.6,2062.6z"/>
		<path class="st2" d="M961.2,2187.7c0,0,19,81,27.3,106.4c8.2,25.4,17.5,37.2,17.5,37.2s-25.3-98.1-26.4-117.3
			C978.6,2194.8,965.6,2166.3,961.2,2187.7z"/>
		<path class="st2" d="M880.4,2292.3c0,0-11.9,50.9-20.9,66.4c-9,15.6-9,15.6-9,15.6s36.1-62.3,42.7-80.8
			C899.9,2275,880.4,2292.3,880.4,2292.3z"/>
		<path class="st2" d="M1002.2,1011c0,0-16.5-30.8-24.1-64.5c-7.5-33.7-6.7-44.6-6.7-44.6s17.7,78.6,32.2,90.9
			C1018.2,1005.2,1005,1018.6,1002.2,1011z"/>
		<path class="st2" d="M986.5,1075.6c0,0-16.9-5.3-49.3-30.3c-32.5-25-35.2-34.4-35.2-34.4s39,51.3,57.1,62.1
			C977.2,1083.9,989.4,1083.2,986.5,1075.6z"/>
		<path class="st2" d="M1097.2,1074.8c0,0-23.4,52.8-27.3,100.1c-3.9,47.3-11.9,61.3-11.9,61.3s20.8-84.2,29.4-105.4
			C1096,1109.6,1107.9,1070.4,1097.2,1074.8z"/>
		<path class="st2" d="M1160.5,1165.1c0,0-6.6,80-0.9,95.2c5.6,15.2,6.4,26.3,6.4,26.3s-1.2-47.8,0.9-73.2
			C1169,1187.9,1166.7,1152.8,1160.5,1165.1z"/>
		<path class="st2" d="M1195.6,1012.5c0,0-47.8-6.3-71.1-37.7c-23.3-31.5-21.8-29.5-21.8-29.5s33.5,34.2,50.3,39.4
			C1169.8,990,1205.2,1000.6,1195.6,1012.5z"/>
		<path class="st2" d="M1087.4,1509c0,0,51.1-11.7,74.1-18.8c23.1-7,34.3-18.8,34.3-18.8s-35.1,27.9-63.4,36.3
			C1104.1,1516,1083.2,1517.8,1087.4,1509z"/>
	</g>
	<g>
		<g>
			<path class="st1" d="M2009.7,1279.1c0,0,8.8,39.5,0.6,77.2c-8.2,37.8-14.2,47.7-14.2,47.7s12.5-58.7,8.2-84.3
				C1999.9,1294.1,2008.1,1273.8,2009.7,1279.1z"/>
			<path class="st1" d="M2107.3,1350.9c0,0,21.4,39,41.7,62.7c20.3,23.8,20.3,23.8,20.3,23.8s-31.8-42.9-39.5-67.3
				C2122,1345.7,2100.1,1339.9,2107.3,1350.9z"/>
			<path class="st1" d="M2046.6,1453.9c0,0-0.8,3.5-2,9.1c-3.5,16.4-10.7,50.7-12.8,65.8c-2.6,20.3-2.6,20.3-2.6,20.3
				s17.4-66.2,23.4-81.9C2058.6,1451.5,2048.6,1444.7,2046.6,1453.9z"/>
			<path class="st1" d="M2090.4,1465.4c0,0,13.8,107.5,17.7,131.2c3.8,23.9,4.4,31.4,4.4,31.4s-1.8-98.1-3.4-115
				C2107.4,1496.2,2089.9,1457.8,2090.4,1465.4z"/>
			<path class="st1" d="M2173.1,1525.2l42.3,58.6c0,0-23.6-45.9-31.8-60.4C2175.3,1508.9,2169.8,1520.5,2173.1,1525.2z"/>
			<path class="st1" d="M2156.8,1641.4c0,0,18.2,74.9,21.5,97c3.3,22.1,5,33.1,5,33.1s-1.7-86.5-6.1-100.5
				C2172.7,1657,2153,1629.2,2156.8,1641.4z"/>
			<path class="st1" d="M2106.5,1696c0,0,9.4,70.3,12.2,84.8c2.7,14.5,1.1,32.5,1.1,32.5s0.5-79.6-2.3-88.3
				C2114.7,1716.4,2107.1,1686.1,2106.5,1696z"/>
			<path class="st1" d="M2206.8,1791.5c0,0,17,36.6,35.6,55.1c18.6,18.6,18.6,18.6,18.6,18.6s-34.5-45.8-39-59.8
				C2217.8,1791.5,2206.8,1791.5,2206.8,1791.5z"/>
			<path class="st1" d="M2241.8,1640.2c0,0,11,69.7,8.9,86c-2.2,16.2-7.1,29.6-7.1,29.6s14.7-69.1,11.4-91.2
				C2251.6,1642.5,2241.7,1634.4,2241.8,1640.2z"/>
			<path class="st1" d="M1974.6,1195.2c0,0-18-14.4-31.2-33.1c-13.2-18.6-15.4-25.6-15.4-25.6s30.9,43.5,43,47.1
				C1983,1187,1978.3,1199.1,1974.6,1195.2z"/>
			<path class="st1" d="M1981.2,1239.6c0,0-11.8,1.6-38.2-4.6c-26.4-6.2-30.5-11.2-30.5-11.2s37.1,20.6,51,22.2
				C1977.6,1247.4,1984.9,1243.5,1981.2,1239.6z"/>
			<path class="st1" d="M2049.5,1207.6c0,0-1.1,39.3,8.5,69.7c9.5,30.4,8.1,41.3,8.1,41.3s-8.5-58-8.5-73.6
				C2057.6,1229.4,2055,1201.7,2049.5,1207.6z"/>
			<path class="st1" d="M2094.6,1140.9c0,0-31.2,9.8-53.6-3.1c-22.4-12.8-20.9-12-20.9-12s29.4,11.6,41.1,10.1
				C2072.9,1134.3,2097.5,1130.8,2094.6,1140.9z"/>
		</g>
		<path class="st1" d="M1929.2,901.9c0,0,37.7,52.1,51.1,67.6c13.4,15.6,23.6,21,23.6,21s-47.3-62.2-53.6-75.7
			C1943.8,901.2,1926,885,1929.2,901.9z"/>
		<path class="st1" d="M1901.9,1004.1c0,0,6.5,40.6,4.5,54.8c-1.9,14.2-1.9,14.2-1.9,14.2s7.6-56.8,7-72.4
			C1910.8,985.1,1901.9,1004.1,1901.9,1004.1z"/>
		<path class="st1" d="M2026.2,899.1c0,0,11.5,29.7,37.7,45.3c26.2,15.5,26.2,15.5,26.2,15.5s-38.9-31.7-45.3-49.4
			C2038.7,894.1,2026.2,899.1,2026.2,899.1z"/>
		<g>
			<path class="st1" d="M2342.1,1778.3c0,0-49.5,81.7-51.5,101.3c-2,19.6-6.9,31.9-6.9,31.9s24-51.8,39.7-77.8
				C2339.1,1807.8,2355.2,1768.9,2342.1,1778.3z"/>
			<path class="st1" d="M2200.1,1815.3c0,0-17.1,36.3-25.6,64.9c-8.5,28.7-12.5,44-12.5,44s32.2-58,38.7-71.9
				C2207.3,1838.3,2208,1819.5,2200.1,1815.3z"/>
			<path class="st1" d="M2325.9,1970.8c0,0,45.4,32.8,65.2,39.7c19.7,6.9,26.9,16,26.9,16s-60.5-25-68.5-50.1
				C2341.6,1951.2,2321.3,1963.1,2325.9,1970.8z"/>
			<path class="st1" d="M2285.8,1989.7c0,0-0.8,11.1-2.3,24.5c-1.9,16.9-5.1,37.1-9.5,42.6c-7.9,9.8-19.7,14-19.7,14
				s21.7-42.6,19-65C2270.6,1983.4,2281.2,1975.1,2285.8,1989.7z"/>
			<path class="st1" d="M2193.7,1968.9c0,0-9.8,38.4-11.8,53.1c-1.9,14.7-4.6,27.3-4.6,27.3S2210.8,1974.5,2193.7,1968.9z"/>
		</g>
		<path class="st2" d="M1928.8,1055.2c0,0,11.7,52.3,0.9,102.2c-10.8,50-18.8,63.1-18.8,63.1s16.6-77.6,10.7-111.5
			C1915.8,1075.1,1926.6,1048.2,1928.8,1055.2z"/>
		<path class="st2" d="M2057.9,1150.3c0,0,28.3,51.5,55.2,83c26.9,31.5,26.9,31.5,26.9,31.5s-42.1-56.8-52.3-89.1
			C2077.5,1143.4,2048.5,1135.8,2057.9,1150.3z"/>
		<path class="st2" d="M1977.6,1286.6c0,0-1,4.7-2.6,12.1c-4.7,21.8-14.2,67.1-16.9,87.2c-3.6,26.9-3.6,26.9-3.6,26.9
			s23.1-87.7,31-108.5C1993.5,1283.4,1980.2,1274.5,1977.6,1286.6z"/>
		<path class="st2" d="M2035.6,1301.8c0,0,18.3,142.3,23.4,173.8c5.1,31.5,5.8,41.5,5.8,41.5s-2.3-129.9-4.5-152.2
			C2058.1,1342.6,2034.9,1291.9,2035.6,1301.8z"/>
		<path class="st2" d="M2145.1,1380.9l55.9,77.6c0,0-31.2-60.7-42.1-79.9C2148,1359.4,2140.8,1374.8,2145.1,1380.9z"/>
		<path class="st2" d="M2123.5,1534.8c0,0,24,99.1,28.4,128.4c4.4,29.2,6.6,43.8,6.6,43.8s-2.3-114.6-8.1-133
			C2144.6,1555.5,2118.5,1518.6,2123.5,1534.8z"/>
		<path class="st2" d="M2056.9,1607.1c0,0,12.4,93.1,16.1,112.3c3.7,19.2,1.5,43,1.5,43s0.7-105.4-3-116.9
			C2067.9,1634,2057.7,1594,2056.9,1607.1z"/>
		<path class="st2" d="M2230.3,1743c0,0,22.5,48.4,47.2,73c24.7,24.6,24.7,24.6,24.7,24.6s-45.7-60.7-51.5-79.1
			C2244.8,1743.1,2230.3,1743,2230.3,1743z"/>
		<path class="st2" d="M2159.3,1840c0,0,14.6,92.3,11.8,113.8c-2.9,21.6-9.4,39.3-9.4,39.3s19.5-91.6,15.1-120.7
			C2172.4,1843.1,2159.4,1832.3,2159.3,1840z"/>
		<path class="st2" d="M2243.5,1922.9c0,0,42.8,59.2,58,76.9c15.2,17.6,26.9,23.8,26.9,23.8s-53.7-70.7-60.9-86
			C2260.2,1922.2,2239.9,1903.7,2243.5,1922.9z"/>
		<path class="st2" d="M2212.5,2039.1c0,0,7.3,46.1,5.1,62.3c-2.1,16.1-2.1,16.1-2.1,16.1s8.6-64.6,7.9-82.3
			C2222.6,2017.6,2212.5,2039.1,2212.5,2039.1z"/>
		<path class="st2" d="M1882.3,944.1c0,0-23.8-19-41.3-43.7c-17.5-24.7-20.4-34-20.4-34s40.9,57.7,56.9,62.3
			C1893.5,933.3,1887.2,949.3,1882.3,944.1z"/>
		<path class="st2" d="M1891.1,1002.9c0,0-15.6,2.1-50.5-6.1c-35-8.2-40.4-14.9-40.4-14.9s49.1,27.2,67.6,29.3
			C1886.3,1013.2,1896,1008.1,1891.1,1002.9z"/>
		<path class="st2" d="M1981.5,960.5c0,0-1.4,52.1,11.2,92.3c12.7,40.2,10.8,54.7,10.8,54.7s-11.2-76.8-11.3-97.4
			C1992.2,989.4,1988.7,952.8,1981.5,960.5z"/>
		<path class="st2" d="M2063.6,1010.5c0,0,21.5,68,31.2,78.3c9.7,10.3,14.1,19.1,14.1,19.1s-17-38.7-23.8-60.3
			C2078.2,1025.9,2064.5,998.1,2063.6,1010.5z"/>
		<path class="st2" d="M2041.1,872.3c0,0-41.2,13-70.9-4c-29.7-17-27.7-15.9-27.7-15.9s38.9,15.4,54.4,13.3
			C2012.4,863.6,2045,858.9,2041.1,872.3z"/>
		<path class="st2" d="M2119.1,1319.6c0,0,37.9-28.9,54.4-43.4c16.5-14.4,21.8-28.4,21.8-28.4s-19.4,36.1-39.8,53.6
			C2135.2,1319.1,2118.7,1328.4,2119.1,1319.6z"/>
	</g>
	<g>
		<g>
			<path class="st1" d="M1979.4,1415.5c0,0,7.6,44.7,32,79.6c24.4,35,34.8,42.2,34.8,42.2s-37.7-54.3-44-82.7
				C1995.9,1426.3,1978.9,1409.3,1979.4,1415.5z"/>
			<path class="st1" d="M1909.2,1535.5c0,0-5.6,50.1-16.4,84.2c-10.9,34-10.9,34-10.9,34s14.7-59.2,12.3-87.9
				C1891.7,1537.1,1911.9,1520.8,1909.2,1535.5z"/>
			<path class="st1" d="M2015.3,1612.5c0,0,2.3,3.3,5.9,8.4c10.5,15.2,32.4,47,41,61.6c11.4,19.6,11.4,19.6,11.4,19.6
				s-46-59.8-58.8-73C2001.9,1615.8,2009.4,1604,2015.3,1612.5z"/>
			<path class="st1" d="M1975,1645.1c0,0,31.2,116.9,37.3,143.2c6.1,26.3,8.7,34.3,8.7,34.3s-39.7-101.7-45.1-119.7
				C1970.5,1684.8,1972.3,1637.1,1975,1645.1z"/>
			<path class="st1" d="M1914.9,1745.7l-18.8,80.2c0,0,5-58.3,7.3-77.1C1905.8,1730,1916.3,1739.4,1914.9,1745.7z"/>
			<path class="st1" d="M1980.8,1857.3c0,0,13,85.6,18.9,109.8c5.9,24.3,8.9,36.4,8.9,36.4s-34.8-89.7-36.1-106.2
				C1971.1,1881,1979.7,1843,1980.8,1857.3z"/>
			<path class="st1" d="M2055.8,1889.6c0,0,20,76.7,23.3,92.9c3.3,16.2,12.6,33.9,12.6,33.9s-34.1-81.5-35-91.8
				C2056,1914.5,2051.1,1879.8,2055.8,1889.6z"/>
			<path class="st1" d="M1992.7,2035.3c0,0-2.1,45.6-13.4,73.5c-11.4,27.9-11.4,27.9-11.4,27.9s16.3-63.5,14.9-79.9
				C1981.5,2040.4,1992.7,2035.3,1992.7,2035.3z"/>
			<path class="st1" d="M1892.8,1896.4c0,0,18.1,76.9,27.2,92.5c9.2,15.7,19.9,27.1,19.9,27.1s-44.4-64.1-50.3-88.3
				C1883.6,1903.5,1890.3,1890.5,1892.8,1896.4z"/>
			<path class="st1" d="M1980.2,1312.7c0,0,12.5-23.4,18.3-48.8c5.7-25.4,5-33.6,5-33.6s-13.4,59.3-24.4,68.7
				C1968,1308.2,1978,1318.4,1980.2,1312.7z"/>
			<path class="st1" d="M1992.1,1361.4c0,0,12.8-4,37.4-22.8c24.7-18.9,26.7-26,26.7-26s-29.5,38.7-43.2,46.9
				C1999.2,1367.7,1989.9,1367.2,1992.1,1361.4z"/>
			<path class="st1" d="M1908.1,1360.9c0,0,17.8,39.9,20.7,75.6c3,35.7,9.1,46.2,9.1,46.2s-15.8-63.6-22.4-79.6
				C1909.1,1387.1,1900,1357.4,1908.1,1360.9z"/>
			<path class="st1" d="M1833.5,1313.8c0,0,36.3-4.8,54-28.6c17.7-23.8,16.5-22.3,16.5-22.3s-25.3,25.9-38.2,29.8
				C1853.1,1296.7,1826.2,1304.7,1833.5,1313.8z"/>
		</g>
		<path class="st1" d="M1903,989.8c0,0-16.9,71.3-24.1,93.7c-7.3,22.3-15.5,32.7-15.5,32.7s22.5-86.3,23.3-103.2
			C1887.7,996,1899.2,970.9,1903,989.8z"/>
		<path class="st1" d="M1974.4,1081.9c0,0,10.5,44.8,18.5,58.4c7.9,13.7,7.9,13.7,7.9,13.7s-31.9-54.8-37.8-71.1
			C1957.2,1066.6,1974.4,1081.9,1974.4,1081.9z"/>
		<path class="st1" d="M1801.9,1032.9c0,0,0.7,36-19.7,64.4c-20.4,28.3-20.4,28.3-20.4,28.3s26.8-50.9,25.9-72.2
			C1786.8,1033.7,1801.9,1032.9,1801.9,1032.9z"/>
		<g>
			<path class="st1" d="M1847.6,2085.9c0,0,85.6,60.5,96,79.7c10.3,19.3,20.7,29.5,20.7,29.5s-46.6-41.9-73.9-61.1
				C1863.2,2114.8,1830.1,2082.4,1847.6,2085.9z"/>
			<path class="st1" d="M2009.8,2056.5c0,0,33,29.2,53.8,54.6c20.9,25.4,31.4,39.3,31.4,39.3s-57.7-44.3-70.4-55.5
				C2012,2083.6,2003.4,2064.6,2009.8,2056.5z"/>
			<path class="st1" d="M1945.7,2275.9c0,0-33,55.2-50.4,71.7c-17.4,16.5-21,29.2-21,29.2s51.9-54.4,49.4-83.9
				C1921.2,2263.3,1947.2,2265.9,1945.7,2275.9z"/>
			<path class="st1" d="M1995.1,2276.3c0,0,5.5,11,12.7,24c9.1,16.4,20.9,35.7,27.7,39.2c12.3,6.3,26.3,5,26.3,5s-40.4-33.5-47-57.7
				C2008.1,2262.7,1993.6,2259.1,1995.1,2276.3z"/>
		</g>
		<path class="st2" d="M1968.2,1147.1c0,0,10.1,59.3,42.3,105.5c32.3,46.2,46,55.9,46,55.9s-49.9-71.9-58.2-109.4
			C1990.1,1161.5,1967.6,1138.9,1968.2,1147.1z"/>
		<path class="st2" d="M1875.3,1306.1c0,0-7.5,66.3-21.8,111.4c-14.4,45.1-14.4,45.1-14.4,45.1s19.4-78.3,16.3-116.3
			C1852.2,1308.2,1878.9,1286.6,1875.3,1306.1z"/>
		<path class="st2" d="M2015.7,1407.9c0,0,3,4.3,7.7,11.2c14.1,20.2,43,62.2,54.2,81.5c15.1,26,15.1,26,15.1,26
			s-60.9-79.2-77.8-96.7C1998,1412.3,2007.9,1396.8,2015.7,1407.9z"/>
		<path class="st2" d="M1962.4,1451.1c0,0,41.3,154.8,49.3,189.6c8.1,34.8,11.5,45.4,11.5,45.4s-52.5-134.6-59.7-158.5
			C1956.4,1503.7,1958.9,1440.5,1962.4,1451.1z"/>
		<path class="st2" d="M1882.8,1584.3l-24.8,106.2c0,0,6.5-77.2,9.7-102.1C1870.8,1563.5,1884.7,1575.9,1882.8,1584.3z"/>
		<path class="st2" d="M1970.1,1732.1c0,0,17.2,113.2,25,145.4c7.8,32.1,11.8,48.1,11.8,48.1s-46.1-118.8-47.9-140.5
			C1957.2,1763.3,1968.5,1713.1,1970.1,1732.1z"/>
		<path class="st2" d="M2069.4,1774.8c0,0,26.5,101.5,30.9,123c4.3,21.4,16.6,44.9,16.6,44.9s-45.2-107.9-46.3-121.5
			C2069.5,1807.7,2063.1,1761.7,2069.4,1774.8z"/>
		<path class="st2" d="M1948.1,1996.6c0,0-2.8,60.4-17.8,97.3c-15.1,37-15.1,37-15.1,37s21.5-84,19.7-105.7
			C1933.1,2003.5,1948.1,1996.6,1948.1,1996.6z"/>
		<path class="st2" d="M2062.2,2062.6c0,0,23.9,101.7,36,122.4c12,20.8,26.3,35.9,26.3,35.9s-58.8-84.8-66.6-116.9
			C2050.1,2071.9,2058.9,2054.7,2062.2,2062.6z"/>
		<path class="st2" d="M2010.4,2187.7c0,0-19.1,81-27.4,106.4c-8.3,25.4-17.6,37.2-17.6,37.2s25.5-98.1,26.5-117.3
			C1993,2194.8,2006.1,2166.3,2010.4,2187.7z"/>
		<path class="st2" d="M1969.3,1011c0,0,16.5-30.9,24.1-64.5c7.6-33.7,6.7-44.6,6.7-44.6s-17.8,78.6-32.4,91
			C1953.2,1005.2,1966.4,1018.6,1969.3,1011z"/>
		<path class="st2" d="M1985,1075.6c0,0,17-5.3,49.5-30.3c32.6-25,35.3-34.4,35.3-34.4s-39.1,51.3-57.3,62.1
			C1994.4,1083.9,1982.2,1083.2,1985,1075.6z"/>
		<path class="st2" d="M1873.9,1074.8c0,0,23.5,52.8,27.4,100.1c3.9,47.3,12,61.2,12,61.2s-20.9-84.2-29.6-105.4
			C1875.1,1109.6,1863.2,1070.4,1873.9,1074.8z"/>
		<path class="st2" d="M1810.3,1165.1c0,0,6.6,80,0.9,95.2c-5.7,15.2-6.5,26.3-6.5,26.3s1.2-47.8-0.9-73.2
			C1801.8,1187.9,1804.1,1152.8,1810.3,1165.1z"/>
		<path class="st2" d="M1775.1,1012.5c0,0,48-6.3,71.4-37.7c23.4-31.5,21.9-29.5,21.9-29.5s-33.6,34.2-50.5,39.5
			C1801,989.9,1765.5,1000.6,1775.1,1012.5z"/>
		<path class="st2" d="M1883.7,1509c0,0-51.3-11.8-74.4-18.8c-23.1-7-34.5-18.8-34.5-18.8s35.2,27.9,63.7,36.3
			C1867,1516,1887.9,1517.8,1883.7,1509z"/>
	</g>
	<g>
		<path class="st1" d="M1256.1,1248.2c0,0-21.3,60.8-24.6,67.8c-3.3,6.9,11.4-7,21.2-27.9
			C1262.6,1267.3,1256.1,1248.2,1256.1,1248.2z"/>
		<path class="st1" d="M1280.6,956.1c0,0-72.1,0-85.1,7c-13.1,7-23,8.7-23,8.7s42.6-5.2,65.6-5.2S1292.1,961.3,1280.6,956.1z"/>
		<path class="st1" d="M1287.2,1060.4c0,0-19.7,34.7-41,60.8c-21.3,26.1-21.3,33-21.3,33s39.3-46.9,44.2-55.7
			C1274.1,1089.9,1295.4,1065.6,1287.2,1060.4z"/>
		<path class="st1" d="M1271.7,1366.8c0,0-21.3,22.6-34.4,41.7c-13.1,19.1-19.7,29.6-19.7,29.6s37.7-34.8,45.9-43.5
			C1271.7,1385.9,1276.6,1372,1271.7,1366.8z"/>
		<path class="st1" d="M1392,1107.3c0,0-50.8,53.9-65.5,60.9c-14.8,6.9-26.2,12.2-26.2,12.2s49.1-29.6,62.3-55.6
			C1375.7,1098.6,1398.6,1096.9,1392,1107.3z"/>
		<g>
			<path class="st1" d="M1439.3,1044.8c0,0-62.4,22.9-81.8,31.9c-19.4,9.2-28,18.2-28,18.2s75.3-29.7,90.3-31.9
				C1435,1060.7,1456.5,1047.1,1439.3,1044.8z"/>
			<path class="st1" d="M1351.1,980.9c0,0-40.9-6.8-53.8-13.7c-12.9-6.8-12.9-6.8-12.9-6.8s51.6,27.4,66.7,31.9
				C1366.2,996.8,1351.1,980.9,1351.1,980.9z"/>
			<path class="st1" d="M1409.2,1149.8c0,0-32.3,2.3-55.9,25.1c-23.7,22.9-23.7,22.9-23.7,22.9s43.4-31.1,62.4-32
				C1409.6,1164.9,1409.2,1149.8,1409.2,1149.8z"/>
			<path class="st1" d="M1446.7,1229.4c0,0-19.3,13.5-28.5,32.4c-9.1,18.9-11.2,21.6-11.2,21.6s17.8-29.7,29.5-34.6
				C1448.2,1243.9,1452.3,1228.3,1446.7,1229.4z"/>
			<path class="st1" d="M1328.2,1265.5c0,0-28,24.8-39.2,43.8c-11.2,18.9-11.2,18.9-11.2,18.9s17.3-26,31-34.6
				C1322.6,1285,1334.2,1266,1328.2,1265.5z"/>
			<path class="st1" d="M1351.3,1541.4c0,0-24.5,33.7-46.2,36.7c-21.6,3-30.2,6.1-30.2,6.1s53.3-7.7,69.2-18.4
				C1360,1555.1,1355.6,1542.9,1351.3,1541.4z"/>
			<path class="st1" d="M1453.6,1524.5c0,0-1.9,15.3-6.5,30.9c-3.2,11.1-7.7,22.4-13.6,28.8c-14.4,15.3-23.1,15.3-23.1,15.3
				s31.8-23,31.8-50.6C1442.2,1521.4,1452.3,1515.3,1453.6,1524.5z"/>
			<path class="st1" d="M1413.3,1333.3c0,0,13,44.4,20.2,64.3c7.2,19.9,17.3,29,17.3,29s-24.5-29-33.2-53.5
				C1409,1348.6,1406.1,1330.2,1413.3,1333.3z"/>
			<path class="st1" d="M1352.8,1347c0,0-46.2,42.9-53.4,55.1c-7.2,12.2-7.2,12.2-7.2,12.2s30.3-30.6,41.8-39.8
				C1345.5,1365.4,1359.9,1350.1,1352.8,1347z"/>
			<path class="st1" d="M1375.8,1431.2c0,0-40.4,33.7-54.8,49c-14.5,15.3-14.5,15.3-14.5,15.3s28.9-26,43.3-30.6
				C1364.2,1460.2,1384.5,1431.2,1375.8,1431.2z"/>
		</g>
		<path class="st2" d="M1442.6,1016.4c2.3,2.6,15.7,45.7,19.6,67.9c3.9,22.1,5.8,29.5,5.8,29.5s-9.7-34-16.6-48.7
			C1444.5,1050.3,1438.6,1011.9,1442.6,1016.4z"/>
		<path class="st2" d="M1392.6,1033.8c0,0-67.2,10.4-93.4,33c-26.2,22.6-26.2,22.6-26.2,22.6s39.3-29.6,58.9-31.3
			C1351.6,1056.4,1405.7,1037.3,1392.6,1033.8z"/>
		<path class="st2" d="M1310.7,962.5l-80.3,43.5c0,0,63.9-27.8,70.5-27.8C1307.4,978.2,1320.5,962.5,1310.7,962.5z"/>
		<path class="st2" d="M1302.5,1148.6l-72.1,59.1c0,0,42.6-33,50.8-34.8C1289.4,1171.2,1312.3,1152,1302.5,1148.6z"/>
		<path class="st2" d="M1289.4,1273.7c0,0-52.4,48.7-60.6,62.6c-8.2,13.9-8.2,13.9-8.2,13.9s34.4-34.8,47.5-45.2
			C1281.2,1294.6,1297.5,1277.2,1289.4,1273.7z"/>
		<path class="st2" d="M1410.6,1134.7c0,0-45.9,38.2-62.2,55.6c-16.4,17.4-16.4,17.4-16.4,17.4s32.8-29.6,49.2-34.8
			C1397.5,1167.7,1420.4,1134.7,1410.6,1134.7z"/>
		<path class="st2" d="M1402.4,1254.6c0,0-37.6,45.2-45.9,50.4c-8.2,5.2-22.9,13.9-22.9,13.9s36-22.6,49.1-27.8
			C1395.9,1285.9,1413.9,1258.1,1402.4,1254.6z"/>
		<path class="st2" d="M1395.9,1433.7l44.2,74.7c0,0-19.7-45.2-22.9-60.9C1413.9,1432,1397.5,1404.1,1395.9,1433.7z"/>
		<path class="st2" d="M1374.6,1550.1c0,0-16.4,76.5-36.1,83.4c-19.6,6.9,13.1-12.2,16.4-36.5
			C1358.2,1572.8,1366.4,1541.4,1374.6,1550.1z"/>
		<path class="st2" d="M1417.2,1585c0,0-9.8,50.4-18,60.8c-8.2,10.4-13.1,10.4-13.1,10.4s18-27.8,18-50.4
			C1404.1,1583.1,1412.2,1576.2,1417.2,1585z"/>
		<path class="st2" d="M1295.9,1442.4c0,0-11.5,46.9-27.8,59.1c-16.4,12.2-31.1,13.9-31.1,13.9s36.1-6.9,47.6-19
			C1295.9,1484.1,1309.1,1452.8,1295.9,1442.4z"/>
	</g>
	<g>
		<path class="st1" d="M1871.8,2573.4c0,0-21.3,60.8-24.5,67.8c-3.3,7,11.4-7,21.3-27.8C1878.3,2592.6,1871.8,2573.4,1871.8,2573.4z
			"/>
		<path class="st1" d="M1896.3,2281.4c0,0-72.1,0-85.2,7c-13.1,6.9-22.9,8.7-22.9,8.7s42.6-5.2,65.5-5.2
			C1876.7,2291.8,1907.8,2286.6,1896.3,2281.4z"/>
		<path class="st1" d="M1902.9,2385.7c0,0-19.7,34.7-40.9,60.8c-21.3,26.1-21.3,33.1-21.3,33.1s39.3-47,44.2-55.7
			C1889.8,2415.2,1911.1,2390.9,1902.9,2385.7z"/>
		<path class="st1" d="M1887.4,2692.1c0,0-21.3,22.6-34.4,41.7c-13.1,19.2-19.7,29.6-19.7,29.6s37.7-34.8,45.9-43.5
			C1887.4,2711.2,1892.3,2697.3,1887.4,2692.1z"/>
		<path class="st1" d="M2007.8,2432.6c0,0-50.8,53.9-65.5,60.9c-14.8,7-26.2,12.2-26.2,12.2s49.1-29.6,62.2-55.6
			C1991.4,2423.9,2014.3,2422.2,2007.8,2432.6z"/>
		<g>
			<path class="st1" d="M2055,2370.1c0,0-62.3,22.8-81.7,32c-19.4,9.1-28,18.3-28,18.3s75.3-29.7,90.3-32
				C2050.7,2386,2072.2,2372.4,2055,2370.1z"/>
			<path class="st1" d="M1966.8,2306.2c0,0-40.9-6.8-53.8-13.7c-12.9-6.8-12.9-6.8-12.9-6.8s51.6,27.4,66.7,31.9
				C1981.8,2322.1,1966.8,2306.2,1966.8,2306.2z"/>
			<path class="st1" d="M2024.9,2475.1c0,0-32.3,2.3-55.9,25.1c-23.7,22.9-23.7,22.9-23.7,22.9s43.4-31,62.4-32
				C2025.3,2490.2,2024.9,2475.1,2024.9,2475.1z"/>
			<path class="st1" d="M2062.4,2554.6c0,0-19.3,13.5-28.5,32.4c-9.1,18.9-11.2,21.6-11.2,21.6s17.8-29.8,29.5-34.7
				C2064,2569.2,2068,2553.6,2062.4,2554.6z"/>
			<path class="st1" d="M1943.9,2590.8c0,0-28,24.9-39.2,43.8c-11.2,18.9-11.2,18.9-11.2,18.9s17.3-25.9,31.1-34.6
				C1938.3,2610.2,1950,2591.3,1943.9,2590.8z"/>
			<path class="st1" d="M2029,2658.6c0,0,13,44.4,20.2,64.3c7.3,19.9,17.3,29.1,17.3,29.1s-24.5-29.1-33.1-53.5
				C2024.6,2673.8,2021.8,2655.5,2029,2658.6z"/>
			<path class="st1" d="M1968.4,2672.3c0,0-46.1,42.9-53.4,55.1c-7.2,12.2-7.2,12.2-7.2,12.2s30.3-30.6,41.8-39.7
				C1961.2,2690.7,1975.6,2675.4,1968.4,2672.3z"/>
		</g>
		<path class="st2" d="M2058.2,2341.7c2.3,2.6,15.7,45.7,19.6,67.9c3.9,22.1,5.9,29.5,5.9,29.5s-9.7-34-16.6-48.7
			C2060.2,2375.6,2054.3,2337.2,2058.2,2341.7z"/>
		<path class="st2" d="M2008.3,2359.1c0,0-67.2,10.4-93.4,33c-26.2,22.6-26.2,22.6-26.2,22.6s39.3-29.6,59-31.3
			C1967.3,2381.7,2021.4,2362.6,2008.3,2359.1z"/>
		<path class="st2" d="M1926.4,2287.8l-80.3,43.5c0,0,63.9-27.9,70.4-27.9C1923.1,2303.4,1936.2,2287.8,1926.4,2287.8z"/>
		<path class="st2" d="M1918.2,2473.9l-72.1,59.1c0,0,42.6-33.1,50.8-34.8C1905.1,2496.5,1928,2477.3,1918.2,2473.9z"/>
		<path class="st2" d="M1905.1,2599c0,0-52.4,48.7-60.6,62.6c-8.2,13.9-8.2,13.9-8.2,13.9s34.4-34.8,47.5-45.2
			C1896.9,2619.9,1913.2,2602.5,1905.1,2599z"/>
		<path class="st2" d="M2026.3,2459.9c0,0-45.9,38.2-62.3,55.6c-16.4,17.4-16.4,17.4-16.4,17.4s32.8-29.6,49.1-34.8
			C2013.2,2493,2036.1,2459.9,2026.3,2459.9z"/>
		<path class="st2" d="M2018.1,2579.9c0,0-37.6,45.2-45.8,50.5c-8.2,5.2-22.9,13.9-22.9,13.9s36-22.6,49.1-27.8
			C2011.6,2611.1,2029.6,2583.4,2018.1,2579.9z"/>
	</g>
	<g>
		<path class="st1" d="M1277.1,366.7c0,0-32.3,68.4-32.3,83.9c0,15.5-3,25.7-3,25.7s14.7-42.8,25-64.5
			C1277.1,390,1286.6,358.1,1277.1,366.7z"/>
		<path class="st1" d="M1367.9,407.2c0,0,20.5,34.2,32.9,66.2c12.4,31.9,18.3,35,18.3,35s-22-58.3-27.1-66.9
			C1386.9,432.9,1375.9,401.8,1367.9,407.2z"/>
		<path class="st1" d="M1454.4,328.8c0,0,22.6,72.3,21.9,89.4c-0.8,17.1-1.5,30.3-1.5,30.3s-2.9-59.8-19-84
			C1439.8,340.4,1448.6,317.9,1454.4,328.8z"/>
		<g>
			<path class="st1" d="M1422.9,256c0,0-8.7,69.4-9.7,91.9c-1,22.4,2.9,34.7,2.9,34.7s8.7-84.7,13.6-100
				C1434.4,267.2,1432.5,240.7,1422.9,256z"/>
			<path class="st1" d="M1329.5,311c0,0-24,35.7-35.7,44.9c-11.5,9.2-11.5,9.2-11.5,9.2s46.2-36.7,56.8-48.9
				C1349.7,303.8,1329.5,311,1329.5,311z"/>
			<path class="st1" d="M1497.8,331.6c0,0-12.6,31.6-3.9,64.3c8.6,32.7,8.6,32.7,8.6,32.7s-6.7-55,1-73.5
				C1510.8,337.9,1497.8,331.6,1497.8,331.6z"/>
			<path class="st1" d="M1581.7,331.7c0,0,2.7,24.4,14.5,41.6c11.8,17.1,13.2,20.3,13.2,20.3s-17-30.2-15.9-43.5
				C1594.7,336.7,1583.3,325.8,1581.7,331.7z"/>
			<path class="st1" d="M1654.3,410c0,0,43.2,7.6,63.2,9.7c20,2,32.2-3.4,32.2-3.4s-35.5,10.3-59.9,7.5
				C1665.2,420.9,1648.5,415.4,1654.3,410z"/>
		</g>
		<path class="st2" d="M1400.4,240.1c3.3-1,45.6,5.7,66,11.9c20.4,6.2,27.5,7.7,27.5,7.7s-33-6-48.5-6.1
			C1429.9,253.5,1394.9,241.9,1400.4,240.1z"/>
		<path class="st2" d="M1392.8,295.4c0,0-21.3,68.4-14.1,103.4c7.3,35,7.3,35,7.3,35s-7.3-50.5,0-70
			C1393.4,344.3,1401.5,284.5,1392.8,295.4z"/>
		<path class="st2" d="M1296,341.1l0.6,95.7c0,0,5.2-73.1,8.1-79.3C1307.7,351.2,1300.4,331.7,1296,341.1z"/>
		<path class="st2" d="M1449,432.2l17.5,94.9c0,0-8.7-55.2-6.5-63.8C1462.2,454.8,1456.3,424.5,1449,432.2z"/>
		<path class="st2" d="M1485.7,323.4c0,0,11.7,60.6,19,84c7.3,23.3,7.3,23.3,7.3,23.3s-10.2-44.3-7.2-62.2
			C1507.7,350.7,1490.1,314.1,1485.7,323.4z"/>
		<path class="st2" d="M1583.1,385c0,0,21.2,56,21.9,66.1c0.7,10.1,1.4,28,1.4,28s-2.9-44.3-1.5-59.1
			C1606.5,405.2,1591.2,375.6,1583.1,385z"/>
	</g>
	<g>
		<path class="st1" d="M1357,1980.8c0,0-55.3,45.4-62.4,56.8c-7.2,11.3-7.2,11.3-7.2,11.3s21.4-35.9,37.4-54.8
			C1340.9,1975.2,1362.3,1963.8,1357,1980.8z"/>
		<g>
			<path class="st1" d="M1335.5,1657.7c2.2,2.9,14.9,49.8,18.7,74c3.7,24,5.6,32.1,5.6,32.1s-9.4-37-15.9-53.1
				C1337.4,1694.6,1331.8,1652.8,1335.5,1657.7z"/>
			<path class="st1" d="M1287.8,1676.7c0,0-64.1,11.4-89.1,35.9c-25.1,24.6-25.1,24.6-25.1,24.6s37.5-32.2,56.3-34.1
				C1248.7,1701.3,1300.3,1680.4,1287.8,1676.7z"/>
			<path class="st1" d="M1209.6,1599.1l-76.7,47.3c0,0,61-30.3,67.3-30.3C1206.4,1616.1,1219,1599.1,1209.6,1599.1z"/>
			<path class="st1" d="M1201.7,1801.6l-68.8,64.3c0,0,40.7-36,48.5-37.9C1189.2,1826.2,1211.1,1805.3,1201.7,1801.6z"/>
			<path class="st1" d="M1189.2,1937.9c0,0-50.1,53.1-57.9,68.2c-7.8,15.1-7.8,15.1-7.8,15.1s32.8-37.9,45.4-49.2
				C1181.4,1960.6,1197.1,1941.7,1189.2,1937.9z"/>
			<path class="st1" d="M1305,1786.5c0,0-43.8,41.7-59.5,60.6c-15.7,18.9-15.7,18.9-15.7,18.9s31.3-32.2,46.9-37.9
				C1292.5,1822.4,1314.4,1786.5,1305,1786.5z"/>
			<path class="st1" d="M1297.2,1917.1c0,0-36,49.2-43.8,54.9c-7.8,5.7-21.9,15.2-21.9,15.2s34.5-24.6,47-30.3
				C1290.9,1951.1,1308.1,1920.9,1297.2,1917.1z"/>
			<path class="st1" d="M1290.9,2112l42.2,81.4c0,0-18.8-49.1-21.9-66.2C1308.1,2110.2,1292.5,2079.9,1290.9,2112z"/>
			<path class="st1" d="M1270.6,2238.9c0,0-15.6,83.4-34.4,90.9c-18.8,7.6,12.5-13.2,15.6-39.7
				C1255,2263.5,1262.8,2229.5,1270.6,2238.9z"/>
			<path class="st1" d="M1311.3,2276.8c0,0-9.3,54.9-17.2,66.3c-7.8,11.3-12.5,11.3-12.5,11.3s17.2-30.3,17.2-54.9
				C1298.7,2274.9,1306.6,2267.3,1311.3,2276.8z"/>
			<path class="st1" d="M1195.5,2121.5c0,0-11,51.1-26.6,64.4c-15.7,13.2-29.7,15.1-29.7,15.1s34.4-7.6,45.4-20.8
				C1195.5,2167,1208,2132.9,1195.5,2121.5z"/>
		</g>
		<path class="st2" d="M1297.3,1509.7c0,0-39.9,2.8-69.2,31.1c-29.3,28.3-29.3,28.3-29.3,28.3s53.6-38.4,77.1-39.5
			C1298,1528.5,1297.3,1509.7,1297.3,1509.7z"/>
		<path class="st2" d="M1343.8,1608.2c0,0-23.9,16.7-35.3,40c-11.3,23.4-13.9,26.8-13.9,26.8s22-36.7,36.5-42.7
			C1345.7,1626.2,1350.7,1606.8,1343.8,1608.2z"/>
		<path class="st2" d="M1197.1,1653c0,0-34.6,30.8-48.5,54.1c-13.8,23.3-13.8,23.3-13.8,23.3s21.3-32.1,38.4-42.8
			C1190.2,1677,1204.6,1653.6,1197.1,1653z"/>
		<path class="st2" d="M1225.7,1994.2c0,0-30.3,41.7-57.1,45.4c-26.7,3.8-37.5,7.6-37.5,7.6s66-9.5,85.7-22.8
			C1236.4,2011.2,1231.1,1996.1,1225.7,1994.2z"/>
		<path class="st2" d="M1352.4,1973.4c0,0-2.4,18.8-8,38.2c-4,13.7-9.6,27.7-17,35.6c-17.8,19-28.5,19-28.5,19s39.3-28.5,39.3-62.5
			C1338.1,1969.6,1350.7,1962.1,1352.4,1973.4z"/>
		<path class="st2" d="M1345.4,2128.2c0,0-61.2,52.2-67.8,67.6c-6.7,15.4-13.9,24-13.9,24s32.8-35.3,52.2-51.8
			C1335.4,2151.3,1358.4,2124.3,1345.4,2128.2z"/>
		<path class="st2" d="M1220.4,2117.3c0,0-23.2,24.6-37.5,45.5c-14.3,20.8-21.4,32.2-21.4,32.2s41-37.9,49.9-47.4
			C1220.4,2138.1,1225.7,2122.9,1220.4,2117.3z"/>
		<path class="st2" d="M1302.5,1736.8c0,0,16,54.9,25,79.5c8.9,24.6,21.4,36,21.4,36s-30.3-36-41-66.3
			C1297.1,1755.7,1293.5,1733,1302.5,1736.8z"/>
		<path class="st2" d="M1227.5,1753.8c0,0-57.1,53-66,68.2c-8.9,15.1-8.9,15.1-8.9,15.1s37.4-37.9,51.7-49.2
			C1218.6,1776.5,1236.4,1757.6,1227.5,1753.8z"/>
		<path class="st2" d="M1256,1857.9c0,0-50,41.6-67.8,60.6c-17.8,18.9-17.8,18.9-17.8,18.9s35.7-32.2,53.5-37.9
			C1241.8,1893.9,1266.8,1857.9,1256,1857.9z"/>
		<path class="st2" d="M1282.8,2280.1c0,0,28.6,39.7,42.8,51.1c14.3,11.4,17.8,20.8,17.8,20.8s-42.8-37.8-42.8-60.6
			C1300.7,2268.7,1281.1,2272.5,1282.8,2280.1z"/>
		<path class="st2" d="M1245.4,2283.9c0,0-3.5,8.9-8.2,19.2c-5.9,13.2-13.6,28.8-18.6,31.9c-8.9,5.7-19.7,5.7-19.7,5.7
			s28.5-28.4,32.2-47.4C1234.7,2274.4,1245.4,2270.6,1245.4,2283.9z"/>
		<path class="st2" d="M1175.8,2240.3c0,0-17.8,28.4-23.2,39.8c-5.4,11.3-10.7,20.8-10.7,20.8S1188.3,2249.8,1175.8,2240.3z"/>
	</g>
	<g>
		<path class="st1" d="M1347.5,2326.5c0,0-55.3,45.5-62.4,56.8c-7.2,11.3-7.2,11.3-7.2,11.3s21.4-35.9,37.5-54.9
			C1331.4,2320.9,1352.8,2309.5,1347.5,2326.5z"/>
		<g>
			<path class="st1" d="M1326,2003.4c2.3,2.9,14.9,49.8,18.7,74c3.8,24.1,5.6,32.1,5.6,32.1s-9.3-37-15.9-53.1
				C1327.9,2040.3,1322.3,1998.5,1326,2003.4z"/>
			<path class="st1" d="M1278.3,2022.4c0,0-64.1,11.4-89.2,35.9c-25,24.7-25,24.7-25,24.7s37.5-32.2,56.3-34.1
				C1239.2,2047,1290.8,2026.1,1278.3,2022.4z"/>
			<path class="st1" d="M1200.1,1944.7l-76.7,47.3c0,0,61-30.3,67.3-30.3C1197,1961.8,1209.5,1944.7,1200.1,1944.7z"/>
			<path class="st1" d="M1192.3,2147.3l-68.8,64.3c0,0,40.7-35.9,48.5-37.9C1179.8,2171.9,1201.6,2151.1,1192.3,2147.3z"/>
			<path class="st1" d="M1179.8,2283.6c0,0-50.1,53.1-57.9,68.2c-7.8,15.1-7.8,15.1-7.8,15.1s32.8-37.9,45.4-49.2
				C1172,2306.3,1187.6,2287.4,1179.8,2283.6z"/>
			<path class="st1" d="M1295.6,2132.2c0,0-43.8,41.7-59.5,60.6c-15.6,18.9-15.6,18.9-15.6,18.9s31.3-32.2,46.9-37.9
				C1283,2168.1,1305,2132.2,1295.6,2132.2z"/>
			<path class="st1" d="M1287.8,2262.8c0,0-36,49.2-43.8,54.9c-7.8,5.7-21.9,15.1-21.9,15.1s34.5-24.6,47-30.3
				C1281.5,2296.8,1298.7,2266.6,1287.8,2262.8z"/>
			<path class="st1" d="M1281.5,2457.8l42.2,81.4c0,0-18.8-49.2-22-66.2C1298.7,2455.9,1283,2425.6,1281.5,2457.8z"/>
			<path class="st1" d="M1261.1,2584.6c0,0-15.6,83.4-34.4,90.9c-18.8,7.6,12.5-13.2,15.6-39.7
				C1245.5,2609.2,1253.3,2575.2,1261.1,2584.6z"/>
			<path class="st1" d="M1301.8,2622.5c0,0-9.3,54.9-17.2,66.3c-7.8,11.3-12.5,11.3-12.5,11.3s17.2-30.3,17.2-54.9
				C1289.3,2620.5,1297.1,2613,1301.8,2622.5z"/>
			<path class="st1" d="M1186,2467.2c0,0-11,51.1-26.6,64.4c-15.7,13.2-29.7,15.1-29.7,15.1s34.4-7.6,45.4-20.8
				C1186,2512.7,1198.6,2478.6,1186,2467.2z"/>
		</g>
		<path class="st2" d="M1287.9,1855.4c0,0-39.9,2.8-69.2,31.1c-29.3,28.2-29.3,28.2-29.3,28.2s53.6-38.4,77.2-39.5
			C1288.5,1874.2,1287.9,1855.4,1287.9,1855.4z"/>
		<path class="st2" d="M1334.4,1953.9c0,0-23.9,16.7-35.3,40.1c-11.3,23.4-13.9,26.7-13.9,26.7s22-36.7,36.5-42.7
			C1336.2,1971.9,1341.2,1952.6,1334.4,1953.9z"/>
		<path class="st2" d="M1187.6,1998.7c0,0-34.6,30.8-48.4,54.1c-13.8,23.4-13.8,23.4-13.8,23.4s21.4-32.1,38.4-42.8
			C1180.7,2022.7,1195.2,1999.3,1187.6,1998.7z"/>
		<path class="st2" d="M1216.3,2339.9c0,0-30.3,41.7-57.1,45.4c-26.8,3.8-37.5,7.6-37.5,7.6s66-9.5,85.7-22.8
			C1227,2357,1221.6,2341.8,1216.3,2339.9z"/>
		<path class="st2" d="M1342.9,2319.1c0,0-2.4,18.8-8.1,38.2c-4,13.7-9.6,27.7-16.9,35.6c-17.8,19-28.6,19-28.6,19
			s39.3-28.5,39.3-62.5C1328.7,2315.3,1341.2,2307.8,1342.9,2319.1z"/>
		<path class="st2" d="M1335.9,2473.9c0,0-61.2,52.2-67.8,67.5c-6.7,15.4-13.9,24-13.9,24s32.8-35.3,52.2-51.9
			C1325.9,2497,1349,2470,1335.9,2473.9z"/>
		<path class="st2" d="M1210.9,2463c0,0-23.2,24.6-37.5,45.5c-14.3,20.8-21.4,32.2-21.4,32.2s41-37.9,50-47.4
			C1210.9,2483.8,1216.2,2468.7,1210.9,2463z"/>
		<path class="st2" d="M1293,2082.5c0,0,16,54.9,25,79.5c8.9,24.6,21.4,36,21.4,36s-30.4-36-41-66.3
			C1287.6,2101.4,1284,2078.7,1293,2082.5z"/>
		<path class="st2" d="M1218,2099.5c0,0-57.1,53-66,68.1c-8.9,15.1-8.9,15.1-8.9,15.1s37.4-37.8,51.7-49.2
			C1209.1,2122.2,1227,2103.3,1218,2099.5z"/>
		<path class="st2" d="M1246.6,2203.6c0,0-50,41.6-67.8,60.6c-17.8,18.9-17.8,18.9-17.8,18.9s35.7-32.2,53.5-37.8
			C1232.3,2239.5,1257.3,2203.6,1246.6,2203.6z"/>
		<path class="st2" d="M1273.4,2625.8c0,0,28.6,39.7,42.8,51.1c14.3,11.4,17.8,20.8,17.8,20.8s-42.8-37.8-42.8-60.6
			C1291.2,2614.4,1271.6,2618.2,1273.4,2625.8z"/>
		<path class="st2" d="M1235.9,2629.6c0,0-3.5,8.9-8.2,19.2c-5.9,13.2-13.6,28.8-18.6,31.9c-8.9,5.8-19.6,5.8-19.6,5.8
			s28.6-28.5,32.2-47.4C1225.2,2620.1,1235.9,2616.3,1235.9,2629.6z"/>
		<path class="st2" d="M1166.3,2586c0,0-17.8,28.3-23.2,39.7c-5.4,11.3-10.7,20.8-10.7,20.8S1178.8,2595.5,1166.3,2586z"/>
	</g>
	<g>
		<path class="st1" d="M1806.7,738.5c0,0,57.2,30,66.2,38.4c9.1,8.4,9.1,8.4,9.1,8.4s-27.7-26.7-46-40.1
			C1817.5,731.7,1797.3,725.2,1806.7,738.5z"/>
		<g>
			<path class="st1" d="M1724.9,468.8c-0.9,2.7,3.5,43.1,7.9,63.6c4.4,20.4,5.4,27.3,5.4,27.3s-4-31.8-3.7-46
				C1734.7,499.5,1726.3,464.3,1724.9,468.8z"/>
			<path class="st1" d="M1768,477.9c0,0,53.7,0.6,80.8,17.5c27.2,16.9,27.2,16.9,27.2,16.9s-39.2-21.5-54.5-20.5
				C1806.2,492.9,1759.4,482.8,1768,477.9z"/>
			<path class="st1" d="M1805.6,403.2l74.5,28.6c0,0-57-16.7-61.9-15.8C1813.3,416.9,1798.3,404.5,1805.6,403.2z"/>
			<path class="st1" d="M1873.5,569.4l73.5,43.7c0,0-42.8-24.1-49.6-24.6C1890.8,588,1867.4,573.7,1873.5,569.4z"/>
			<path class="st1" d="M1924.9,680.1c0,0,55.4,37,66.1,48.4c10.7,11.5,10.7,11.5,10.7,11.5s-37.3-26.8-50.5-34.4
				C1937.9,697.9,1919.9,684.4,1924.9,680.1z"/>
			<path class="st1" d="M1788,570.9c0,0,47,28.4,65,41.9c18,13.5,18,13.5,18,13.5s-34.3-22.3-48.3-24.9
				C1808.8,598.9,1780.7,572.2,1788,570.9z"/>
			<path class="st1" d="M1834,677.7c0,0,43.2,35.8,51.1,39.4c7.9,3.6,21.8,9.5,21.8,9.5s-34.5-15.6-46-18.6
				C1849.3,705,1826.6,682.4,1834,677.7z"/>
			<path class="st1" d="M1898.3,837.9l-8.2,73c0,0-0.3-43.2-3-57.7C1884.3,838.6,1887.3,811.5,1898.3,837.9z"/>
			<path class="st1" d="M1953,939.8c0,0,37.7,66.7,54.7,70.3c17,3.7-13.8-9.2-24.4-30.7C1972.7,958,1956.2,931,1953,939.8z"/>
			<path class="st1" d="M1932.7,976.7c0,0,24.1,44,33.7,52.4c9.6,8.3,13.3,7.6,13.3,7.6s-22.7-22.6-30.2-43
				C1941.9,973.4,1933.5,968.2,1932.7,976.7z"/>
			<path class="st1" d="M1976,832.7c0,0,24.2,40.7,40.5,49.5c16.3,8.8,27.9,8.4,27.9,8.4s-29.3-1.5-41.9-11
				C1989.9,870.2,1969.6,843.7,1976,832.7z"/>
		</g>
		<path class="st2" d="M1709.7,341.4c0,0,32.1-3.1,63.6,16.2c31.6,19.3,31.6,19.3,31.6,19.3s-53.7-24.4-72.5-22.1
			C1714.9,357,1709.7,341.4,1709.7,341.4z"/>
		<path class="st2" d="M1703.3,429c0,0,23.8,10.5,39.8,28.3c16,17.8,19,20.2,19,20.2s-28.5-27.3-41.6-30.3
			C1707.3,444.2,1697.5,428.9,1703.3,429z"/>
		<path class="st2" d="M1831.9,446c0,0,36.5,20.6,54.4,38.1c18,17.4,18,17.4,18,17.4s-26.5-23.6-43.1-30.1
			C1844.6,464.9,1826.1,447.5,1831.9,446z"/>
		<path class="st2" d="M1913.5,731.7c0,0,36.5,30.3,58.5,29.7c22.1-0.5,31.7,1.2,31.7,1.2s-54.6,1.2-74-7.1
			C1910.3,747.2,1909.9,734,1913.5,731.7z"/>
		<path class="st2" d="M1808,731.8c0,0,7.6,15.2,17.9,30.4c7.3,10.8,16,21.6,24.1,27c19.7,13.3,28.1,11.8,28.1,11.8
			s-39.4-18.2-49.8-46.3C1817.9,726.7,1805.9,722.2,1808,731.8z"/>
		<path class="st2" d="M1860.7,858.6c0,0,63.8,34.7,73.7,46.5c9.9,11.8,18.2,17.9,18.2,17.9s-36.4-24.7-56.7-35.7
			C1875.5,876.3,1849.3,857.2,1860.7,858.6z"/>
		<path class="st2" d="M1955.2,832.5c0,0,25.7,17.1,43.2,32.4c17.5,15.3,26.6,23.6,26.6,23.6s-43.7-25.7-53.6-32.3
			C1961.6,849.7,1952.8,838,1955.2,832.5z"/>
		<path class="st2" d="M1774.9,529.6c0,0,4.1,47.5,4.7,69c0.5,21.6-5.8,32.6-5.8,32.6s12.8-33.8,11.9-60.3
			C1784.9,544.5,1780.8,525.2,1774.9,529.6z"/>
		<path class="st2" d="M1838.8,533.4c0,0,60.8,36,72.4,47.3c11.6,11.3,11.6,11.3,11.6,11.3s-40.9-26.2-55.5-33.6
			C1852.7,550.9,1833,537.8,1838.8,533.4z"/>
		<path class="st2" d="M1848.2,623.3c0,0,51.9,27.5,71.6,40.7c19.7,13.2,19.7,13.2,19.7,13.2s-37.7-21.7-53.5-23.9
			C1870.3,651,1839.8,624.7,1848.2,623.3z"/>
		<path class="st2" d="M1955.9,975.5c0,0-10.2,36.7-17.9,48.1c-7.7,11.3-7.6,19.6-7.6,19.6s22-37.1,15.1-55.9
			C1938.5,968.5,1955,969,1955.9,975.5z"/>
		<path class="st2" d="M1986.4,973.5c0,0,5.5,6.8,12.2,14.7c8.6,10.1,19.4,21.9,24.3,23.8c8.7,3.5,17.1,2,17.1,2s-31-19.6-39.6-34.7
			C1991.9,964.2,1982.4,962.5,1986.4,973.5z"/>
		<path class="st2" d="M2027.7,928.1c0,0,22.6,21,30.3,29.7c7.6,8.6,14.7,15.7,14.7,15.7S2020.7,937.6,2027.7,928.1z"/>
	</g>
	<g>
		<g>
			<path class="st1" d="M1333.4,2630.9c-0.9,2.7,3.5,43.1,7.9,63.6c4.4,20.4,5.4,27.3,5.4,27.3s-4-31.8-3.7-46
				C1343.2,2661.7,1334.9,2626.4,1333.4,2630.9z"/>
			<path class="st1" d="M1376.6,2640.1c0,0,53.7,0.7,80.8,17.5c27.2,16.9,27.2,16.9,27.2,16.9s-39.2-21.4-54.5-20.5
				C1414.7,2655.1,1367.9,2644.9,1376.6,2640.1z"/>
			<path class="st1" d="M1414.2,2565.3l74.5,28.6c0,0-57-16.7-61.9-15.8C1421.9,2579,1406.8,2566.6,1414.2,2565.3z"/>
		</g>
		<path class="st2" d="M1318.2,2503.5c0,0,32.1-3.1,63.7,16.2c31.5,19.3,31.5,19.3,31.5,19.3s-53.7-24.4-72.5-22.1
			C1323.4,2519.1,1318.2,2503.5,1318.2,2503.5z"/>
		<path class="st2" d="M1311.8,2591.2c0,0,23.8,10.5,39.8,28.3c16,17.8,19,20.2,19,20.2s-28.5-27.3-41.6-30.3
			C1315.9,2606.3,1306.1,2591,1311.8,2591.2z"/>
		<path class="st2" d="M1440.4,2608.1c0,0,36.5,20.7,54.4,38.1c18,17.4,18,17.4,18,17.4s-26.5-23.6-43.1-30.1
			C1453.1,2627,1434.7,2609.7,1440.4,2608.1z"/>
	</g>
	<g>
		<path class="st1" d="M1830,2303c0,0-55.3,45.4-62.4,56.8c-7.1,11.3-7.1,11.3-7.1,11.3s21.4-35.9,37.5-54.8
			C1814,2297.4,1835.4,2286,1830,2303z"/>
		<g>
			<path class="st1" d="M1808.6,1979.8c2.2,2.9,14.9,49.8,18.7,74c3.7,24,5.6,32.1,5.6,32.1s-9.3-37-15.9-53
				C1810.5,2016.8,1804.9,1975,1808.6,1979.8z"/>
			<path class="st1" d="M1760.9,1998.8c0,0-64.1,11.4-89.1,36c-25.1,24.7-25.1,24.7-25.1,24.7s37.5-32.2,56.3-34.1
				C1721.8,2023.5,1773.4,2002.6,1760.9,1998.8z"/>
			<path class="st1" d="M1682.7,1921.2l-76.7,47.3c0,0,61-30.3,67.3-30.3S1692.1,1921.2,1682.7,1921.2z"/>
			<path class="st1" d="M1674.9,2123.8l-68.9,64.3c0,0,40.7-35.9,48.5-37.9C1662.3,2148.4,1684.2,2127.6,1674.9,2123.8z"/>
			<path class="st1" d="M1662.3,2260c0,0-50.1,53.1-57.9,68.2c-7.8,15.1-7.8,15.1-7.8,15.1s32.8-37.9,45.3-49.2
				C1654.5,2282.8,1670.1,2263.9,1662.3,2260z"/>
			<path class="st1" d="M1778.1,2108.6c0,0-43.8,41.7-59.5,60.6c-15.6,18.9-15.6,18.9-15.6,18.9s31.3-32.2,46.9-37.9
				C1765.6,2144.6,1787.5,2108.6,1778.1,2108.6z"/>
			<path class="st1" d="M1770.3,2239.3c0,0-36,49.2-43.8,54.9c-7.9,5.7-21.9,15.2-21.9,15.2s34.4-24.6,47-30.3
				C1764,2273.3,1781.3,2243.1,1770.3,2239.3z"/>
			<path class="st1" d="M1764,2434.2l42.2,81.4c0,0-18.8-49.1-21.9-66.2C1781.3,2432.3,1765.6,2402.1,1764,2434.2z"/>
			<path class="st1" d="M1743.7,2561.1c0,0-15.6,83.3-34.4,90.9c-18.8,7.6,12.5-13.2,15.6-39.7
				C1728.1,2585.7,1735.8,2551.6,1743.7,2561.1z"/>
			<path class="st1" d="M1784.3,2599c0,0-9.3,54.9-17.2,66.3c-7.8,11.3-12.5,11.3-12.5,11.3s17.2-30.3,17.2-54.9
				C1771.8,2597,1779.7,2589.5,1784.3,2599z"/>
			<path class="st1" d="M1668.6,2443.7c0,0-11,51.1-26.6,64.4c-15.7,13.2-29.7,15.1-29.7,15.1s34.4-7.6,45.4-20.8
				C1668.6,2489.1,1681.1,2455.1,1668.6,2443.7z"/>
		</g>
		<path class="st2" d="M1770.4,1831.9c0,0-39.9,2.8-69.2,31.1c-29.3,28.3-29.3,28.3-29.3,28.3s53.6-38.4,77.1-39.5
			C1771,1850.6,1770.4,1831.9,1770.4,1831.9z"/>
		<path class="st2" d="M1816.9,1930.4c0,0-23.9,16.7-35.3,40.1c-11.3,23.4-13.8,26.8-13.8,26.8s22-36.8,36.5-42.8
			C1818.8,1948.4,1823.8,1929,1816.9,1930.4z"/>
		<path class="st2" d="M1670.2,1975.1c0,0-34.6,30.7-48.5,54.1c-13.8,23.4-13.8,23.4-13.8,23.4s21.4-32.2,38.4-42.8
			C1663.3,1999.2,1677.7,1975.8,1670.2,1975.1z"/>
		<path class="st2" d="M1698.8,2316.4c0,0-30.3,41.7-57.1,45.4c-26.7,3.8-37.4,7.6-37.4,7.6s66-9.5,85.6-22.8
			C1709.5,2333.4,1704.2,2318.3,1698.8,2316.4z"/>
		<path class="st2" d="M1825.5,2295.6c0,0-2.4,18.8-8.1,38.2c-4,13.7-9.6,27.7-16.9,35.5c-17.8,19-28.5,19-28.5,19
			s39.3-28.5,39.3-62.5C1811.2,2291.8,1823.8,2284.3,1825.5,2295.6z"/>
		<path class="st2" d="M1818.5,2450.4c0,0-61.2,52.2-67.8,67.5c-6.7,15.4-13.9,24-13.9,24s32.8-35.3,52.2-51.9
			C1808.5,2473.5,1831.5,2446.5,1818.5,2450.4z"/>
		<path class="st2" d="M1693.4,2439.4c0,0-23.2,24.6-37.4,45.5c-14.3,20.8-21.4,32.2-21.4,32.2s41-37.8,50-47.4
			C1693.4,2460.3,1698.8,2445.1,1693.4,2439.4z"/>
		<path class="st2" d="M1775.5,2058.9c0,0,16.1,54.9,25,79.5c8.9,24.6,21.4,36,21.4,36s-30.4-36-41-66.3
			C1770.2,2077.9,1766.6,2055.2,1775.5,2058.9z"/>
		<path class="st2" d="M1700.6,2076c0,0-57.1,53-66,68.2c-8.9,15.1-8.9,15.1-8.9,15.1s37.5-37.8,51.7-49.2
			C1691.7,2098.7,1709.5,2079.8,1700.6,2076z"/>
		<path class="st2" d="M1729.2,2180.1c0,0-50,41.6-67.8,60.6c-17.8,18.9-17.8,18.9-17.8,18.9s35.7-32.2,53.5-37.9
			C1714.9,2216,1739.9,2180.1,1729.2,2180.1z"/>
		<path class="st2" d="M1755.9,2602.2c0,0,28.6,39.7,42.8,51.1c14.3,11.3,17.8,20.8,17.8,20.8s-42.8-37.8-42.8-60.6
			C1773.7,2590.8,1754.2,2594.7,1755.9,2602.2z"/>
		<path class="st2" d="M1718.4,2606c0,0-3.5,8.9-8.2,19.2c-5.9,13.2-13.6,28.8-18.6,31.9c-8.9,5.7-19.7,5.7-19.7,5.7
			s28.6-28.4,32.2-47.3C1707.8,2596.6,1718.4,2592.7,1718.4,2606z"/>
		<path class="st2" d="M1648.9,2562.5c0,0-17.9,28.3-23.2,39.7c-5.3,11.3-10.7,20.9-10.7,20.9S1661.4,2572,1648.9,2562.5z"/>
	</g>
	<g>
		<path class="st1" d="M2008.4,2006.7c0,0-74.4,61.2-84,76.5c-9.6,15.2-9.6,15.2-9.6,15.2s28.8-48.3,50.4-73.8
			C1986.8,1999.1,2015.6,1983.8,2008.4,2006.7z"/>
		<g>
			<path class="st1" d="M1979.6,1571.7c3.1,3.9,20.1,67,25.2,99.5c5,32.4,7.5,43.3,7.5,43.3s-12.6-49.8-21.4-71.4
				C1982.1,1621.4,1974.6,1565.2,1979.6,1571.7z"/>
			<path class="st1" d="M1915.4,1597.2c0,0-86.3,15.3-120,48.4c-33.8,33.2-33.8,33.2-33.8,33.2s50.6-43.3,75.9-45.9
				C1862.7,1630.4,1932.2,1602.3,1915.4,1597.2z"/>
			<path class="st1" d="M1810.1,1492.8l-103.2,63.7c0,0,82.1-40.7,90.5-40.7C1805.8,1515.7,1822.7,1492.8,1810.1,1492.8z"/>
			<path class="st1" d="M1799.5,1765.4l-92.7,86.6c0,0,54.7-48.4,65.3-51C1782.7,1798.6,1812.1,1770.5,1799.5,1765.4z"/>
			<path class="st1" d="M1782.7,1948.8c0,0-67.4,71.5-77.9,91.8c-10.5,20.4-10.5,20.4-10.5,20.4s44.2-51,61-66.3
				C1772.2,1979.4,1793.2,1954,1782.7,1948.8z"/>
			<path class="st1" d="M1938.6,1745c0,0-59,56.1-80.1,81.5c-21,25.4-21,25.4-21,25.4s42.1-43.3,63.1-51
				C1921.7,1793.4,1951.2,1745,1938.6,1745z"/>
			<path class="st1" d="M1928.1,1920.8c0,0-48.5,66.3-59,73.9c-10.5,7.7-29.5,20.4-29.5,20.4s46.4-33.1,63.2-40.8
				C1919.6,1966.6,1942.8,1925.9,1928.1,1920.8z"/>
			<path class="st1" d="M1919.6,2183.3l56.9,109.6c0,0-25.2-66.2-29.5-89.1C1942.8,2180.8,1921.7,2140,1919.6,2183.3z"/>
			<path class="st1" d="M1892.2,2354.1c0,0-21,112.2-46.3,122.3c-25.3,10.2,16.8-17.8,21-53.5
				C1871.1,2387.2,1881.6,2341.3,1892.2,2354.1z"/>
			<path class="st1" d="M1946.9,2405c0,0-12.5,73.9-23.1,89.2c-10.5,15.2-16.8,15.2-16.8,15.2s23.2-40.7,23.2-73.9
				C1930.1,2402.5,1940.6,2392.3,1946.9,2405z"/>
			<path class="st1" d="M1791.1,2196.1c0,0-14.8,68.8-35.8,86.7c-21.1,17.8-40,20.3-40,20.3s46.3-10.2,61.1-28
				C1791.1,2257.3,1808,2211.3,1791.1,2196.1z"/>
		</g>
		<path class="st2" d="M1928.2,1372.5c0,0-53.8,3.8-93.1,41.9c-39.4,38-39.4,38-39.4,38s72.2-51.7,103.9-53.2
			C1929,1397.7,1928.2,1372.5,1928.2,1372.5z"/>
		<path class="st2" d="M1990.8,1505.1c0,0-32.2,22.5-47.5,54c-15.2,31.5-18.6,36-18.6,36s29.7-49.4,49.1-57.6
			C1993.3,1529.3,2000,1503.3,1990.8,1505.1z"/>
		<path class="st2" d="M1793.2,1565.3c0,0-46.6,41.4-65.2,72.9c-18.6,31.5-18.6,31.5-18.6,31.5s28.8-43.3,51.7-57.6
			C1784,1597.7,1803.3,1566.2,1793.2,1565.3z"/>
		<path class="st2" d="M1831.8,2024.7c0,0-40.8,56.1-76.9,61.1c-36,5.1-50.4,10.3-50.4,10.3s88.8-12.8,115.3-30.7
			C1846.2,2047.6,1839,2027.3,1831.8,2024.7z"/>
		<path class="st2" d="M2002.3,1996.7c0,0-3.2,25.3-10.8,51.4c-5.4,18.5-12.9,37.3-22.8,47.9c-24,25.6-38.4,25.6-38.4,25.6
			s52.8-38.4,52.8-84.2C1983.1,1991.5,2000,1981.4,2002.3,1996.7z"/>
		<path class="st2" d="M1992.8,2205.1c0,0-82.4,70.3-91.2,90.9c-9,20.7-18.7,32.3-18.7,32.3s44.1-47.5,70.3-69.8
			C1979.4,2236.2,2010.4,2199.8,1992.8,2205.1z"/>
		<path class="st2" d="M1824.6,2190.3c0,0-31.2,33.1-50.4,61.2c-19.2,28-28.8,43.3-28.8,43.3s55.2-51,67.2-63.8
			C1824.6,2218.3,1831.7,2198,1824.6,2190.3z"/>
		<path class="st2" d="M1935.1,1678.1c0,0,21.6,73.9,33.6,107c12,33.1,28.8,48.4,28.8,48.4s-40.8-48.4-55.2-89.2
			C1927.9,1703.6,1923,1673,1935.1,1678.1z"/>
		<path class="st2" d="M1834.2,1701.1c0,0-76.8,71.3-88.8,91.7c-12,20.4-12,20.4-12,20.4s50.4-50.9,69.6-66.3
			C1822.2,1731.7,1846.2,1706.2,1834.2,1701.1z"/>
		<path class="st2" d="M1872.6,1841.3c0,0-67.3,56-91.3,81.5c-24,25.4-24,25.4-24,25.4s48-43.3,72.1-50.9
			C1853.4,1889.6,1887,1841.3,1872.6,1841.3z"/>
		<path class="st2" d="M1908.6,2409.5c0,0,38.4,53.5,57.7,68.8c19.2,15.3,24,28,24,28s-57.6-50.9-57.6-81.5
			C1932.7,2394.1,1906.3,2399.3,1908.6,2409.5z"/>
		<path class="st2" d="M1858.2,2414.6c0,0-4.7,11.9-11,25.8c-7.9,17.7-18.3,38.7-25.1,43c-12,7.7-26.4,7.7-26.4,7.7
			s38.4-38.3,43.3-63.8C1843.8,2401.9,1858.2,2396.7,1858.2,2414.6z"/>
		<path class="st2" d="M1764.6,2356c0,0-24,38.1-31.2,53.5c-7.2,15.3-14.4,28-14.4,28S1781.4,2368.7,1764.6,2356z"/>
	</g>
	<g>
		<path class="st1" d="M910.5,1654.4c0,0-65.6,25.7-75.6,34.3c-10.1,8.5-10.1,8.5-10.1,8.5s30.6-27.4,51.2-40.4
			C896.8,1643.9,920.4,1639.8,910.5,1654.4z"/>
		<g>
			<path class="st1" d="M981.4,1339.3c1.3,3.5,0.2,52.2-3.1,76.5c-3.2,24.1-3.8,32.4-3.8,32.4s1.5-38.2-0.1-55.6
				C972.8,1375.1,979.2,1333.5,981.4,1339.3z"/>
			<path class="st1" d="M930.5,1342.2c0,0-64.4-9.6-95.2,5.9c-30.9,15.6-30.9,15.6-30.9,15.6s44.9-18.8,63.4-14.6
				C886.3,1353.2,941.4,1349.8,930.5,1342.2z"/>
			<path class="st1" d="M877.9,1243.2l-86.6,20.7c0,0,66.8-9.4,72.7-7.4C870,1258.5,886.8,1246.2,877.9,1243.2z"/>
			<path class="st1" d="M813.1,1434l-83.9,39.4c0,0,49-21.4,57-20.6C794.2,1453.5,821,1440.5,813.1,1434z"/>
			<path class="st1" d="M762.6,1559.9c0,0-62.8,34.7-74.5,46.6c-11.7,12-11.7,12-11.7,12s42-25.7,57.2-32.5
				C748.8,1579.1,769,1566.1,762.6,1559.9z"/>
			<path class="st1" d="M915.9,1452.4c0,0-53.6,25.8-73.9,38.8c-20.2,13.1-20.2,13.1-20.2,13.1s38.9-20.7,55.4-21.2
				C893.8,1482.7,924.9,1455.4,915.9,1452.4z"/>
			<path class="st1" d="M871.6,1574.5c0,0-48.3,35.5-57.4,38.4c-9.1,2.9-25.2,7.5-25.2,7.5s39.8-12.5,53.4-14
				C855.9,1605,880.9,1581.6,871.6,1574.5z"/>
			<path class="st1" d="M810.4,1758.5l17.3,91.1c0,0-4-52.9-2.2-70.2C827.3,1762.2,821,1728.3,810.4,1758.5z"/>
			<path class="st1" d="M755.1,1873.1c0,0-38.5,74.5-58.5,75.7c-20,1.3,15.7-8.6,26.1-32.9C733.3,1891.5,750.3,1861.5,755.1,1873.1z
				"/>
			<path class="st1" d="M783.2,1922.1c0,0-24.4,49.4-35.1,57.7c-10.6,8.3-15.1,6.8-15.1,6.8s25-23.4,31.9-46.9
				C771.8,1916.3,781.4,1911.6,783.2,1922.1z"/>
			<path class="st1" d="M716.7,1737.2c0,0-24.9,45.3-43.6,52.9c-18.7,7.6-32.6,4.9-32.6,4.9s35,3.7,49.1-5.4
				C703.8,1780.5,725.4,1752,716.7,1737.2z"/>
		</g>
		<path class="st2" d="M986.8,1186c0,0-38.9-10-74.8,7.7c-35.9,17.6-35.9,17.6-35.9,17.6s62-19.6,84.8-13.1
			C982.1,1204.1,986.8,1186,986.8,1186z"/>
		<path class="st2" d="M1003.3,1294.7c0,0-27.5,8.3-45,27c-17.4,18.7-20.8,21.1-20.8,21.1s31.4-28,46.9-29.2
			C1000,1312.5,1010.3,1295.6,1003.3,1294.7z"/>
		<path class="st2" d="M850.7,1290.7c0,0-41.7,18.3-61.5,36.2c-19.8,17.9-19.8,17.9-19.8,17.9s29.5-23.8,48.7-28.6
			C837.4,1311.4,857.7,1293.7,850.7,1290.7z"/>
		<path class="st2" d="M781.5,1625.3c0,0-40.7,30.1-67.3,25.1c-26.6-4.9-37.9-4.7-37.9-4.7s65.6,12,88.2,5.5
			C786.9,1645,786.1,1628.9,781.5,1625.3z"/>
		<path class="st2" d="M908.2,1645.8c0,0-7.6,17.2-18.5,33.9c-7.7,11.8-17,23.4-26.2,28.5c-22.4,12.5-32.6,9-32.6,9
			s45.5-14.7,55.1-47.1C895.7,1637.7,909.8,1634.5,908.2,1645.8z"/>
		<path class="st2" d="M857.8,1791.3c0,0-73.1,30.3-83.8,42.8c-10.7,12.6-20.1,18.5-20.1,18.5s41.3-23.2,64.5-32.8
			C841.7,1810.1,871.3,1791.7,857.8,1791.3z"/>
		<path class="st2" d="M741.6,1741c0,0-29.1,16.1-48.6,31.5c-19.5,15.3-29.5,23.8-29.5,23.8s49.8-23.1,61.1-29.3
			C735.7,1760.9,745.1,1748.1,741.6,1741z"/>
		<path class="st2" d="M927.5,1404.2c0,0-0.2,57.5,1.4,83.8c1.5,26.3,10.2,41.1,10.2,41.1s-18.8-44-20.4-76.3
			C917.1,1420.5,920,1397.7,927.5,1404.2z"/>
		<path class="st2" d="M851.2,1396.6c0,0-69.4,32.4-82.2,44c-12.8,11.6-12.8,11.6-12.8,11.6s46.4-24.2,63.3-30.5
			C836.3,1415.4,858.6,1403,851.2,1396.6z"/>
		<path class="st2" d="M849,1505c0,0-59.4,23.8-81.8,36.2c-22.3,12.4-22.3,12.4-22.3,12.4s43.1-19.3,61.7-19.1
			C825.2,1534.7,859.2,1508.4,849,1505z"/>
		<path class="st2" d="M755.1,1916.2c0,0,16,47,26.4,62.4c10.4,15.4,11.1,25.5,11.1,25.5s-30.1-49.7-23.7-71.4
			C775.4,1911,755.6,1908.4,755.1,1916.2z"/>
		<path class="st2" d="M718.3,1907.9c0,0-5.9,7.3-13.2,15.7c-9.3,10.7-21.1,23.1-26.8,24.5c-10.1,2.6-20.3-0.8-20.3-0.8
			s35.3-18,44.1-34.9C710.8,1895.5,722.1,1895.2,718.3,1907.9z"/>
		<path class="st2" d="M664.3,1844.2c0,0-25,21.3-33.4,30.5c-8.3,9.1-16.1,16.5-16.1,16.5S673.5,1857.2,664.3,1844.2z"/>
	</g>
	<g>
		<path class="st1" d="M1784.6,1546.7c0,0-55.3,45.5-62.4,56.8c-7.2,11.3-7.2,11.3-7.2,11.3s21.4-35.9,37.5-54.9
			C1768.5,1541.1,1790,1529.7,1784.6,1546.7z"/>
		<g>
			<path class="st1" d="M1763.1,1223.6c2.3,2.9,14.9,49.8,18.7,73.9c3.8,24.1,5.6,32.2,5.6,32.2s-9.4-37-15.9-53.1
				C1765,1260.5,1759.4,1218.8,1763.1,1223.6z"/>
			<path class="st1" d="M1715.4,1242.6c0,0-64.1,11.4-89.1,35.9c-25.1,24.7-25.1,24.7-25.1,24.7s37.5-32.2,56.3-34.1
				C1676.3,1267.2,1727.9,1246.3,1715.4,1242.6z"/>
			<path class="st1" d="M1637.2,1165l-76.7,47.3c0,0,61-30.3,67.3-30.3C1634.1,1182,1646.6,1165,1637.2,1165z"/>
			<path class="st1" d="M1629.4,1367.5l-68.9,64.3c0,0,40.7-36,48.5-37.9C1616.9,1392.1,1638.8,1371.3,1629.4,1367.5z"/>
			<path class="st1" d="M1616.9,1503.8c0,0-50.1,53.1-57.9,68.2c-7.8,15.1-7.8,15.1-7.8,15.1s32.8-37.9,45.3-49.2
				C1609.1,1526.6,1624.7,1507.6,1616.9,1503.8z"/>
			<path class="st1" d="M1732.7,1352.4c0,0-43.8,41.7-59.5,60.6c-15.6,18.9-15.6,18.9-15.6,18.9s31.3-32.2,46.9-37.9
				C1720.1,1388.3,1742.1,1352.4,1732.7,1352.4z"/>
			<path class="st1" d="M1724.9,1483c0,0-36,49.2-43.8,54.9c-7.8,5.7-21.9,15.2-21.9,15.2s34.5-24.6,47-30.3
				C1718.6,1517,1735.8,1486.8,1724.9,1483z"/>
			<path class="st1" d="M1718.6,1678l42.2,81.4c0,0-18.7-49.2-22-66.2C1735.8,1676.1,1720.1,1645.8,1718.6,1678z"/>
			<path class="st1" d="M1698.2,1804.8c0,0-15.6,83.3-34.4,90.9c-18.7,7.6,12.5-13.3,15.6-39.8
				C1682.6,1829.4,1690.4,1795.4,1698.2,1804.8z"/>
			<path class="st1" d="M1738.9,1842.7c0,0-9.3,54.9-17.2,66.3c-7.8,11.3-12.5,11.3-12.5,11.3s17.2-30.2,17.2-54.8
				C1726.4,1840.7,1734.2,1833.2,1738.9,1842.7z"/>
			<path class="st1" d="M1623.1,1687.5c0,0-11,51.1-26.6,64.4c-15.6,13.2-29.7,15.1-29.7,15.1s34.4-7.6,45.4-20.8
				C1623.1,1732.9,1635.7,1698.8,1623.1,1687.5z"/>
		</g>
		<path class="st2" d="M1725,1075.6c0,0-39.9,2.9-69.2,31.1c-29.3,28.2-29.3,28.2-29.3,28.2s53.6-38.4,77.2-39.5
			C1725.6,1094.4,1725,1075.6,1725,1075.6z"/>
		<path class="st2" d="M1771.5,1174.1c0,0-23.9,16.7-35.3,40.1c-11.3,23.4-13.8,26.8-13.8,26.8s22-36.8,36.5-42.8
			C1773.3,1192.2,1778.3,1172.8,1771.5,1174.1z"/>
		<path class="st2" d="M1624.7,1218.9c0,0-34.6,30.7-48.5,54.1c-13.8,23.3-13.8,23.3-13.8,23.3s21.4-32.1,38.4-42.8
			C1617.8,1242.9,1632.2,1219.5,1624.7,1218.9z"/>
		<path class="st2" d="M1653.4,1560.1c0,0-30.3,41.7-57.1,45.4c-26.7,3.8-37.4,7.6-37.4,7.6s66-9.5,85.6-22.8
			C1664.1,1577.2,1658.7,1562.1,1653.4,1560.1z"/>
		<path class="st2" d="M1780,1539.3c0,0-2.4,18.8-8.1,38.2c-4,13.7-9.5,27.7-16.9,35.5c-17.8,19-28.5,19-28.5,19
			s39.2-28.5,39.2-62.5C1765.8,1535.5,1778.3,1528,1780,1539.3z"/>
		<path class="st2" d="M1773,1694.1c0,0-61.2,52.2-67.8,67.5c-6.7,15.4-13.9,24-13.9,24s32.8-35.3,52.2-51.9
			C1763.1,1717.2,1786.1,1690.2,1773,1694.1z"/>
		<path class="st2" d="M1648,1683.1c0,0-23.2,24.6-37.5,45.5c-14.3,20.8-21.4,32.2-21.4,32.2s41-37.8,50-47.4
			C1648,1704,1653.3,1688.9,1648,1683.1z"/>
		<path class="st2" d="M1730.1,1302.7c0,0,16,54.9,25,79.5c8.9,24.6,21.4,36,21.4,36s-30.4-36-41-66.3
			C1724.7,1321.6,1721.2,1298.9,1730.1,1302.7z"/>
		<path class="st2" d="M1655.1,1319.7c0,0-57.1,53-66,68.1c-8.9,15.2-8.9,15.2-8.9,15.2s37.5-37.9,51.8-49.2
			C1646.2,1342.4,1664.1,1323.5,1655.1,1319.7z"/>
		<path class="st2" d="M1683.7,1423.9c0,0-50,41.6-67.8,60.5c-17.8,18.9-17.8,18.9-17.8,18.9s35.7-32.2,53.5-37.8
			C1669.4,1459.8,1694.4,1423.9,1683.7,1423.9z"/>
		<path class="st2" d="M1710.4,1846c0,0,28.6,39.7,42.8,51.1c14.3,11.3,17.8,20.8,17.8,20.8s-42.8-37.8-42.8-60.5
			C1728.3,1834.6,1708.7,1838.4,1710.4,1846z"/>
		<path class="st2" d="M1673,1849.8c0,0-3.5,8.9-8.2,19.2c-5.9,13.2-13.6,28.8-18.6,31.9c-8.9,5.7-19.6,5.7-19.6,5.7
			s28.6-28.4,32.1-47.4C1662.3,1840.3,1673,1836.5,1673,1849.8z"/>
		<path class="st2" d="M1603.4,1806.2c0,0-17.9,28.4-23.2,39.7c-5.3,11.4-10.7,20.8-10.7,20.8S1615.9,1815.7,1603.4,1806.2z"/>
	</g>
	<g>
		<path class="st1" d="M1215.1,733.2c0,0-66.8,21.9-77.3,29.8c-10.5,7.9-10.5,7.9-10.5,7.9s32-25.6,53.2-37.3
			C1201.9,721.9,1225.7,719.2,1215.1,733.2z"/>
		<g>
			<path class="st1" d="M1302.1,422.6c1.2,3.5-2.5,52.2-7,76.2c-4.5,23.9-5.4,32.2-5.4,32.2s3.5-38.1,2.7-55.6
				C1291.6,457.9,1300.3,416.8,1302.1,422.6z"/>
			<path class="st1" d="M1251.2,422.6c0,0-63.8-13.3-95.4,0.4c-31.6,13.7-31.6,13.7-31.6,13.7s45.8-16.1,64.1-10.9
				C1206.4,431,1261.6,430.8,1251.2,422.6z"/>
			<path class="st1" d="M1203.7,320.8l-87.5,15.7c0,0,67.1-5.6,73-3.2C1195.1,335.5,1212.5,324.2,1203.7,320.8z"/>
			<path class="st1" d="M1129.2,507.4l-85.8,34.5c0,0,50-18.4,58-17.3C1109.3,525.8,1136.8,514.5,1129.2,507.4z"/>
			<path class="st1" d="M1072.3,630.3c0,0-64.5,31-76.8,42.2c-12.3,11.3-12.3,11.3-12.3,11.3s43.3-23.2,58.8-29.1
				C1057.5,648.7,1078.4,636.8,1072.3,630.3z"/>
			<path class="st1" d="M1230.9,531.8c0,0-54.9,22.7-75.8,34.5c-20.9,11.9-20.9,11.9-20.9,11.9s40-18.5,56.5-17.9
				C1207.3,560.8,1239.7,535.3,1230.9,531.8z"/>
			<path class="st1" d="M1180.3,651.1c0,0-50,32.6-59.2,35.1c-9.2,2.4-25.5,6-25.5,6s40.4-10.1,54-10.8
				C1163.2,680.7,1189.3,658.8,1180.3,651.1z"/>
			<path class="st1" d="M1109.8,831.3l12.5,92c0,0-1.3-53,1.4-70.2C1126.5,836,1121.9,801.8,1109.8,831.3z"/>
			<path class="st1" d="M1048.7,942.5c0,0-42.3,72.2-62.4,72.2c-20.1,0.1,16.1-7.8,27.8-31.4
				C1025.9,959.7,1044.5,930.7,1048.7,942.5z"/>
			<path class="st1" d="M1074.2,993.1c0,0-26.9,47.9-38.1,55.6c-11,7.7-15.5,5.9-15.5,5.9s26.1-21.9,34.3-44.9
				C1063.1,986.6,1072.9,982.5,1074.2,993.1z"/>
			<path class="st1" d="M1017.3,804.6c0,0-27.2,43.8-46.2,50.3c-19.1,6.5-32.8,3.1-32.8,3.1s34.7,5.8,49.3-2.5
				C1002.2,847.1,1025.3,819.9,1017.3,804.6z"/>
		</g>
		<path class="st2" d="M1315.4,269.9c0,0-38.3-12.3-75.1,3.3c-36.8,15.5-36.8,15.5-36.8,15.5s62.9-15.9,85.3-8.2
			C1309.8,287.7,1315.4,269.9,1315.4,269.9z"/>
		<path class="st2" d="M1326.3,379.4c0,0-27.9,6.7-46.3,24.4c-18.3,17.7-21.8,19.8-21.8,19.8s32.8-26.1,48.4-26.4
			C1322.1,397,1333.2,380.7,1326.3,379.4z"/>
		<path class="st2" d="M1174.1,366.5c0,0-42.6,15.9-63.3,32.6c-20.7,16.7-20.7,16.7-20.7,16.7s30.6-22.1,50.1-25.7
			C1159.7,386.5,1180.9,369.9,1174.1,366.5z"/>
		<path class="st2" d="M1087.8,696.7c0,0-42.2,27.7-68.5,21.2c-26.3-6.4-37.6-6.9-37.6-6.9s64.9,15.8,87.7,10.7
			C1092.2,716.6,1092.2,700.5,1087.8,696.7z"/>
		<path class="st2" d="M1213.2,724.5c0,0-8.4,16.7-20.2,32.8c-8.3,11.4-18.1,22.4-27.6,27c-23,11.1-33,7.1-33,7.1s46.2-12,57.5-43.9
			C1201.2,715.6,1215.4,713.2,1213.2,724.5z"/>
		<path class="st2" d="M1155.4,866.8c0,0-74.6,26-85.9,37.9c-11.3,11.9-20.9,17.3-20.9,17.3s42.4-20.8,66.1-29
			C1138.4,884.7,1168.9,868,1155.4,866.8z"/>
		<path class="st2" d="M1042,809.9c0,0-29.9,14.4-50.1,28.6c-20.3,14.1-30.7,22.1-30.7,22.1s51-20.1,62.5-25.7
			C1035.1,829.4,1045.1,817.2,1042,809.9z"/>
		<path class="st2" d="M1245,484.3c0,0-3.2,57.4-3,83.7c0.2,26.4,8.1,41.7,8.1,41.7s-16.5-45-16.4-77.3
			C1233.7,500,1237.8,477.4,1245,484.3z"/>
		<path class="st2" d="M1169.2,472.3c0,0-71,28.3-84.4,39.1c-13.4,10.9-13.4,10.9-13.4,10.9s47.6-21.5,64.7-26.8
			C1153.3,490.2,1176.3,479.2,1169.2,472.3z"/>
		<path class="st2" d="M1161.4,580.4c0,0-60.6,20.3-83.5,31.4c-22.9,11-22.9,11-22.9,11s44.1-16.8,62.6-15.4
			C1136.1,608.7,1171.4,584.5,1161.4,580.4z"/>
		<path class="st2" d="M1046.5,985.6c0,0,13.6,47.9,23.1,63.9c9.6,15.9,9.8,26.1,9.8,26.1s-27.5-51.4-20-72.6
			C1067,981.6,1047.4,977.8,1046.5,985.6z"/>
		<path class="st2" d="M1010.2,975.1c0,0-6.2,7-14,14.9c-9.9,10.1-22.3,21.8-28,22.9c-10.2,2-20.3-2-20.3-2s36.1-15.9,45.8-32.3
			C1003.3,962.3,1014.6,962.7,1010.2,975.1z"/>
		<path class="st2" d="M959.5,908.4c0,0-26.1,19.9-34.9,28.5c-8.8,8.6-16.9,15.5-16.9,15.5S968,922,959.5,908.4z"/>
	</g>
	<g>
		<path class="st1" d="M1686.3,1616.8c0,0-61.4,60.4-69.3,75.5c-8,15-8,15-8,15s23.8-47.7,41.6-72.9
			C1668.5,1609.2,1692.2,1594.2,1686.3,1616.8z"/>
		<g>
			<path class="st1" d="M1662.5,1187.5c2.5,3.8,16.6,66.1,20.8,98.2c4.2,32,6.2,42.7,6.2,42.7s-10.4-49.1-17.6-70.5
				C1664.6,1236.6,1658.4,1181.1,1662.5,1187.5z"/>
			<path class="st1" d="M1609.5,1212.7c0,0-71.2,15.1-99,47.8c-27.8,32.7-27.8,32.7-27.8,32.7s41.7-42.8,62.6-45.3
				C1566.1,1245.4,1623.4,1217.7,1609.5,1212.7z"/>
			<path class="st1" d="M1522.6,1109.6l-85.1,62.9c0,0,67.7-40.2,74.7-40.2C1519.1,1132.3,1533.1,1109.6,1522.6,1109.6z"/>
			<path class="st1" d="M1513.9,1378.7l-76.4,85.5c0,0,45.2-47.8,53.9-50.3C1500.1,1411.4,1524.3,1383.7,1513.9,1378.7z"/>
			<path class="st1" d="M1500.1,1559.7c0,0-55.6,70.6-64.3,90.6c-8.7,20.2-8.7,20.2-8.7,20.2s36.5-50.3,50.4-65.4
				C1491.4,1589.9,1508.7,1564.8,1500.1,1559.7z"/>
			<path class="st1" d="M1628.7,1358.6c0,0-48.7,55.3-66.1,80.5c-17.3,25.1-17.3,25.1-17.3,25.1s34.7-42.8,52.1-50.3
				C1614.7,1406.3,1639.1,1358.6,1628.7,1358.6z"/>
			<path class="st1" d="M1620,1532.1c0,0-40,65.3-48.7,72.9c-8.7,7.5-24.4,20.1-24.4,20.1s38.3-32.7,52.2-40.3
				C1613,1577.3,1632.1,1537.1,1620,1532.1z"/>
			<path class="st1" d="M1613,1791.1l46.9,108.1c0,0-20.8-65.3-24.4-88C1632.1,1788.6,1614.7,1748.4,1613,1791.1z"/>
			<path class="st1" d="M1590.4,1959.6c0,0-17.4,110.8-38.2,120.7c-20.8,10,13.9-17.6,17.3-52.8
				C1573,1992.3,1581.7,1947.1,1590.4,1959.6z"/>
			<path class="st1" d="M1635.5,2009.9c0,0-10.4,72.9-19.1,88c-8.7,15.1-13.9,15.1-13.9,15.1s19.1-40.2,19.1-72.9
				C1621.7,2007.4,1630.4,1997.3,1635.5,2009.9z"/>
			<path class="st1" d="M1507,1803.7c0,0-12.2,67.9-29.5,85.5c-17.4,17.6-33,20.1-33,20.1s38.2-10.1,50.4-27.6
				C1507,1864.1,1520.9,1818.8,1507,1803.7z"/>
		</g>
		<path class="st2" d="M1620.1,991c0,0-44.3,3.7-76.8,41.3c-32.5,37.5-32.5,37.5-32.5,37.5s59.5-51,85.7-52.5
			C1620.8,1015.8,1620.1,991,1620.1,991z"/>
		<path class="st2" d="M1671.7,1121.8c0,0-26.5,22.2-39.1,53.2c-12.6,31.1-15.4,35.5-15.4,35.5s24.5-48.8,40.5-56.8
			C1673.8,1145.7,1679.4,1120,1671.7,1121.8z"/>
		<path class="st2" d="M1508.8,1181.2c0,0-38.4,40.8-53.8,71.9c-15.4,31-15.4,31-15.4,31s23.7-42.6,42.6-56.8
			C1501.1,1213.2,1517.1,1182.1,1508.8,1181.2z"/>
		<path class="st2" d="M1540.6,1634.6c0,0-33.7,55.3-63.4,60.3c-29.7,5.1-41.6,10.1-41.6,10.1s73.3-12.6,95.1-30.3
			C1552.5,1657.2,1546.5,1637.1,1540.6,1634.6z"/>
		<path class="st2" d="M1681.2,1606.9c0,0-2.7,25-8.9,50.8c-4.4,18.2-10.6,36.8-18.8,47.2c-19.8,25.2-31.7,25.2-31.7,25.2
			s43.6-37.8,43.6-83.1C1665.4,1601.9,1679.3,1591.9,1681.2,1606.9z"/>
		<path class="st2" d="M1673.4,1812.6c0,0-68,69.3-75.3,89.7c-7.4,20.5-15.4,31.9-15.4,31.9s36.4-46.9,58-68.9
			C1662.4,1843.2,1687.9,1807.4,1673.4,1812.6z"/>
		<path class="st2" d="M1534.6,1798c0,0-25.8,32.7-41.6,60.4c-15.9,27.6-23.8,42.8-23.8,42.8s45.5-50.3,55.5-63
			C1534.6,1825.7,1540.6,1805.6,1534.6,1798z"/>
		<path class="st2" d="M1625.8,1292.6c0,0,17.8,72.9,27.7,105.6c9.9,32.7,23.8,47.8,23.8,47.8s-33.7-47.8-45.6-88
			C1619.8,1317.7,1615.8,1287.5,1625.8,1292.6z"/>
		<path class="st2" d="M1542.5,1315.2c0,0-63.4,70.4-73.3,90.5c-9.9,20.1-9.9,20.1-9.9,20.1s41.6-50.3,57.5-65.4
			C1532.6,1345.4,1552.4,1320.2,1542.5,1315.2z"/>
		<path class="st2" d="M1574.3,1453.5c0,0-55.5,55.3-75.3,80.5c-19.8,25.1-19.8,25.1-19.8,25.1s39.6-42.7,59.5-50.3
			C1558.4,1501.2,1586.2,1453.5,1574.3,1453.5z"/>
		<path class="st2" d="M1604,2014.3c0,0,31.7,52.8,47.6,67.9c15.8,15.1,19.8,27.6,19.8,27.6s-47.5-50.3-47.5-80.4
			C1623.8,1999.1,1602.1,2004.2,1604,2014.3z"/>
		<path class="st2" d="M1562.4,2019.3c0,0-3.9,11.8-9.1,25.5c-6.5,17.5-15.1,38.2-20.7,42.4c-9.9,7.6-21.8,7.6-21.8,7.6
			s31.7-37.8,35.7-62.9C1550.5,2006.8,1562.4,2001.7,1562.4,2019.3z"/>
		<path class="st2" d="M1485.1,1961.5c0,0-19.8,37.7-25.8,52.8c-5.9,15.1-11.9,27.7-11.9,27.7S1499,1974,1485.1,1961.5z"/>
	</g>
	<g>
		<path class="st2" d="M1522,437.8c0,0-214.7-26.3-288.4,141.1c-44.5,101.2-56.3,164.1-81.1,208.3c-13.2,23.5,12.4,0,12.4,0
			s-21.3,126.2,161.5,153c182.8,26.8,234.5-0.7,234.5-0.7l-12.1,21.6c0,0,102.5-12.5,200.4-55c97.9-42.6,109.8-118,109.8-118l22.1,2
			c0,0-26.7-158-57.4-196.7C1793,554.5,1718.3,448.4,1522,437.8z"/>
		<g>
			<path class="st3" d="M1346.4,677.5c0-21.4-16.4-38.8-36.5-38.8c-20.2,0-36.5,17.4-36.5,38.8c0,21.4,16.3,38.7,36.5,38.7
				C1330,716.2,1346.4,698.9,1346.4,677.5z"/>
			<path class="st0" d="M1316.4,677.5c0-9.7-7.4-17.6-16.6-17.6c-9.1,0-16.5,7.8-16.5,17.6c0,9.7,7.4,17.5,16.5,17.5
				C1309,695,1316.4,687.2,1316.4,677.5z"/>
		</g>
		<g>
			<path class="st3" d="M1764.1,677.5c0-21.4-16.4-38.8-36.5-38.8c-20.2,0-36.5,17.4-36.5,38.8c0,21.4,16.3,38.7,36.5,38.7
				C1747.8,716.2,1764.1,698.9,1764.1,677.5z"/>
			<path class="st0" d="M1734.6,677.5c0-9.7-7.4-17.6-16.5-17.6c-9.2,0-16.6,7.8-16.6,17.6c0,9.7,7.4,17.5,16.6,17.5
				C1727.2,695,1734.6,687.2,1734.6,677.5z"/>
		</g>
		<path class="st0" d="M1422.7,819.5c0,0,86,21.3,116.3,20.5c16.6-0.4,78-7,115-21c-9.9,20.7-75.1,67-127.1,64.3
			C1442,879,1422.7,819.5,1422.7,819.5z"/>
	</g>
</g>
</svg>
