<?xml version="1.0" encoding="utf-8"?>
<!-- Generator: Adobe Illustrator 21.1.0, SVG Export Plug-In . SVG Version: 6.00 Build 0)  -->
<svg version="1.1" id="Layer_1" xmlns="http://www.w3.org/2000/svg" xmlns:xlink="http://www.w3.org/1999/xlink" x="0px" y="0px"
	 viewBox="0 0 3000 3000" style="enable-background:new 0 0 3000 3000;" xml:space="preserve">
<style type="text/css">
	.st0{fill:#22FF6F;}
	.st1{opacity:0.7;}
	.st2{fill:#0000FF;}
	.st3{fill:#FF0000;}
</style>
<g>
	<path class="st0" d="M339.3,1201.5c-34.2-23.9-37.5-83.1-28.3-120.3c7-28.2,57.4-82.9,23.5-90.2c-40.5-8.7-42.8,56.9-47.2,94.9
		c0.4-34.7-84.1-134.1-94.9-90.4c-8.2,33,55,48.2,56.7,84.9c-29.2-16.5-100.8-67.8-101.3-25.7c-0.3,29.7,53.7,28.7,78.9,45
		c-18.9-11.4-112.1-21.5-99.8,17.1c7.6,23.9,66.2,16.7,85.1,19c-18.3,3.4-110.1,33.6-73.7,54.3c19.7,11.2,61.6-16.9,81.9-18.8
		c35.1-3.3,70.9,11.8,98.6,32.2L339.3,1201.5z"/>
	<path class="st0" d="M2713.4,1095.8c41.9-46.3-24.4-145.8,7.6-168.8c28.1-20.2,31.9,34.7,38.3,57.9c18.6-27.8,63-111.6,81.9-80.8
		c12.9,20.9-26.7,47.3-43.6,67.3c25.7-7.6,72.2-38.2,79.8-10.4c7.3,26.9-51.4,20.4-68.3,43.3c26.4-1.3,78.9-19.4,80.9,8
		c1.9,26.4-58.1,5.2-82.9,17.3c22.7,6,64.9-6,68.2,18.5c5.4,40-76.1,16.7-109.4,31c-29.1,12.5-65.9,47.7-86.6,72.3L2713.4,1095.8z"
		/>
	<path d="M2701.7,1069.5L2701.7,1069.5l45.3,39.2c-139,160.8-266,299.7-483.7,363.5l-16.9-57.5
		C2446.3,1356,2562.3,1230.6,2701.7,1069.5z"/>
	<path d="M318.7,1155.3L318.7,1155.3l-34.3,49.1c174.2,121.8,331.4,225.2,558.1,233.7l2.2-59.8
		C636.6,1370.3,493.3,1277.3,318.7,1155.3z"/>
	<ellipse class="st1" cx="1685.1" cy="2254.4" rx="772.9" ry="123.4"/>
	<path class="st0" d="M959.1,1002.6c-127.8,151.7-187.8,400.9-70.8,549.9c160.4,204.2,505.5,248.4,744.7,242.5
		c159.9-4,613.1-61.8,640-274c18-142,11.6-197.3-25.1-314.1c-68.9-219.4-276.4-298.3-486.8-322.4c-189.6-21.7-495.6-69.6-670.5,12.7
		C1042.6,919.7,997.8,956.7,959.1,1002.6z"/>
	<path d="M1859,1199.5c0,36.9-29.9,66.8-66.8,66.8c-36.9,0-66.8-29.9-66.8-66.8c0-36.9,29.9-66.8,66.8-66.8
		C1829.1,1132.7,1859,1162.6,1859,1199.5z"/>
	<path class="st2" d="M1828.3,1179.1c0,7.6-6.1,13.7-13.7,13.7c-7.6,0-13.7-6.1-13.7-13.7s6.1-13.7,13.7-13.7
		C1822.1,1165.4,1828.3,1171.5,1828.3,1179.1z"/>
	<path d="M1278.8,1213c0,35.3-28.6,63.9-63.9,63.9c-35.3,0-63.9-28.6-63.9-63.9c0-35.3,28.6-63.9,63.9-63.9
		C1250.2,1149.1,1278.8,1177.7,1278.8,1213z"/>
	<path class="st2" d="M1251.5,1193.5c0,7.2-5.9,13.1-13.1,13.1c-7.2,0-13.1-5.9-13.1-13.1c0-7.2,5.9-13.1,13.1-13.1
		C1245.6,1180.4,1251.5,1186.3,1251.5,1193.5z"/>
	<path d="M1757.5,1778.5L1757.5,1778.5l37.7-46.5c154,125,315.6,349.8,428.3,498.7l-47.8,36.1
		C2063.1,2117.5,1901.2,1894.5,1757.5,1778.5z"/>
	<path d="M1369.8,1741.4L1369.8,1741.4l41.8-42.8c152.1,148.5,283,283.7,333.5,504.9l-58.4,13.3
		C1640.2,2013.7,1522.1,1890.3,1369.8,1741.4z"/>
	<path d="M2139.7,2250.7c1.4,2.9,2.9,5.3,4.4,6.8c22.6,24,53.2,6.4,79.4,0.1c48.5-11.7,99.8-9.2,149-3.8
		c11,1.2,131.8,12.9,131.6,10.1c-6.8-89.6-115.2-119.8-189-101c-29.1,7.4-69.3,37.1-99.4,34.8c-27.9-2.1-47.8-44.7-77.2-41.8
		C2118.3,2158,2127.7,2225.9,2139.7,2250.7z"/>
	<path d="M1684.8,2140.9c21.1,104.9-124.1,36.8-158.3,26.9c-66.6-19.3-169.7,10.2-194.1,81.1c120.5,41,307.4,25.5,436.7,18.9
		c8-35.9-29.6-91.5-54.9-117.1L1684.8,2140.9z"/>
	<path class="st2" d="M2093.5,958c6-13.2,11.1-29.2,14.8-46.3c-6.7,0.8-13.6,1.2-20.7,1.2l-1.9,0c-60.1,0-133.2-30.9-180.8-73.7
		c-8.3,14-15,28.4-19.6,42L2093.5,958z"/>
	<path class="st2" d="M1641.8,1490.4c0,0-48.5-38.5-105.3-38.3c-56.7,0.3-122.8,42-122.8,42S1524.5,1594.2,1641.8,1490.4"/>
	<path class="st0" d="M1267,857c0,0,12.5-116.2,60-186c34-50,202-128,394-56s197,285,378,318c99.6,18.2,206,4,238-52
		c12.1-21.1,16.6,221-72,264c-66,32-580-288-824-256C1337.8,902.5,1267,857,1267,857z"/>
	<path class="st0" d="M1278,864c0,0-72-224-212-160s-248,368-348,300s-36.9,181.4,84,192C927,1207,1186,816,1278,864z"/>
	<path d="M1557,1405c38.9-13.4,69.8,9.6,135,22c64.6,12.3,132-57.7,115-76c60.5,65.3-28,174-204,145
		C1546.5,1486.7,1503.6,1431.1,1557,1405z"/>
	<path d="M1515,1408c-39.2-12.6-76,14.7-139,15.8c-65.8,1.2-132.4-48.6-102-75.8c-74.9,66.8,0.7,185,193,150
		C1522,1488,1568.9,1433,1515,1408z"/>
	<path d="M953.1,1618.9c176.4,147.6,469.3,181.3,679.9,176.1c119.1-3,400.7-35.8,547.9-139.9C1741,1675,1381,1695,953.1,1618.9z"/>
	<polygon class="st3" points="1509,1661 1551,1663 1651,1611 1651,1745 1549,1689 1507,1693 1419,1731 1415,1619 	"/>
</g>
</svg>
