<?xml version="1.0" encoding="utf-8"?>
<!-- Generator: Adobe Illustrator 21.1.0, SVG Export Plug-In . SVG Version: 6.00 Build 0)  -->
<svg version="1.1" id="Layer_1" xmlns="http://www.w3.org/2000/svg" xmlns:xlink="http://www.w3.org/1999/xlink" x="0px" y="0px"
	 viewBox="0 0 3000 3000" style="enable-background:new 0 0 3000 3000;" xml:space="preserve">
<style type="text/css">
	.st0{fill:#F9F9F9;}
	.st1{fill:#FFFFFF;stroke:#000000;stroke-width:20;stroke-miterlimit:10;}
	.st2{fill:none;}
	.st3{fill:#46E21F;}
	.st4{fill:#BBF620;}
	.st5{fill:#46E21F;stroke:#000000;stroke-width:20;stroke-miterlimit:10;}
	.st6{fill:#391D3A;stroke:#000000;stroke-width:10;stroke-miterlimit:10;}
	.st7{fill:#3EA9F5;}
	.st8{fill:#FFFFFF;stroke:#000000;stroke-width:16;stroke-miterlimit:10;}
	.st9{fill:#EC1C23;stroke:#000000;stroke-width:18;stroke-miterlimit:10;}
</style>
<circle class="st0" cx="1366.5" cy="1154.5" r="58.5"/>
<circle class="st0" cx="1619.5" cy="1119.5" r="58.5"/>
<circle class="st0" cx="1477.5" cy="900.5" r="58.5"/>
<circle class="st0" cx="1656.5" cy="930.5" r="58.5"/>
<circle class="st0" cx="1304.5" cy="961.5" r="58.5"/>
<circle class="st1" cx="1307.5" cy="957.5" r="57.5"/>
<g>
	<path class="st2" d="M1514.8,1619.2c3.1-9.4,5.2-19.1,4.7-29.7c-1.1-23.5-8.1-45.9-16.5-67.7c-5.5,17.2-7.4,35.2-2.4,55.3
		C1504.1,1591.4,1509.8,1605.2,1514.8,1619.2z"/>
	<path class="st2" d="M1589.2,1658.7c-1.5,6.5-2.5,13.3-2.7,20.3c-0.3,10.3,0.4,20.8,4,30.5c1.9,4.9,4.4,9.7,6.7,14.4
		c1.9-6.5,3-13.3,2.4-20.8C1598.2,1687.7,1594.1,1673.1,1589.2,1658.7z"/>
	<path class="st3" d="M1494.3,1688.1c-0.8-21.7,8.9-39.6,16.5-58.3c-7.7-22.8-18.4-44.9-20-69.2c-1.1-17.5,2.5-33.2,8.5-48.1
		c-2.9-7.2-5.9-14.3-8.8-21.4c-1.6-3.8-3.5-8.2-5.5-12.9c-15-0.3-30-0.8-44.9-1.5c-0.6,2.3-1.2,4.5-1.7,6.8
		c-3.9,17.4-6.1,36.3-0.6,53.7c4.4,14,13.6,25,19.3,38.3c10,23.4,11.6,49.3,8.2,74.4c-2,14.5-5.1,28.8-9.1,42.8
		c-0.3,3.9-0.8,7.8-1.7,11.8c-2.3,10.5-5.4,20.9-9.8,30.7c-2.4,5.3-5.6,10.8-8.2,16.4c-1.7,5.9-3.1,11.8-4.1,17.7
		c-0.1,11.3,3.6,22,8.6,32.2c12.2,24.8,31.5,51,28.5,80.2c-2.2,21-14.6,34.7-22.9,53.4c-9.7,22-14.9,47.3-7.9,71
		c4.5,15.1,16,40.2,35,41c15.1,0.6,10.9-12.9,8.9-22.8c-6.5-32.5-6-64.4,7.3-95.4c9-21,18.1-40.7,15.3-64.2
		c-1.7-14.5-6.1-28.3-11.2-42c-9.5-25.6-19.8-52.7-9.5-79.8c3.6-9.6,9.4-17.9,15-26.2C1496.6,1707.4,1494.7,1697.9,1494.3,1688.1z"
		/>
	<path class="st3" d="M1438.7,1726c13.8-39,27.9-83.3,18.9-125c-4.9-22.9-21.2-39.7-26.7-61.9c-4.9-20-3.9-40.6,2-60.3
		c0.3-0.8,0.5-1.6,0.8-2.3c-24.5-1.2-49.1-2.8-73.5-4.7c0.1,2.7,0.5,5.4,1.1,8.1c3.3,15,14.4,26.8,16.7,42
		c3.7,24.2-7.5,45.5-21,64.7c1.1,1.8,2.1,3.6,3.1,5.4c17.2,31,33.3,66.3,26,102.7c-3.9,19.5-12.6,37.3-19.2,56
		c-3.9,11-8.6,23.8-6.2,35.7c3.9,19.9,19.2,30.4,31.1,45.4c10.3,13,15.6,27.8,13.7,44.5c-0.9,8-3.3,16.1-3.8,24.2
		c-0.7,13.6,12.8,20.8,23.7,9c13-14.1,19.7-36.4,17.3-55.5c-2.9-22.6-17.8-39.4-18.7-63C1423.1,1768.8,1431.5,1746.5,1438.7,1726z"
		/>
	<path class="st3" d="M1599.2,1779.7c1-11.3,1.4-23-1.5-34.1c-2.9-10.9-8.4-19.9-12.4-30.2c-15-39.7,3.6-81.6,24.6-115.4
		c12.1-19.5,25.5-37.5,33.4-59.3c6.8-18.7,11.8-38,15-57.7c0.9-5.4,1.7-10.9,2.4-16.3c-55.2,10-111.8,12.5-168,11.7
		c5.9,15.2,12.8,30.1,18.4,45.3c9.7,26,19.3,55.5,13.9,83.6c-5.7,29.7-27.6,50.8-23.6,83.1c3.6,29.2,17.6,54.8,30.1,80.9
		c8.5,17.7,21,41.4,11.4,61c-13.3,27.3-22.2,58-26.6,87.9c-2.5,17.1-9.9,60.7,12.6,69.3c10.4,4,29.4,0.6,30.4-13
		c0.6-8-0.9-16-1.6-23.9c-2.9-33.8,3.7-67,16.8-98.2C1584.6,1830.3,1596.8,1806.2,1599.2,1779.7z"/>
	<path class="st3" d="M1358,1575.3c8.5-14.2,16.3-31.1,13.7-48.1c-2.4-15.6-13.1-27-16.5-42.1c-1-4.7-1.5-9.3-1.6-13.9
		c-14.8-1.2-29.6-2.5-44.4-4c-12.4-1.3-25.3-2.3-38.1-3.8c11.2,18.6,20.8,38.1,20.7,60.1c-0.1,12.6-2.9,25.4-10.9,35.5
		c-12.9,16.3-19.9,33.8-17,55c4.6,33.4,24.1,62.3,28.3,95.8c2.3,18.8,0,35.9-4.1,54.2c-3.7,16.4,6.1,22.8,22.3,24.9
		c35.5,4.5,25.1-59.3,21.1-78.5c-3-14.6-6.7-29.2-12.4-42.9c-3.7-8.9-7.3-16.4-4.2-26.1C1323.1,1616.1,1344.7,1597.5,1358,1575.3z"
		/>
	<path class="st4" d="M1816.5,1374.2c-6.5-21.7-35-15.2-51.5-20.1c-18.1-5.4-24.7-25.3-27.1-42.1c-4.9-34.5-1.9-70.2,0-104.8
		c1.7-31,3.6-62,5.4-93c2.9-50,4.4-100.8-4.8-150.2c-9.5-51.1-30.8-100.5-70.1-135.8c-55.8-50.1-131.8-66.6-204.6-71.3
		c-11.4-0.7-22.9-1.1-34.3-0.7c-85.5,2.6-169.1,46.9-200.2,129.7c-28.2,75.1-31.8,160.4-26,239.7c3,41.3,10.8,80.9,18.4,121.5
		c6.2,32.9,13.9,69.3,8.6,103c-2.2,13.8-7.4,28.7-21.2,34.8c-12,5.3-27.8,6-29.4,22.8c-2.2,24.5,30.5,37.2,49,42.5
		c40.8,11.6,84.6,13.7,126.7,17.2c88.9,7.3,179.5,11.8,268.3,1.2c41.6-5,83-13,121.4-30.2C1763.1,1430,1825.5,1404.2,1816.5,1374.2z
		 M1594.5,930.9c1.2-30.4,20.2-49.4,42.9-56.5c6-2.1,12.5-3.3,19.3-3.3c1,0,2,0.1,3,0.1c29.3,0.6,57.7,19.5,59.2,57.8
		c-1.2,30.4-23.3,56.7-54.2,60.4C1630.1,993.8,1593,969,1594.5,930.9z M1557.9,1120.2c1.3-31.7,26-59.8,58.7-61.1
		c35.5-1.4,64.3,23.9,65.8,59.8c0,0.1-0.1,0.2-0.1,0.3c0,0.1,0.1,0.2,0.1,0.3c-1.3,31.7-26,59.7-58.7,61.1
		C1589.9,1181.9,1556.4,1156.5,1557.9,1120.2z M1478.1,839.1c34.1-1.4,60.6,27.4,61.9,60.1c0,0.1,0,0.2-0.1,0.2
		c0,0.1,0.1,0.2,0.1,0.3c-1.4,34.8-28.3,60-62.7,61.4c-32.5,1.3-63.2-27.7-61.9-60.7C1416.9,865.7,1443.7,840.5,1478.1,839.1z
		 M1426.6,1153.4c0,0.1-0.1,0.2-0.1,0.2c0,0.1,0.1,0.1,0.1,0.2c-1.3,31.7-26.1,59.6-58.8,60.9c-33.7,1.4-67.2-23.7-65.7-59.9
		c1.3-31.7,26.1-59.6,58.8-60.9C1396.4,1092.5,1425.2,1117.4,1426.6,1153.4z M1243.3,959.9c1.4-33.3,25.4-57.2,58-61.2
		c35.7-4.3,65.2,24.9,66.6,59.4c-1.3,33.3-25.4,57.2-58,61.2C1276.2,1023.3,1241.9,994.6,1243.3,959.9z"/>
	<path class="st5" d="M1823.3,1372.3c-3.2-15.9-25.4-19.5-38.4-20.2c-26.5-1.3-36.1-17.1-40.2-42c-6.1-37.5-1.4-77.6,0.7-115.3
		c1.6-29,3.5-58.1,5.1-87.1c5.4-96.7,2.6-205.4-71-278c-55.7-54.9-137.7-72.2-213-77c-71.3-4.1-138.8,11.7-193.6,59.4
		c-53.8,46.8-68.4,122.8-75,190.4c-7.9,80.9,0.1,160.7,16.1,240c7.1,35.5,15.1,74.5,9.3,110.7c-1.4,8.7-4.4,17.5-10.5,24
		c-5.5,5.7-12.6,5.7-19.5,8.2c-10.6,3.9-19.2,12.7-20.3,24.2c-1.6,17.3,16.4,29.1,29.7,35.7c18.5,9.2,39,13.8,59.8,16.7
		c6.5,11.2,12.9,22.6,17.4,35.2c6.9,19.2,7.7,39.8-2.7,57.8c-10.1,17.5-21.1,28.7-20.4,50.5c1.3,41.2,27.3,76,29.9,117.3
		c0.8,12.1-1.1,24.1-3.8,35.9c-1.5,6.2-3.8,12.9-2.3,19.4c2.9,12.6,29,16.7,39,14c19.4-5.3,23.3-26.4,23.2-44.2
		c-0.1-28.9-6.7-58.5-17.8-85.2c-10.9-26.2,10-46.6,25.2-66.7c0.7-1,1.4-1.9,2.2-2.9c4.6,7.4,9,14.8,12.8,22.5
		c10.5,21.5,16.8,44.4,15.8,68.5c-1,23.6-12.5,45.4-20.5,67.1c-11.4,30.9-5.2,51.1,17.3,74.7c17,17.8,23.9,34,20.2,58.5
		c-1.5,9.9-6.6,22.8,1.5,31c16.9,17.1,38.5-11.6,44.2-24.3c6.1-13.6,7.4-28.9,5.6-43.6c-1-7.4,0-7.6-1.8-14.7c-3-12-0.8-11.3-2-21
		c9,22.4,11.5,28.8,16.6,53c4,18.7-1.7,36.6-11.6,52.5c-12.9,20.6-20.8,42.2-21.2,66.7c-0.4,25.5,11.9,59.5,39.1,66.9
		c13.3,3.7,24.7-3.4,23.5-17.2c-0.9-10.9-4.2-21.7-5.6-32.6c-2.6-20.8,0.4-41.5,6.6-61.4c6.2-19.7,16.9-36.2,19.5-57
		c1.9-15.1-1-30.5-5.3-45c-8.7-29.3-24.4-56.1-17.7-87.7c2.2-10.2,7.1-18.9,12.6-27.3c7.4,20.9,19.1,40.9,28,60.5
		c5.3,11.8,10,24.2,9.9,37.3c-0.1,12.7-9.5,26.6-13.8,38.3c-8,22.2-43.4,132.2,4.1,134.4c10.9,0.5,29.3-2.3,34.9-13.3
		c2.7-5.2,1.5-12.3,0.9-17.9c-1.2-12-2.3-23.7-1.9-35.8c1.1-37.2,17.4-69.2,30-102.9c5.3,6.7,12,11.6,20.2,13.5
		c9.6,2.2,21-3.2,23.2-13.1c1.7-7.7-1.9-17.2-3.2-24.7c-2.9-16.3,0.1-30.5,9.6-44.1c13-18.6,34.1-29,37.2-53.5
		c2.8-22.1-12.3-47.2-20.3-66.8c-13.7-33.6-32.3-60.5-17.4-92.5c13.3-28.3,12.1-46,22.5-75.5c38-8,101.5-33.3,125.5-49
		C1805.2,1408.7,1827.2,1392.1,1823.3,1372.3z M1745.1,1438c-38.4,17.2-79.8,25.3-121.4,30.2c-88.8,10.6-179.5,6.2-268.3-1.2
		c-42.1-3.5-85.9-5.5-126.7-17.2c-18.5-5.3-51.2-18-49-42.5c1.5-16.8,17.4-17.5,29.4-22.8c13.8-6.1,19-21,21.2-34.8
		c5.3-33.6-2.4-70.1-8.6-103c-7.6-40.6-15.4-80.2-18.4-121.5c-5.8-79.3-2.3-164.5,26-239.7c31.1-82.8,114.7-127.1,200.2-129.7
		c11.4-0.4,22.9,0.1,34.3,0.7c72.8,4.7,148.8,21.2,204.6,71.3c39.3,35.3,60.6,84.7,70.1,135.8c9.2,49.4,7.7,100.3,4.8,150.2
		c-1.8,31-3.7,62-5.4,93c-1.9,34.6-4.9,70.3,0,104.8c2.4,16.8,9,36.7,27.1,42.1c16.5,4.9,44.9-1.6,51.5,20.1
		C1825.5,1404.2,1763.1,1430,1745.1,1438z M1557.7,1952.5c0.7,7.9,2.2,15.9,1.6,23.9c-1,13.6-19.9,17-30.4,13
		c-22.6-8.6-15.2-52.2-12.6-69.3c4.5-30,13.3-60.7,26.6-87.9c9.6-19.7-3-43.3-11.4-61c-12.5-26.1-26.5-51.8-30.1-80.9
		c-4-32.4,17.9-53.4,23.6-83.1c5.4-28-4.2-57.6-13.9-83.6c-5.7-15.2-12.5-30.1-18.4-45.3c56.2,0.8,112.9-1.7,168-11.7
		c-0.7,5.5-1.5,10.9-2.4,16.3c-3.2,19.6-8.1,39-15,57.7c-8,21.8-21.3,39.8-33.4,59.3c-21,33.8-39.6,75.8-24.6,115.4
		c3.9,10.4,9.5,19.4,12.4,30.2c2.9,11.1,2.5,22.8,1.5,34.1c-2.4,26.5-14.6,50.6-24.7,74.6
		C1561.4,1885.6,1554.8,1918.8,1557.7,1952.5z M1494,1822.8c5.1,13.7,9.4,27.5,11.2,42c2.8,23.5-6.3,43.2-15.3,64.2
		c-13.3,31-13.8,62.9-7.3,95.4c2,9.9,6.2,23.5-8.9,22.8c-19-0.8-30.6-25.9-35-41c-7-23.6-1.8-49,7.9-71
		c8.3-18.7,20.7-32.4,22.9-53.4c3-29.2-16.2-55.4-28.5-80.2c-5-10.2-8.7-20.9-8.6-32.2c1-6,2.4-11.9,4.1-17.7
		c2.5-5.6,5.8-11.1,8.2-16.4c4.4-9.8,7.6-20.2,9.8-30.7c0.9-4,1.4-7.9,1.7-11.8c4-14,7.1-28.3,9.1-42.8c3.4-25.1,1.8-51-8.2-74.4
		c-5.7-13.3-14.8-24.3-19.3-38.3c-5.5-17.4-3.4-36.3,0.6-53.7c0.5-2.3,1.1-4.6,1.7-6.8c14.9,0.7,29.9,1.2,44.9,1.5
		c2,4.7,4,9.1,5.5,12.9c2.9,7.1,5.9,14.2,8.8,21.4c-5.9,14.9-9.6,30.6-8.5,48.1c1.6,24.2,12.3,46.4,20,69.2
		c-7.6,18.7-17.4,36.6-16.5,58.3c0.4,9.8,2.4,19.4,5.3,28.7c-5.6,8.3-11.4,16.6-15,26.2C1474.3,1770.1,1484.5,1797.2,1494,1822.8z
		 M1423.9,1790.9c0.9,23.6,15.8,40.4,18.7,63c2.5,19.1-4.2,41.4-17.3,55.5c-10.9,11.8-24.4,4.6-23.7-9c0.4-8.1,2.8-16.1,3.8-24.2
		c2-16.7-3.4-31.5-13.7-44.5c-11.8-15-27.2-25.4-31.1-45.4c-2.3-11.9,2.4-24.7,6.2-35.7c6.6-18.7,15.3-36.5,19.2-56
		c7.3-36.4-8.8-71.7-26-102.7c-1-1.8-2-3.6-3.1-5.4c13.5-19.2,24.7-40.5,21-64.7c-2.3-15.2-13.4-27-16.7-42
		c-0.6-2.7-0.9-5.4-1.1-8.1c24.5,2,49,3.6,73.5,4.7c-0.3,0.8-0.5,1.5-0.8,2.3c-6,19.7-7,40.3-2,60.3c5.5,22.2,21.8,39,26.7,61.9
		c8.9,41.7-5.2,86-18.9,125C1431.5,1746.5,1423.1,1768.8,1423.9,1790.9z M1597.2,1723.8c-2.3-4.8-4.8-9.5-6.7-14.4
		c-3.7-9.7-4.3-20.2-4-30.5c0.2-7,1.2-13.7,2.7-20.3c4.9,14.4,9,29,10.4,44.4C1600.3,1710.6,1599.2,1717.4,1597.2,1723.8z
		 M1502.9,1521.8c8.4,21.8,15.4,44.1,16.5,67.7c0.5,10.7-1.6,20.4-4.7,29.7c-5-14-10.6-27.8-14.2-42.1
		C1495.6,1557,1497.5,1539,1502.9,1521.8z M1697,1555c6.7,18.7,16.8,39.4,30.7,46.7c25.3,13.3,48.3,44.9,56.7,65.3
		c5.7,13.9,4,30.7,2,46c-2.5,19.6-17,21.4-28.7,35.3c-10.9,12.9-14.4,19.9-13.4,36.8c0.4,7,2.2,14,3.4,20.9
		c0.6,3.5,0.9,6.8,0.7,10.3c-1,13.9-17.2,14.3-24,11.4c-12.7-5.3-14-10.7-15.3-18c-0.7-8.7,0.7-14.7,2-28c1.2-12,3.3-24,6-43.3
		c0.3-1.8,2.9-12.4,2.3-14.1c1.9-4.6,3.1-23.9-1.6-37.3c-8.2-23.3-24-24-48-49.3c-18.7-20.7-39.8-54-25-85.3
		c12.7-27,19.1-57.2,22.8-86.9c6-1.2,12-2.4,17.9-3.7c6.7-1.5,13.4-3.3,20-5.2c-1.9,5.5-4.3,23.9-6.4,33.9
		C1691.9,1525.3,1693.1,1544,1697,1555z"/>
	<path class="st6" d="M1623.7,1180.5c32.7-1.3,57.4-29.4,58.7-61.1c0-0.1-0.1-0.2-0.1-0.3c0-0.1,0.1-0.2,0.1-0.3
		c-1.5-35.9-30.3-61.2-65.8-59.8c-32.7,1.3-57.4,29.4-58.7,61.1C1556.4,1156.5,1589.9,1181.9,1623.7,1180.5z M1623.7,1063.2
		c30.2,1.2,50.6,29.2,51.9,57.3c-1.4,32.4-25.5,57.4-59,56.1c-28.4-1.2-48.5-26.4-51.8-52.7
		C1560.7,1089.6,1590.9,1061.8,1623.7,1063.2z"/>
	<path class="st7" d="M1609.5,1120.5c0.8,5.1,4.1,10.3,9.7,11.2c7.2,1.2,11.3-4.9,11.8-11.3c-0.4-5.6-3.7-11.4-9.7-12.4
		C1614.2,1106.8,1608.4,1113.6,1609.5,1120.5z"/>
	<path class="st7" d="M1637.8,1119.5c0-0.1-0.1-0.2-0.1-0.3c0-0.1,0.1-0.2,0.1-0.2c-1.2-21.5-34.1-19.1-35.1,1.3
		C1601.4,1141.9,1636.6,1140.2,1637.8,1119.5z M1621.2,1108c6.1,1,9.3,6.8,9.7,12.4c-0.4,6.4-4.5,12.5-11.8,11.3
		c-5.6-0.9-8.9-6.1-9.7-11.2C1608.4,1113.6,1614.2,1106.8,1621.2,1108z"/>
	<path class="st0" d="M1659.8,871.3c-1,0-2-0.1-3-0.1c-6.8,0-13.3,1.2-19.3,3.3C1644.7,872.2,1652.2,871.1,1659.8,871.3z"/>
	<path class="st6" d="M1664.9,989.5c30.9-3.8,52.9-30,54.2-60.4c-1.5-38.3-29.9-57.2-59.2-57.8c-7.6-0.2-15.1,0.9-22.4,3.2
		c-22.8,7.1-41.7,26.1-42.9,56.5C1593,969,1630.1,993.8,1664.9,989.5z M1672.6,875.5c24.4,7.1,38.7,31.3,39.6,55.4
		c-1.5,37-33.5,64.5-71.3,53.6c-24.4-7-38.7-31.3-39.7-55.4C1599.8,891.7,1637.6,865.4,1672.6,875.5z"/>
	<path class="st7" d="M1676.5,931.2c0.3,5.6,4.3,11.7,10.4,12c6.9,0.4,10.8-5.2,11.1-11.4c-0.3-5.6-4.3-11.7-10.4-12
		C1681.3,919.4,1676.1,924.8,1676.5,931.2z"/>
	<path class="st7" d="M1686.9,948.1c9.5-0.5,17.4-7.1,17.9-16.9c-1.2-21.9-34.1-20.7-35.2,0.6C1669.1,941,1678,948.5,1686.9,948.1z
		 M1698,931.7c-0.3,6.3-4.2,11.8-11.1,11.4c-6.1-0.3-10.1-6.4-10.4-12c-0.3-6.3,4.8-11.8,11.1-11.4
		C1693.7,920.1,1697.7,926.2,1698,931.7z"/>
	<path class="st6" d="M1477.3,961.1c34.4-1.4,61.3-26.6,62.7-61.4c0-0.1-0.1-0.2-0.1-0.3c0-0.1,0.1-0.2,0.1-0.2
		c-1.3-32.7-27.8-61.5-61.9-60.1c-34.4,1.4-61.3,26.6-62.7,61.4C1414.1,933.4,1444.8,962.4,1477.3,961.1z M1481.3,843.6
		c30.2,1.2,50.5,28.9,51.9,57c-1.4,32.5-25.7,57.3-59,56c-28.3-1.1-48.5-26.2-51.7-52.6C1418.3,869.9,1448.7,842.3,1481.3,843.6z"/>
	<path class="st7" d="M1467,870c0.3,5.6,4.3,11.4,10.4,11.8c6.8,0.4,10.8-5,11.2-11.3c-0.3-5.6-4.3-11.5-10.4-11.8
		C1471.9,858.3,1466.7,863.7,1467,870z"/>
	<path class="st7" d="M1477.5,887c9.6-0.5,17.4-7.2,17.9-17c-1.2-22.1-34.1-21-35.3,0.5C1459.6,879.7,1468.5,887.5,1477.5,887z
		 M1488.5,870.4c-0.3,6.3-4.4,11.7-11.2,11.3c-6-0.3-10.1-6.2-10.4-11.8c-0.3-6.3,4.9-11.7,11.1-11.3
		C1484.2,859,1488.2,864.9,1488.5,870.4z"/>
	<path class="st8" d="M1309.8,1019.2c32.5-4,56.6-27.9,58-61.2c-1.4-34.5-30.9-63.7-66.6-59.4c-32.5,4-56.6,27.9-58,61.2
		C1241.9,994.6,1276.2,1023.3,1309.8,1019.2z"/>
	<path class="st6" d="M1302.1,1154.8c-1.5,36.3,32,61.3,65.7,59.9c32.7-1.3,57.5-29.2,58.8-60.9c0-0.1-0.1-0.1-0.1-0.2
		c0-0.1,0.1-0.2,0.1-0.2c-1.4-36-30.2-61-65.7-59.5C1328.3,1095.2,1303.4,1123.1,1302.1,1154.8z M1371.8,1097.9
		c28.5,3.5,46.9,30.2,48,57.2c-1.5,33.7-27.8,59.9-62.9,55.6c-26.6-3.2-44.8-27.3-47.9-52.5
		C1304.8,1122.7,1337.5,1093.8,1371.8,1097.9z"/>
	<path class="st7" d="M1353.7,1134.6c0.8,5.1,4.2,10.4,9.7,11.3c7.2,1.2,11.3-4.9,11.8-11.3c-0.4-5.6-3.7-11.5-9.8-12.5
		C1358.4,1121,1352.6,1127.8,1353.7,1134.6z"/>
	<path class="st7" d="M1382,1133.6c0-0.1-0.1-0.2-0.1-0.3c0-0.1,0.1-0.2,0.1-0.2c-1.2-21.4-34.1-19-35.2,1.3
		C1345.6,1156.1,1380.9,1154.2,1382,1133.6z M1365.4,1122.1c6,1,9.3,6.9,9.8,12.5c-0.4,6.4-4.5,12.5-11.8,11.3
		c-5.5-0.9-8.9-6.1-9.7-11.3C1352.6,1127.8,1358.4,1121,1365.4,1122.1z"/>
	<path class="st7" d="M1293,988c0.3,5.6,4.3,11.4,10.4,11.8c6.8,0.4,10.8-5,11.2-11.3c-0.3-5.6-4.3-11.5-10.4-11.8
		C1297.9,976.3,1292.7,981.7,1293,988z"/>
	<path class="st7" d="M1303.5,1005c9.6-0.5,17.4-7.2,17.9-17c-1.2-22.1-34.1-21-35.3,0.5C1285.6,997.7,1294.5,1005.5,1303.5,1005z
		 M1314.5,988.4c-0.3,6.3-4.4,11.7-11.2,11.3c-6-0.3-10.1-6.2-10.4-11.8c-0.3-6.3,4.9-11.7,11.1-11.3
		C1310.2,977,1314.2,982.9,1314.5,988.4z"/>
</g>
<path class="st9" d="M1313,1295c38,8,82-26,158-26c66,0,130,34,178,30C1631,1339,1451,1469,1313,1295z"/>
<path class="st5" d="M1238,1611c5.7,13.8,5.5,20.2,8.5,34.7c3.9,19.1,8.6,86.5-26.9,81.9c-16.3-2.1-20.7-16.6-17-33
	c4.1-18.3,6.8-30.7,4.5-49.6c-4.1-33.5-19.9-46-24.5-79.4c-2.9-21.1-1.4-49.8,9.3-67.7c9-15,37-42,77.2-37.7
	c12.8,1.5,25.7,2.6,38.1,3.8c14.8,1.5,29.6,2.8,44.4,4c0.1,4.6-3.2,15.3-6.2,20.3c-7.9,13.2-28.5,24.5-41.5,27.5
	c-25.3,5.8-37,12-50,25c-13.7,13.7-20,24.5-22,38C1230.5,1589.1,1234.3,1602.1,1238,1611z"/>
</svg>
