<?xml version="1.0" encoding="utf-8"?>
<!-- Generator: Adobe Illustrator 21.1.0, SVG Export Plug-In . SVG Version: 6.00 Build 0)  -->
<svg version="1.1" id="Layer_1" xmlns="http://www.w3.org/2000/svg" xmlns:xlink="http://www.w3.org/1999/xlink" x="0px" y="0px"
	 viewBox="0 0 3000 3000" style="enable-background:new 0 0 3000 3000;" xml:space="preserve">
<style type="text/css">
	.st0{opacity:0.1;}
	.st1{fill:#FF396F;stroke:#000000;stroke-width:20;stroke-miterlimit:10;}
	.st2{fill:#FFFFFF;}
	.st3{fill:#3EA9F5;}
	.st4{fill:#F9F9F9;stroke:#000000;stroke-width:20;stroke-miterlimit:10;}
	.st5{fill:#3EA9F5;stroke:#000000;stroke-width:20;stroke-miterlimit:10;}
</style>
<ellipse class="st0" cx="1508.3" cy="2139.5" rx="331.3" ry="52.9"/>
<g>
	<path d="M1746,1565.9c0,0,191.8,176.9,163.1,205.1s-112.2-19.1-132.2-57.7c-20-38.6-80.5-131.4-80.5-131.4L1746,1565.9z"/>
	<path d="M1270.9,1591.7c0,0-182.7-49.4-196.1-10.5c-13.4,38.9,44,60.9,82.6,65.1s123-13.7,123-13.7L1270.9,1591.7z"/>
	<g>
		<path class="st1" d="M1286,2022c3-31.1,15.4-102.1,17.6-133c2.5-34.7-3.2-171.4-11.8-208.4c-20.6-88.8-40.6-178.5-47-269.8
			c-19-270.5,186.9-278.9,245.6-280.1c69.6-1.4,253.9,16.2,259.1,240c2.7,117.3-9.5,195-16.4,272.8c-5,57.2-15,132.3-18.1,215.2
			c0,0.1,0,0.2-0.1,0.3c0,0.1,0,0.1,0,0.2c0,0.1,0,0.1,0,0.2c0,0.1-0.1,0.2,0,0.4c0,0.1,0,0.2,0.1,0.4c0,0,3.2,19.3,3.2,19.3
			c6.6,42.2,15.2,65.9,24.8,109.5c8,36.5,29,145-25,150c-75.7,7-79-95-84-119c-2.3-11.2-10.4-72.1-16.1-82.6
			c-8.8-16.2-57.5-10.9-71.5-10.2c-35.7,1.7-50.3-2.1-85.9-1.8c-14.5,0.1-28.7,4.2-31.9,20.2c-5.4,26.8-26.6,199.4-97.6,199.4
			C1255.9,2145,1283.7,2045.4,1286,2022z"/>
	</g>
	<path d="M1323.3,1334.3c0,0,43.3-14.6,73.4,27.3c30.2,41.9,28.8,57.5,28.8,57.5s-94.2,34.6-102.1-55.1c-32.2-7-40.5-38.8-37.5-35
		C1294,1339.2,1322.9,1339.8,1323.3,1334.3z"/>
	<g>
		<path d="M1671.2,1331.7c0,0-45.8-14.1-77.8,28.2c-31.9,42.3-23.8,53.2-23.8,53.2s91.4,38,101.2-49c0.1-1.1,0.2-2.2,0.3-3.4
			c0.2-2.8,0.4-5.6,0.5-8.6c0.1-4,25.4,10.2,41.7-19.4C1691.3,1337,1671.4,1334.4,1671.2,1331.7z"/>
		<path id="eye" class="st2" d="M1588.1,1401.1c0,0,22.5-57,66-51C1658.5,1377.1,1657,1414.6,1588.1,1401.1z"/>
		<path class="st3" d="M1608.4,1377.8c-1-9.7,6.1-18.5,15.8-19.5c9.7-1,18.4,6.1,19.4,15.8c1,9.7-6.1,18.4-15.8,19.5
			C1618.1,1394.7,1609.4,1387.6,1608.4,1377.8z"/>
		<path id="eye_1_" class="st2" d="M1408.5,1408.1c0,0-22.5-57-66-51C1338,1384.1,1339.5,1421.6,1408.5,1408.1z"/>
	</g>
	<path class="st3" d="M1356.2,1382.6c0-9,7.3-16.3,16.3-16.3c9,0,16.3,7.3,16.3,16.3c0,9-7.3,16.3-16.3,16.3
		C1363.6,1398.9,1356.2,1391.6,1356.2,1382.6z"/>
	<path class="st4" d="M1421.7,1510.7c57.3-4,74.6-23.4,92.7-2c14.9-22.9,48.7,14,84.7,14.7C1567.7,1572.7,1469,1614.7,1421.7,1510.7
		z"/>
</g>
<path class="st5" d="M1693,1200c-13.5-49.6,37-133.1,10-168.1c-12,33.5-46.5,48.1-66,34.6c-24.3-16.8-11.5-30.5,0.5-98
	c-76.5,69-98.5-94.1-98.5-94.1l-6,37l-10.1,18.2l-41.8-11.6c27,30,29.2,67.1,22.2,87.9c-10.7,31.7-79.2,30.6-104.7,8.1
	c4.5,40.5,16.5,100.5-33,139.5c70.7-5.3,116.4,40.4,135.4,108.4c27-54,51-101.9,117-100.9C1639.5,1161.3,1660,1170,1693,1200z"/>
</svg>
