<?xml version="1.0" encoding="utf-8"?>
<!-- Generator: Adobe Illustrator 21.1.0, SVG Export Plug-In . SVG Version: 6.00 Build 0)  -->
<svg version="1.1" id="Layer_1" xmlns="http://www.w3.org/2000/svg" xmlns:xlink="http://www.w3.org/1999/xlink" x="0px" y="0px"
	 viewBox="0 0 3000 3000" style="enable-background:new 0 0 3000 3000;" xml:space="preserve">
<style type="text/css">
	.st0{fill:#3EA9F5;stroke:#000000;stroke-width:20;stroke-miterlimit:10;}
	.st1{opacity:0.1;}
	.st2{fill:#391D3A;}
	.st3{fill:#46E21F;stroke:#000000;stroke-width:20;stroke-miterlimit:10;}
	.st4{fill:#3FA9F5;stroke:#000000;stroke-width:20;stroke-miterlimit:10;}
	.st5{fill:#46E21F;}
	.st6{fill:#F7921E;}
	.st7{fill:#F9F9F9;}
	.st8{fill:#FF1D25;}
	.st9{fill:#7473BF;stroke:#391D3A;stroke-width:20;stroke-miterlimit:10;}
</style>
<path class="st0" d="M1123.2,1792.3c0,0-24.8-35.8-44.1-46.8c-50.7-29-132.3-82.7-132.3-82.7c-70.3-66.1-121-132.8-131-226.8
	c-1.6-15.4-20.3-27.8-21.1-43.3c-1.6-31-3.4-83.4,24.1-83.7c3.8,0,60.5-1.2,73,16c8,11,12,21,15,47c1.6,13.8-3.6,39.9-23,35
	c-16-4-11.5-40-17-40c-5,0,19,49,9,76c17,87,94.1,183.4,183.9,217.1c21.3,8,82,11,82,11"/>
<ellipse class="st1" cx="1528.9" cy="2723" rx="526.3" ry="84"/>
<g>
	<path class="st2" d="M1446.6,2286.6c0.3-5.9,0.6-11.9,1-18C1447.2,2274.7,1446.8,2280.7,1446.6,2286.6z"/>
	<path class="st2" d="M1487,2635.3c0.1,1.3,0.3,2.6,0.5,3.8C1487.4,2637.8,1487.2,2636.6,1487,2635.3z"/>
	<path d="M1466.6,2290.2c-6.9,0-13.6-0.3-20.2-0.8c-0.7,13.4-1.2,26.1-1.6,37.8c6.3,0.5,12.7,0.8,19.3,0.8c9.8,0,19.4-0.7,28.7-1.9
		c0.8-13.5,1.6-27.1,2.5-40.7c-0.1,1.1-0.1,2.2-0.2,3.2C1485.8,2289.6,1476.3,2290.2,1466.6,2290.2z"/>
	<path class="st2" d="M1443.5,2401.9c0-2.1,0-4.3,0-6.4C1443.6,2397.6,1443.6,2399.8,1443.5,2401.9z"/>
	<path class="st2" d="M1444.2,2346.3c0-1.7,0.1-3.5,0.1-5.2C1444.3,2342.8,1444.2,2344.6,1444.2,2346.3z"/>
	<path class="st2" d="M1444.5,2335.2c0.1-2.2,0.1-4.4,0.2-6.7C1444.6,2330.8,1444.6,2333,1444.5,2335.2z"/>
	<path d="M1461.6,2410c-6.2,0-12.2-0.3-18.1-0.7c-0.1,12.2-0.1,24.9-0.2,37.9c5.2,0.4,10.4,0.6,15.8,0.6c9.2,0,18.2-0.6,27-1.7
		c0,0.7-0.1,1.4-0.1,2.1c0.8-15.8,1.7-32.4,2.6-49.6c-0.2,3.4-0.4,6.8-0.6,10.1C1479.4,2409.6,1470.6,2410,1461.6,2410z"/>
	<path d="M1443.8,2649.6c0.1,22.6,0.2,36.4,0.2,36.4s-77,62-47,65c59.7,6,80-25,92.6-36.2c8.1-7.2,4.5-25.1-1.1-67.8
		c-11.8,1.8-24.1,2.7-36.9,2.7C1449,2649.7,1446.4,2649.6,1443.8,2649.6z"/>
	<path d="M1444.1,2349.3c0,1.7-0.1,3.5-0.1,5.1c-0.2,10.1-0.3,21.1-0.4,32.8c5.9,0.5,11.9,0.7,17.9,0.7c9.5,0,18.7-0.6,27.7-1.7
		c0.7-12.3,1.4-24.8,2.1-37.5c-8.9,1-18,1.5-27.4,1.5C1457.3,2350.1,1450.7,2349.8,1444.1,2349.3z"/>
	<path d="M1443.3,2469.4c0,12.6,0,25.3,0,37.9c4.4,0.2,8.8,0.4,13.3,0.4c9.2,0,18.1-0.6,26.9-1.6c0.4-11.6,0.9-24.1,1.6-37.4
		c-8.4,0.9-17.1,1.3-25.9,1.3C1453.7,2470,1448.5,2469.8,1443.3,2469.4z"/>
	<path d="M1454.1,2589.8c-3.6,0-7.1-0.1-10.6-0.3c0.1,16.9,0.1,32.4,0.2,45.9c0-2.6,0-5.2,0-8.1c2.6,0.1,5.3,0.2,7.9,0.2
		c11.8,0,23.3-1,34.3-2.7c0.1,0.6,0.1,1.1,0.2,1.7c-1.2-11.6-2.3-24.3-3-38.4v0C1473.7,2589.2,1464,2589.8,1454.1,2589.8z"/>
	<path d="M1456.6,2529.9c-4.5,0-8.9-0.1-13.3-0.3c0-3.5,0-7.1,0-10.6c0,21.3,0.1,42.2,0.2,61.6c0-4.4,0-8.6,0-13.1
		c3.5,0.2,7.1,0.2,10.7,0.2c9.6,0,19-0.6,28.1-1.8c0,1.7,0.1,3.3,0.1,4.8c-0.3-10.3-0.1-25.4,0.5-44.3c0,0.7-0.1,1.5-0.1,2.2
		C1474.2,2529.4,1465.5,2529.9,1456.6,2529.9z"/>
	<path d="M1472.4,2088.5c-7.5,1.4-15.6-1.7-23.5-4.9c-4.3,55.3-2.9,125.4-1.3,183.6c6.2,0.5,12.5,0.8,19,0.8c10.2,0,20.3-0.7,29.9-2
		c-0.1,1.8-0.4,3.6-0.3,5.4c-1.1-63.4-2.9-128.8,0.6-180.1C1488.8,2089.3,1480.8,2087,1472.4,2088.5z"/>
	<path class="st2" d="M1660.7,2429c-1.9-1.8-3.7-3.6-5.6-5.5C1657,2425.3,1658.8,2427.1,1660.7,2429z"/>
	<path class="st2" d="M1623.6,2381.7c-1.2-2.1-2.3-4.3-3.4-6.5C1621.3,2377.4,1622.4,2379.5,1623.6,2381.7z"/>
	<path class="st2" d="M1618,2370.7c-1-2.2-2-4.5-2.9-6.8C1615.9,2366.2,1616.9,2368.4,1618,2370.7z"/>
	<path d="M1761.8,2492.8c11.6-10.3,22-21.2,30.9-32.6c0.2,0.1,0.3,0.2,0.5,0.3c-10.2-5.3-20.9-11.1-31.8-17.3
		c-8.9,12-19.1,23.7-30.8,34.9C1741.6,2483.9,1752.2,2488.8,1761.8,2492.8z"/>
	<path class="st2" d="M1670.1,2437.5c-2.1-1.8-4.2-3.7-6.3-5.6C1665.8,2433.8,1668,2435.6,1670.1,2437.5z"/>
	<path d="M1652.1,2089.9c-15.8-3.6-29,0.3-44.1,2.7c-3.1,45.6-5.7,94.1-6.6,137.2c13.1,0.1,26.7-0.9,40.4-3c3-0.5,6-1.1,9-1.6
		c0.1-43.7,2.7-91.2,6-135.2C1655.1,2090.2,1653.5,2090.2,1652.1,2089.9z"/>
	<path class="st2" d="M1729.8,2477.7c-6.9-3.7-14-7.7-21.1-12.1C1715.8,2470,1722.9,2474,1729.8,2477.7z"/>
	<path d="M1624.8,2383.8c8,14,17.9,26.6,28.7,38c0.9-0.8,1.8-1.5,2.8-2.3c11.2-9.7,21.2-20,29.9-30.6c0.1,0.1,0.2,0.2,0.3,0.3
		c-4.7-4.7-9.1-9.6-13-14.6c-2.9-3.8-5.5-8.6-7.8-14.4c-8.6,5.9-17.7,11.5-27.3,16.7C1633.9,2379.3,1629.3,2381.6,1624.8,2383.8z"/>
	<path class="st2" d="M1601.2,2253.7c0-6.3,0.1-13,0.2-19.6C1601.3,2240.7,1601.2,2247.3,1601.2,2253.7z"/>
	<path d="M1672.7,2438.6c-0.2,0.2-0.4,0.4-0.7,0.6c11.5,9.7,23.6,18.3,35.7,25.8c12.1-11,22.7-22.8,31.8-34.8c0.1,0,0.1,0,0.2,0.1
		c-12.1-7.6-23.8-15.7-34.6-24.4C1695.6,2417.2,1684.8,2428.2,1672.7,2438.6z"/>
	<path d="M1604.2,2323c1.8,13.5,5.1,26.1,9.7,38c4.2-2,8.4-4.1,12.6-6.3c11.5-6.2,22.1-13.1,31.9-20.5c-1.5-7.7-2.8-16-3.8-25
		c-6.1,2.3-12.2,4.4-18.6,6.3C1625.3,2318.7,1614.7,2321.1,1604.2,2323z"/>
	<path d="M1601.2,2255.3c0,15.3,0.2,29.7,0.9,42.4c8.9-1.7,17.8-3.7,26.7-6.4c8.2-2.4,16-5.3,23.5-8.4c0,0,0,0.1,0,0.1
		c-0.7-10.3-1.1-21-1.3-32.2c-1.8,0.3-3.5,0.6-5.2,0.9C1630.5,2254.1,1615.6,2255.3,1601.2,2255.3z"/>
	<path class="st2" d="M1602.7,2308.6c-0.1-0.9-0.1-1.9-0.2-2.8C1602.6,2306.7,1602.7,2307.7,1602.7,2308.6z"/>
	<path class="st2" d="M1784.7,2501.7c-0.4-0.1-0.8-0.3-1.2-0.4C1783.9,2501.4,1784.3,2501.6,1784.7,2501.7z"/>
	<path class="st2" d="M1653.3,2296.1c0,0.2,0,0.4,0.1,0.6C1653.4,2296.5,1653.3,2296.3,1653.3,2296.1z"/>
	<path d="M1788,2502.9c11.8,4.1,19.2,6,19.2,6s-39.8,115.6-11.3,129.9c28.5,14.3,71.1-118.5,62.6-138.5c-3.4-8-25.6-19.3-54.2-34
		c3.9,2,7.7,4,11.3,5.9C1807.5,2482.6,1798.3,2493,1788,2502.9z"/>
	<path class="st2" d="M1779.5,2499.8c-0.9-0.3-1.9-0.7-2.9-1.1C1777.7,2499.1,1778.6,2499.5,1779.5,2499.8z"/>
	<path class="st2" d="M1773.8,2497.7c-1.4-0.6-2.8-1.1-4.3-1.7C1771,2496.6,1772.4,2497.1,1773.8,2497.7z"/>
	<path class="st2" d="M1767.2,2495c-1.6-0.7-3.3-1.3-5-2C1763.9,2493.7,1765.5,2494.4,1767.2,2495z"/>
	<path class="st3" d="M1212,1261.7c1.8,17.7,2.1,49.3,19.1,60.4c0,0,0.1,0,0.1,0.1c8-8.4,15.4-17.2,16.9-18.4
		c4.8-3.7,9.8-6.8,14.9-9.7c2.1-71.6-2.8-189.3-70.5-229.5c-35.4-21-106-32.7-136,4.7c-34.7,43.4,19.5,62.4,54.2,61.9
		c0.5,0,0.8,0.1,1.1,0.1c0.1,0,0.2,0,0.3,0c24.5,1.8,24.6,18.4,1.7,24.5c-13.9,3.7-50.3,23.9-28.4,44c19.2,17.7,53.5,9.9,78.2,13.2
		C1196.3,1217.3,1208.6,1228.6,1212,1261.7z"/>
	<path class="st3" d="M1871.4,1330.1c1.2,3.3,2.8,6.4,4.6,9.4c1-13.9,1.8-27.7,5.2-41.1c7.3-29.1,35-35.6,61.9-37
		c25.4-1.3,91.6,6.1,79.3-36.3c-7.6-26.5-24.2-28.7-46.8-37.6c-29-11.4,5.6-27.3,19.7-26.6c31.2,1.7,70.9-6.4,63.6-46.7
		c-3.7-20.4-14.1-36.2-32.5-46.7c-51.5-29.2-127.8-22.7-160.6,31.7c-33.5,55.7-45.1,127.4-46.7,195.8c3.9,2.7,7.7,5.7,11.5,8.7
		C1847,1285.9,1863.4,1307.5,1871.4,1330.1z"/>
	<path class="st4" d="M1091.7,1763.8c10,49.1,28.9,72.1,54.5,114.9c9,15,20.3,26.6,30,40.6c9.2,13.4,71.6,69,95.3,82.8
		c8.5,4.9,48.3,31.9,64,41.4c18.7,6.8,70,40.1,105.3,33.4c9.7-1.8,18.5,2.1,27.2,5.8c10.1,4.2,60.4,11.3,70.6,8.8
		c15.1-3.6,31.4-1.8,47-4c18.8-2.7,13.7,5.4,39.2-2c7.8-2.2,36.1,0.1,43.7-5.7c3.8-3,7.8-6.3,12-8.8c15.3-8.8,35.6-11.1,50.7-18.5
		c23.6-11.6,44.9-29.5,68.5-39.9c17.7-7.8,26.1-28.1,43.6-34.9c12.1-4.7,25.7-14.9,34.9-24.7c10-10.6,13.8-18.3,23.4-28.9
		c5.9-6.5,13.8-15.8,19.3-24.8c9.4-15.3,11.2-27.6,22.7-42c4.8-6,10.1-12.9,16.5-20c6.9-9.4,8.8-21,10.9-30
		c0.5-2.3,34.8-78.9,29-91.6c-5.1-11.2-2.9-18.7-2.2-30.7c2.6-46.3-0.3-92.8-13-137.6c-8.2-29-18.1-58.8-33.2-85
		c-11.3-19.6-21.5-43.3-34.7-61.4c-13.1-18.1-31.1-35.7-47.1-51.2c-8.6-8.4-3.8-15.9-9-26.9c-3.9-8.4-14.8-28.8-23.9-13.1
		c-1.3,2.3-9.1,1.2-11.3-0.7c-12.9-11.7-27.2-22.3-42.7-30.3c-21.4-11-26.2-17.9-42.7-22.7c-4.6-1.4-22.7-11.7-39.3-16.5
		c-21.3-6.2-61.3-14.8-68.2-15.8c-13.8-3.4-38.7-6.3-58.5-6.2c-23.4,0.2-57.9,1.4-82,2.1c-5,0.1-35.1,1.6-60,8.3
		c-17.8,4.8-27,1.3-45.9,12.3c-10.4,6-23.3,8.3-34.5,13.9c-18.6,9.4-40.1,16.1-57.4,28.2c-22.6,15.8-44.8,23.2-63.3,42
		c-7.8,7.9-15.4,13.3-23.6,21.1c-19.1,18.2-21.2,26.3-32.9,39.9c-15.2,17.8-36.4,42-44.9,64.1c-13.1,34-30.5,66.7-39,102.6
		c-0.4,1.6-6.9,29.8-7.5,35.6c-1.8,16.3-4,32.5-4.3,48.9l0.6,45.4c0,0,1,27,1,39s0,12,0,12S1088.4,1747.7,1091.7,1763.8z
		 M1319.2,1677.6c-19.4,0-35.1-15.8-35.1-35.2c0-19.4,15.7-35.2,35.1-35.2c19.3,0,35.1,15.7,35.1,35.2
		C1354.3,1661.9,1338.6,1677.6,1319.2,1677.6z M1565,1762c0,0-21.2,25.9-47,25c-29.3-1-42.8-26.4-42.8-26.4s-16.2,26.9-57.9,0
		c-44.3-28.6,9.1-235.9,107.9-231.1C1624,1534.4,1629,1729,1629,1729C1633.5,1788.6,1565,1762,1565,1762z M1736.5,1645.4
		c0,19.4-15.7,35.2-35.1,35.2c-19.4,0-35.1-15.8-35.1-35.2c0-19.4,15.7-35.2,35.1-35.2C1720.8,1610.2,1736.5,1626,1736.5,1645.4z"/>
	<path class="st5" d="M1451.6,2627.6c-2.7,0-5.3-0.1-7.9-0.2c0,2.8,0,5.4,0,8.1c0,5,0.1,9.8,0.1,14.1h0c2.6,0.1,5.2,0.2,7.8,0.2
		c12.7,0,25.1-0.9,36.9-2.7l0,0c-0.3-2.5-0.7-5.2-1-7.9c-0.2-1.3-0.3-2.5-0.5-3.8c-0.3-2.8-0.7-5.8-1-8.8c0-0.6-0.1-1.1-0.2-1.7
		C1474.9,2626.6,1463.4,2627.6,1451.6,2627.6z"/>
	<path class="st5" d="M1454.1,2567.6c-3.6,0-7.2-0.1-10.7-0.2c0,4.5,0,8.8,0,13.1c0,3,0,6.1,0,9h0c3.5,0.1,7,0.3,10.6,0.3
		c9.9,0,19.5-0.6,28.9-1.7v0c-0.3-5.6-0.5-11.4-0.7-17.5c0-1.5-0.1-3.1-0.1-4.8C1473.1,2567,1463.7,2567.6,1454.1,2567.6z"/>
	<path class="st5" d="M1443.3,2507.3L1443.3,2507.3c0,3.9,0,7.8,0,11.7c0,3.5,0,7.1,0,10.6c4.4,0.2,8.8,0.3,13.3,0.3
		c8.9,0,17.6-0.5,26.1-1.3c0-0.7,0-1.5,0.1-2.2c0.2-6.4,0.4-13.1,0.7-20.3l0,0c-8.7,1-17.7,1.6-26.9,1.6
		C1452.1,2507.7,1447.7,2507.6,1443.3,2507.3z"/>
	<path class="st5" d="M1459.1,2447.8c-5.3,0-10.6-0.2-15.8-0.6l0,0c0,7.3,0,14.7,0,22.2h0c5.2,0.3,10.4,0.5,15.8,0.5
		c8.8,0,17.5-0.4,25.9-1.3h0c0.3-6.6,0.6-13.5,1-20.5c0-0.7,0.1-1.4,0.1-2.1C1477.3,2447.2,1468.3,2447.8,1459.1,2447.8z"/>
	<path class="st5" d="M1443.7,2387.2L1443.7,2387.2c0,2.7,0,5.6-0.1,8.4c0,2.1,0,4.2,0,6.4c0,2.5,0,4.9,0,7.5h0
		c5.9,0.4,11.9,0.7,18.1,0.7c9,0,17.9-0.5,26.4-1.4c0.2-3.3,0.4-6.7,0.6-10.1c0.2-4.1,0.5-8.2,0.7-12.4l0,0
		c-9,1.1-18.2,1.7-27.7,1.7C1455.5,2387.9,1449.5,2387.6,1443.7,2387.2z"/>
	<path class="st5" d="M1444.8,2327.1L1444.8,2327.1c0,0.5,0,0.9-0.1,1.3c-0.1,2.3-0.1,4.5-0.2,6.7c-0.1,2-0.1,3.9-0.2,5.9
		c-0.1,1.8-0.1,3.5-0.1,5.2c0,1-0.1,2-0.1,3l0,0c6.5,0.5,13.1,0.8,19.9,0.8c9.4,0,18.5-0.5,27.4-1.5l0,0c0.4-7.4,0.9-15,1.3-22.5h0
		c-9.3,1.2-18.9,1.9-28.7,1.9C1457.5,2328,1451.1,2327.7,1444.8,2327.1z"/>
	<path class="st5" d="M1466.6,2268c-6.4,0-12.8-0.3-19-0.8l0,0c0,0.5,0,0.9-0.1,1.4c-0.3,6.1-0.7,12.1-1,18c0,0.9-0.1,1.8-0.1,2.7
		l0,0c6.6,0.5,13.3,0.8,20.2,0.8c9.8,0,19.3-0.6,28.5-1.6c0.1-1.1,0.1-2.1,0.2-3.2c0.3-4.6,0.6-9.3,0.9-13.9
		c0.1-1.8,0.2-3.6,0.3-5.4C1486.8,2267.4,1476.8,2268,1466.6,2268z"/>
	<path class="st5" d="M1761.8,2492.8C1761.8,2492.8,1761.7,2492.8,1761.8,2492.8c0.1,0.1,0.3,0.1,0.4,0.2c1.7,0.7,3.4,1.4,5,2
		c0.8,0.3,1.6,0.7,2.3,0.9c1.5,0.6,2.9,1.2,4.3,1.7c0.9,0.4,1.9,0.7,2.8,1.1c1,0.4,1.9,0.7,2.9,1.1c1.4,0.5,2.7,1,4,1.5
		c0.4,0.2,0.8,0.3,1.2,0.4c1.1,0.4,2.3,0.8,3.3,1.2c0,0,0,0,0,0c10.3-9.9,19.5-20.2,27.6-30.8c-3.6-1.9-7.4-3.8-11.3-5.9
		c-3.6-1.9-7.3-3.8-11.1-5.8c-0.2-0.1-0.4-0.2-0.5-0.3C1783.7,2471.6,1773.4,2482.5,1761.8,2492.8z"/>
	<path class="st5" d="M1707.7,2465C1707.7,2465,1707.7,2465,1707.7,2465c0.3,0.2,0.7,0.4,1,0.6c7.1,4.4,14.2,8.4,21.1,12.1
		c0.3,0.1,0.5,0.3,0.8,0.4c0,0,0,0,0,0c11.7-11.2,21.9-22.9,30.8-34.9l0,0c-7.3-4.1-14.5-8.5-21.8-13c-0.1-0.1-0.1-0.1-0.2-0.1
		C1730.5,2442.2,1719.8,2454,1707.7,2465z"/>
	<path class="st5" d="M1656.3,2419.5c-0.9,0.8-1.8,1.5-2.8,2.3c0,0,0,0,0,0c0.5,0.6,1.1,1.1,1.7,1.6c1.8,1.9,3.7,3.7,5.6,5.5
		c1,1,2,1.9,3.1,2.9c2.1,1.9,4.2,3.8,6.3,5.6c0.7,0.6,1.3,1.1,1.9,1.7c0,0,0,0,0,0c0.2-0.2,0.4-0.4,0.7-0.6
		c12.1-10.4,22.9-21.4,32.4-32.8l0,0c-6.6-5.3-12.8-10.9-18.6-16.7c-0.1-0.1-0.2-0.2-0.3-0.3
		C1677.5,2399.5,1667.4,2409.8,1656.3,2419.5z"/>
	<path class="st5" d="M1613.9,2361C1613.8,2361,1613.8,2361,1613.9,2361c0.3,1,0.8,1.9,1.2,2.9c0.9,2.3,1.9,4.6,2.9,6.8
		c0.7,1.5,1.5,3,2.2,4.5c1.1,2.2,2.2,4.4,3.4,6.5c0.4,0.7,0.7,1.4,1.1,2.1c0,0,0,0,0.1,0c4.5-2.1,9.1-4.4,13.6-6.9
		c9.6-5.2,18.8-10.8,27.3-16.7l0,0c-2.9-7.3-5.3-16-7.3-26l0,0c-9.8,7.4-20.5,14.3-31.9,20.5C1622.3,2356.9,1618.1,2359,1613.9,2361
		z"/>
	<path class="st5" d="M1628.8,2291.3c-8.9,2.7-17.9,4.8-26.7,6.4h0c0.1,2.8,0.3,5.4,0.5,8.1c0.1,0.9,0.1,1.9,0.2,2.8
		c0.3,3.6,0.6,7.1,0.9,10.4c0.2,1.4,0.3,2.7,0.5,4.1c0,0,0.1,0,0.1,0c10.5-1.9,21.1-4.4,31.8-7.6c6.4-1.9,12.5-4,18.6-6.3l0,0
		c-0.5-4-0.9-8.2-1.2-12.5c0-0.2,0-0.4-0.1-0.6c-0.4-4.3-0.7-8.6-1-13.1c0,0,0,0,0-0.1C1644.8,2286,1637,2288.8,1628.8,2291.3z"/>
	<path class="st5" d="M1601.5,2229.9L1601.5,2229.9c0,1.4,0,2.8-0.1,4.2c-0.1,6.7-0.2,13.3-0.2,19.6c0,0.5,0,1.1,0,1.6l0,0
		c14.4,0,29.3-1.1,44.6-3.6c1.8-0.3,3.5-0.6,5.2-0.9l0,0c-0.2-8.3-0.2-16.9-0.2-25.6l0,0c-3,0.6-5.9,1.1-9,1.6
		C1628.1,2228.9,1614.6,2229.9,1601.5,2229.9z"/>
	<path class="st6" d="M1524.7,1539.1c-92-4.5-137.7,188.9-100.5,216c37.4,27.2,49.8-2.1,49.8-2.1s16.7,25.9,44,27
		c27.3,1.1,45-22,45-22s61.2,24.7,57-31C1620,1727,1616.8,1543.6,1524.7,1539.1z"/>
	<path class="st7" d="M1666.3,1645.4c0,19.4,15.7,35.2,35.1,35.2c19.4,0,35.1-15.8,35.1-35.2c0-19.4-15.7-35.2-35.1-35.2
		C1682,1610.2,1666.3,1626,1666.3,1645.4z M1717.3,1645.4c0,8.8-7.1,15.9-15.9,15.9c-8.8,0-15.9-7.1-15.9-15.9c0-8.8,7.1-16,15.9-16
		C1710.1,1629.4,1717.3,1636.6,1717.3,1645.4z"/>
	<path class="st2" d="M1685.5,1645.4c0,8.8,7.1,15.9,15.9,15.9c8.8,0,15.9-7.1,15.9-15.9c0-8.8-7.1-16-15.9-16
		C1692.6,1629.4,1685.5,1636.6,1685.5,1645.4z"/>
	<path class="st7" d="M1319.2,1607.2c-19.4,0-35.1,15.7-35.1,35.2c0,19.5,15.7,35.2,35.1,35.2c19.3,0,35.1-15.8,35.1-35.2
		C1354.3,1623,1338.6,1607.2,1319.2,1607.2z M1319.2,1658.4c-8.8,0-15.9-7.2-15.9-16c0-8.8,7.1-15.9,15.9-15.9
		c8.8,0,15.9,7.2,15.9,15.9C1335.1,1651.2,1328,1658.4,1319.2,1658.4z"/>
	<path class="st2" d="M1319.2,1627.9c-8,0-14.5,6.5-14.5,14.6c0,8,6.5,14.6,14.5,14.6c8,0,14.5-6.5,14.5-14.6
		C1333.7,1634.4,1327.2,1627.9,1319.2,1627.9z"/>
</g>
<g>
	<g>
		<path class="st8" d="M1466,1851.9c-31.3,3.3-51.8,18.5-49.6,44.8c1.8,22,12.7,36.9,48.9,41.9c2.4,0.3,4.9,0.6,7.4,0.7
			c43.7,2,57.3-27.7,57.6-48.4C1530.6,1860.6,1496.3,1848.7,1466,1851.9z"/>
	</g>
</g>
<g>
	<path class="st2" d="M1464.7,1861.2c-18.5,1.8-37,7.3-37.9,34.3c-0.4,13.9,11.1,28.4,32.2,32.8c1.4,0.3,2.9,0.5,4.3,0.7
		c25.6,2.4,39.8-19.9,40.8-35.4C1505.6,1871,1482.7,1859.4,1464.7,1861.2z"/>
</g>
<path class="st9" d="M1894.9,1648.1"/>
<path class="st0" d="M1958.7,1768.3c0,0,24.8-35.8,44.1-46.8c50.7-29,132.3-82.7,132.3-82.7c70.3-66.1,121-132.8,131-226.8
	c1.6-15.4,20.3-27.8,21.1-43.3c1.6-31,3.4-83.4-24.1-83.7c-3.8,0-60.5-1.2-73,16c-8,11-12,21-15,47c-1.6,13.8,3.6,39.9,23,35
	c16-4,11.5-40,17-40c5,0-19,49-9,76c-17,87-94.1,183.4-183.9,217.1c-21.3,8-82,11-82,11"/>
</svg>
