<?xml version="1.0" encoding="utf-8"?>
<!-- Generator: Adobe Illustrator 21.1.0, SVG Export Plug-In . SVG Version: 6.00 Build 0)  -->
<svg version="1.1" id="Layer_1" xmlns="http://www.w3.org/2000/svg" xmlns:xlink="http://www.w3.org/1999/xlink" x="0px" y="0px"
	 viewBox="0 0 1756.3 2249.8" style="enable-background:new 0 0 1756.3 2249.8;" xml:space="preserve">
<style type="text/css">
	.st0{fill:#F7921E;}
	.st1{fill:#FFFFFF;}
	.st2{fill:#FFFFFF;stroke:#FFFFFF;stroke-width:5;stroke-miterlimit:10;}
	.st3{opacity:0.1;}
</style>
<g>
	<path d="M994.7,2013.6c0.1-0.4,0.1-0.8,0.2-1.2c-4.7-6.9,1.5-237-13.5-391.4c-15-154-78-178.9-72.8-182.2
		c-5.7-2.1,0.3,143.9-10.1,276.4c-15.9,98.2-47.1,213.8-65.7,254.7c-13.4,27.1-58.7,62.7-96.7,63.6c-43.7,1-51.2-46.6-87.7-54.6
		c-52.6-11.5-60.7,61-44.3,94.5c31.6,64.8,124.3,90.9,190.7,80.4c51.5-8.2,84.6-38.8,111.2-81.3c1.1,24.8-2.6,50.1-0.8,74.8
		c30.5,0.8,61.7,4.7,92,3.2C998.3,2098,1004,2057.4,994.7,2013.6z"/>
	<path d="M1459.5,1978.8c-36.6,8-44,55.7-87.7,54.6c-49.1-1.2-78.4-54.5-94.8-87c-13.6-35.4-37.6-176-44.3-300.5
		c-10.8-171.3-26.1-342.1-27.4-341.5c1.2,0.7-25.3,166.6-56.6,337.8c-27.5,139.5-38.5,300.7-37.3,362c-6.3,47.6-1.7,98.3-0.7,146.1
		c30.3,1.5,61.5-2.4,92-3.2c1.8-24.6-1.9-49.9-0.8-74.8c26.7,42.5,59.8,73.1,111.2,81.3c66.4,10.5,159-15.6,190.7-80.4
		C1520.2,2039.8,1512.1,1967.3,1459.5,1978.8z"/>
	<g>
		<path class="st0" d="M1682.2,1042.3L1682.2,1042.3c6.9-14.7,16.2-30.6,26-47.5c5.4-9.3,11-18.8,16.4-28.5
			c14.1-25.8,29.4-55.9,31.5-88.2c0.3-5.1,0.2-10.2-0.2-15.1c-2.3-25.3-11.9-51.2-28.7-76.9c-21.9-33.6-55.4-65.4-94.2-89.5
			c-40.5-25-82.4-39.5-121.3-41.9c-3.8-0.2-7.5-0.3-11.2-0.3c-60.2-132.1-140-253.1-241.5-341c-199.9-173.1-505.6-121.7-623,108.3
			C590,512,548.6,619.8,517.1,733.2c-1.1,1.3-2.1,2.7-3,4.1c-18.8,31.1-37.8,57.5-56.5,78.8c-23.8,27.1-47.9,46.5-71.4,57.6
			c-17.2,8.1-33.9,11.8-50.8,11.3c-11.7-0.4-22.6-2.4-33.1-6.1c-18.9-6.7-36.1-18.8-52.6-37.1c-14.3-15.9-28.2-36.9-41.2-62.5
			c-13.7-27-25.9-45.7-39.4-60.5c-15.5-17.1-34.1-29.5-55.1-36.9c-22.1-7.8-47.8-11.1-83.4-10.7c-8.3,0.1-16.2,3.4-22,9.4
			c-5.8,6-9,13.9-8.9,22.2c0.2,17.1,14.2,30.9,31.3,30.9c0.1,0,0.2,0,0.3,0c27.5-0.3,47.2,1.9,61.7,7.1c12,4.3,20.7,10.2,29.8,20.1
			c9.5,10.3,18.9,25.2,29.8,46.7c15.7,30.8,32.2,55.7,50.4,76c23.2,25.8,49.5,44,78.1,54.2c16.5,5.9,34,9.1,52.1,9.7
			c1.7,0.1,3.3,0.1,5,0.1c25,0,50.1-5.8,74.5-17.4c21.8-10.4,43.5-25.5,64.5-44.9c1.7-1.6,3.4-3.2,5-4.8
			c-27.3,143-36.3,286.6-17.4,408.3c19.4,124.9,70.9,255.2,180.1,330.2c192,132,497.6,164.8,685,87c171-71,339-228,311-519
			c-1.4-14.5-3-29.3-4.9-44.3c1.4,1.2,2.8,2.4,4.2,3.6c13.2,10.4,30,18.6,51.3,25c3,0.9,6,1.3,9,1.3c5.1,0,10.2-1.3,14.8-3.8
			c7.4-4,12.7-10.6,15.1-18.6c4.9-16.5-4.5-34-21-38.9c-22.3-6.6-31.1-14.1-34.5-18c-1.8-2.1-3-4.1-3.7-6.5c-0.8-2.5-1-5.4-0.8-8.9
			C1671.2,1071.9,1673.4,1060.7,1682.2,1042.3z M1654.5,963c-4.8,8.3-9.8,16.8-14.6,25.3c-9.3,16.6-15.6,29.3-20.4,41.4
			c-0.2,0.6-0.5,1.2-0.7,1.8c-19.6-101.8-49.3-208.9-90.2-311.5c32.9,6.9,69.9,25.3,100.8,50.8c18.5,15.2,34.3,32.4,45.4,49.5
			c11,16.8,17.5,33.5,18.8,48.3c0.2,1.9,0.2,3.8,0.1,5.9c-0.5,9.6-4.5,22.7-11.6,37.8C1674.8,928.1,1664.9,945,1654.5,963z"/>
	</g>
	<path d="M1259.1,313.4c-199.9-173.1-505.6-121.7-623,108.3C608.3,476.1,582.2,537,559,601.5c302.8-9.6,605.5-32.4,908.3-21.2
		C1409.9,477.9,1341.6,384.9,1259.1,313.4z"/>
	<path class="st1" d="M1077.4,988c11-1.6,26.2-9,32.9-16.3c-28.2,3-52.1,3-78.1,3.7C1041.9,984.9,1053.7,991.9,1077.4,988z"/>
	<path class="st1" d="M1143.2,1062.2c14.3-3.8,29.2-12,35.5-20.7c-27.8,6.5-62.3,11.1-93.6,12.5
		C1094.7,1063,1114.1,1069.6,1143.2,1062.2z"/>
	<path class="st1" d="M1076.6,880.1c-43.8,1.8-87,2.1-129.7,0.4C970.6,916.7,1046.2,914.5,1076.6,880.1z"/>
	<path class="st1" d="M721.6,857.3c15.7,16.4,51.9,12.2,71,1c-30.2-8.2-57.3-21.3-70.9-34.3C715.8,833.7,710.8,846.7,721.6,857.3z"
		/>
	<path class="st1" d="M918.1,884.5c-36.3-2.5-72.1-6.8-105.6-14.2C831.9,910.3,887.7,918.3,918.1,884.5z"/>
	<path class="st1" d="M1033.3,930.9c-40,0.7-79.9,0.1-119.6-2.6C937.2,959.7,997.6,952.5,1033.3,930.9z"/>
	<path class="st1" d="M879.2,926.5c-42.3-4.4-84.5-11.7-123.7-25.6C775.5,936.5,849.8,951.7,879.2,926.5z"/>
	<path class="st1" d="M798.8,952.2c-38.9-8.6-78.5-20.4-115.2-44.5C693.9,946.3,776.2,972.5,798.8,952.2z"/>
	<path class="st1" d="M972.2,973.7c-36.8-0.8-73.8-2.9-110.9-7.3C886.1,990,939.9,991.1,972.2,973.7z"/>
	<path class="st1" d="M883.6,1005.1c-36.3-3.4-73-8.4-110.6-17.6C795.3,1016.8,848.5,1023.9,883.6,1005.1z"/>
	<path class="st1" d="M1192.4,860.3c-32,8.7-62.3,16-90.6,19.3C1125.3,900.4,1168.9,889.4,1192.4,860.3z"/>
	<path class="st1" d="M975.9,854.6c-31.9-0.6-63.4-2.4-93.8-5.7C901.9,874.1,946.1,875.7,975.9,854.6z"/>
	<path class="st1" d="M868.2,823.5c-28.6-3.9-55.9-9.6-77.5-17.1C798.5,833.8,838.8,841.7,868.2,823.5z"/>
	<path class="st1" d="M1075.2,816.8c-32.4,1.3-64,1.8-95.1,1.3C1002.5,841.5,1046.2,839.6,1075.2,816.8z"/>
	<path class="st1" d="M1067.7,1013.4c-35.2,1.2-70.6,1.5-106.4,0.6C987,1037.6,1036.2,1036.2,1067.7,1013.4z"/>
	<path class="st1" d="M965.2,1052.2c-36.7-0.9-74-3.1-112.2-7.6C878.6,1070.9,931.1,1073.2,965.2,1052.2z"/>
	<path class="st1" d="M1274.1,973c-31.3,8.2-64.9,18.5-101.7,26.5C1205.5,1016.1,1251.7,1001.1,1274.1,973z"/>
	<path class="st1" d="M1323.2,875c-34.9,5.8-68.3,15-101.1,24C1252.8,914.2,1294.8,901.2,1323.2,875z"/>
	<path class="st1" d="M1224,809.8c-34.5,9.2-66,18.8-93.5,24.3C1155.4,852.6,1197.7,839.2,1224,809.8z"/>
	<path class="st1" d="M1183.9,918.4c-40.5,10.8-80.7,17.3-122.6,17.8C1093.1,960.8,1162.7,950,1183.9,918.4z"/>
	<path class="st2" d="M1108.3,383.1c-1.8,9.6-2.6,18.5-2.6,26.7c0,23.7,7,42,17.9,54.3c10.9,12.3,25.8,18.5,40.5,18.5
		c14.9,0,29.8-6.2,40.9-18.3c11.1-12.1,18.2-30,18.2-52.7c0-4.4-0.3-8.9-0.8-13.7c-0.3-3-3-5.1-6-4.8c-3,0.3-5.1,3-4.8,6
		c0.5,4.4,0.7,8.5,0.7,12.4c0,20.5-6.3,35.5-15.4,45.4c-9.1,9.9-21,14.8-32.9,14.8c-11.8,0-23.5-4.8-32.4-14.8
		c-8.9-10-15.2-25.4-15.2-47.1c0-7.5,0.8-15.7,2.4-24.7c0.5-2.9-1.4-5.8-4.3-6.3C1111.7,378.2,1108.8,380.1,1108.3,383.1
		L1108.3,383.1z"/>
	<path class="st2" d="M720.7,388.8c-1.8,9.6-2.6,18.5-2.6,26.7c0,23.7,7,42,17.9,54.3c10.9,12.3,25.8,18.5,40.5,18.5
		c14.9,0,29.8-6.2,40.9-18.3c11.1-12.1,18.2-30,18.2-52.7c0-4.4-0.3-8.9-0.8-13.7c-0.3-3-3-5.1-6-4.8c-3,0.3-5.1,3-4.8,6
		c0.5,4.4,0.7,8.5,0.7,12.4c0,20.5-6.3,35.5-15.4,45.4c-9.1,9.9-21,14.8-32.9,14.8c-11.8,0-23.5-4.8-32.4-14.8
		c-8.9-10-15.2-25.4-15.2-47.1c0-7.5,0.8-15.7,2.4-24.7c0.6-2.9-1.4-5.8-4.3-6.3C724,383.9,721.2,385.8,720.7,388.8L720.7,388.8z"/>
	<path d="M1147.9,164.8c8.7-40.5,19.5-83.8,31.7-123.8c-47.6-14.8-88.2-27-145.3-41c-6.9,48-13.4,82.5-18.9,130c-32-1-64-3-95.3-5.1
		c1.7,15.6,1.9,32.2,3,48.5c99,0,214.3,9.7,302.5,64.8c6.8-15.2,11.8-26.2,17.8-38.2C1225.3,192,1183.6,173.3,1147.9,164.8z"/>
	<g>
		<path class="st0" d="M862.4,331.9l15-16c57.7,50.7,58.7,147-0.7,196.2c-55.1,51.5-150.7,51.3-205.3-1
			c-58.3-49.7-56.9-147.1,2.2-195.4c55.4-50.8,151-50.5,205.3,2.4l-15,16c-45.8-45-128.9-45.3-175.7-2
			c-49.7,41.2-50.8,120.6-1.9,162.9c46.1,44.6,129.2,44.7,175.7,0.9C911.9,453.8,911.1,375.6,862.4,331.9z"/>
		<path class="st0" d="M1277.8,410.5l21.9-0.7c5,76.6-62.5,145.5-139.2,138.2c-75.4-2.6-142.8-70.3-144.4-145.9
			c-6.1-76.4,63.7-144.2,139.8-136.6c75.1,3.3,142.5,71.1,143.5,146.8l-21.9,0.7c-0.6-64.2-59.1-123.1-122.9-125.6
			c-64.2-6-121.2,49.3-116.5,113.8c1.1,64.1,59.7,122.9,123.6,124.8C1226.6,531.7,1281.4,475.9,1277.8,410.5z"/>
		<path class="st0" d="M921.1,418.6c7.1-19.4,26.5-32.4,48.8-32.6l0.5,0c13.2,0,22.9,5.2,31.5,13.3c8.5,8.1,15.5,19.2,21.8,30.1
			l9.4-5.4c-6.4-11.1-13.8-23.1-23.7-32.6c-9.8-9.5-22.7-16.4-39-16.3l-0.6,0c-26.4,0.2-50.1,15.7-58.9,39.7L921.1,418.6z"/>
	</g>
	<path d="M1179.6,44.8c-45.3-15.9-88.3-26.7-145.5-40.6"/>
	<ellipse class="st3" cx="1060.8" cy="2144.2" rx="661.5" ry="105.6"/>
	<path class="st1" d="M1010.9,596.9c33.3-55.4,103.2-23.6,122.6,34c16.8,50.2,71.9,140.4,134.5,75c-39.6,53.9-98.7,92.7-167.9,72.5
		c-66.8-19.4-123.2-94.6-96.9-165.3C1005.4,607.1,1008,601.7,1010.9,596.9z"/>
	<path class="st1" d="M1023.3,583.3c-15.6-41.3-68.7-47.6-120.2-25.3c-23.8,10.3-72.8,25.7-100,24.5c-16.4-0.7-61.9-19.2-54.8-44
		c-13,44.8,3.5,103.1,34.8,136.3c65.1,69.3,166.8,52.2,220.6-19.9C1025.8,625.2,1030.1,601.3,1023.3,583.3z"/>
</g>
</svg>
