<?xml version="1.0" encoding="utf-8"?>
<!-- Generator: Adobe Illustrator 21.1.0, SVG Export Plug-In . SVG Version: 6.00 Build 0)  -->
<svg version="1.1" id="Layer_1" xmlns="http://www.w3.org/2000/svg" xmlns:xlink="http://www.w3.org/1999/xlink" x="0px" y="0px"
	 viewBox="0 0 3000 3000" style="enable-background:new 0 0 3000 3000;" xml:space="preserve">
<style type="text/css">
	.st0{fill:none;}
	.st1{fill:#391D3A;}
	.st2{fill:#46E21F;stroke:#391D3A;stroke-width:20;stroke-miterlimit:10;}
	.st3{fill:#7473BF;}
	.st4{fill:#46E21F;}
	.st5{fill:#F9F9F9;}
</style>
<g>
	<path class="st0" d="M832,1878.2c-10.5,2.7-23.1,4.5-37.8,5C805.3,1885.6,818,1884.3,832,1878.2z"/>
	<path class="st1" d="M1385.2,2086c0.4-8.6,0.9-17.3,1.4-26.2C1386.1,2068.7,1385.6,2077.4,1385.2,2086z"/>
	<path class="st1" d="M1443.9,2592.2c0.2,1.9,0.4,3.7,0.7,5.6C1444.4,2595.9,1444.2,2594.1,1443.9,2592.2z"/>
	<path class="st1" d="M1414.2,2091.2c-10,0-19.7-0.5-29.3-1.2c-1,19.4-1.8,37.8-2.4,54.8c9.2,0.8,18.5,1.2,28,1.2
		c14.3,0,28.2-1,41.6-2.7c1.2-19.6,2.4-39.4,3.6-59.1c-0.1,1.6-0.2,3.1-0.3,4.7C1442.2,2090.3,1428.4,2091.2,1414.2,2091.2z"/>
	<path class="st1" d="M1380.8,2253.3c0-3.1,0.1-6.2,0.1-9.3C1380.8,2247.1,1380.8,2250.2,1380.8,2253.3z"/>
	<path class="st1" d="M1381.8,2172.6c0-2.5,0.1-5,0.2-7.6C1381.8,2167.6,1381.8,2170.1,1381.8,2172.6z"/>
	<path class="st1" d="M1382.2,2156.5c0.1-3.2,0.2-6.5,0.3-9.8C1382.4,2150,1382.3,2153.3,1382.2,2156.5z"/>
	<path class="st1" d="M1407,2265.2c-8.9,0-17.6-0.4-26.3-1c-0.1,17.7-0.2,36.1-0.2,55c7.5,0.5,15.2,0.8,22.9,0.8
		c13.4,0,26.5-0.9,39.2-2.4c0,1-0.1,2-0.1,3c1.1-22.9,2.4-47,3.8-72c-0.3,4.9-0.6,9.8-0.8,14.7
		C1432.9,2264.5,1420.1,2265.2,1407,2265.2z"/>
	<path class="st1" d="M1381.2,2612.9c0.2,32.7,0.4,52.9,0.4,52.9s-164.9,11.4-153.1,41.9c11.8,30.4,197.3,7.6,219.2,0
		c14.8-5.2,6.5-36.5-1.5-98.4c-17.1,2.6-35,3.9-53.5,3.9C1388.7,2613.1,1384.9,2613,1381.2,2612.9z"/>
	<path class="st1" d="M1381.7,2176.9c0,2.5-0.1,5.1-0.1,7.4c-0.2,14.7-0.4,30.7-0.6,47.6c8.5,0.7,17.2,1.1,26,1.1
		c13.7,0,27.1-0.9,40.2-2.5c1-17.8,2-36,3.1-54.5c-12.9,1.4-26.1,2.1-39.7,2.1C1400.7,2178.1,1391.1,2177.7,1381.7,2176.9z"/>
	<path class="st1" d="M1380.4,2351.4c0,18.3,0,36.7,0,55c6.4,0.4,12.8,0.6,19.3,0.6c13.3,0,26.3-0.9,39-2.4
		c0.6-16.8,1.4-35,2.3-54.3c-12.2,1.3-24.8,1.9-37.6,1.9C1395.6,2352.2,1388,2351.9,1380.4,2351.4z"/>
	<path class="st1" d="M1396.1,2526.2c-5.2,0-10.3-0.2-15.4-0.4c0.1,24.5,0.2,47.1,0.3,66.6c0-3.8,0-7.6,0-11.7
		c3.8,0.2,7.6,0.3,11.5,0.3c17.2,0,33.8-1.4,49.8-4c0.1,0.8,0.2,1.6,0.3,2.4c-1.8-16.9-3.4-35.3-4.4-55.8v0
		C1424.5,2525.3,1410.5,2526.2,1396.1,2526.2z"/>
	<path class="st1" d="M1399.7,2439.2c-6.5,0-12.9-0.2-19.3-0.5c0-5.1,0-10.2,0-15.3c0,31,0.1,61.3,0.2,89.4c0-6.3-0.1-12.6-0.1-19.1
		c5.1,0.2,10.3,0.3,15.5,0.3c14,0,27.6-0.9,40.8-2.6c0,2.4,0.1,4.8,0.1,6.9c-0.4-14.9-0.1-36.9,0.7-64.3c0,1-0.1,2.2-0.1,3.2
		C1425.3,2438.5,1412.7,2439.2,1399.7,2439.2z"/>
	<path class="st1" d="M1438.7,1804.2c-10.9,2-22.6-2.5-34.2-7.1c-6.2,80.3-13.2,177-17.9,260.8c9,0.8,18.2,1.2,27.6,1.2
		c14.8,0,29.4-1,43.4-2.9c-0.2,2.6-0.3,5.2-0.5,7.8c5.7-90.9,11.7-181.2,16.8-255.6C1462.4,1805.3,1450.9,1801.9,1438.7,1804.2z"/>
	<path class="st1" d="M1696.1,2292.6c-2.7-2.6-5.4-5.3-8.1-8C1690.6,2287.4,1693.3,2290,1696.1,2292.6z"/>
	<path class="st1" d="M1642.1,2223.9c-1.7-3.1-3.3-6.2-4.9-9.4C1638.8,2217.7,1640.4,2220.9,1642.1,2223.9z"/>
	<path class="st1" d="M1634,2208c-1.5-3.2-2.9-6.5-4.3-9.9C1631.1,2201.4,1632.5,2204.7,1634,2208z"/>
	<path class="st1" d="M1842.8,2385.3c16.9-14.9,31.9-30.8,44.9-47.3c0.2,0.1,0.5,0.3,0.8,0.4c-14.8-7.7-30.4-16.1-46.1-25
		c-12.9,17.4-27.8,34.4-44.7,50.7C1813.5,2372.4,1828.8,2379.4,1842.8,2385.3z"/>
	<path class="st1" d="M1709.6,2305c-3-2.7-6.1-5.4-9.1-8.1C1703.5,2299.6,1706.6,2302.3,1709.6,2305z"/>
	<path class="st1" d="M1683.6,1800.4c-22.9-5.2-42,0.4-64.1,3.9c-4.5,66.1-8.3,136.7-9.5,199.2c19.1,0.1,38.7-1.3,58.7-4.4
		c4.4-0.7,8.7-1.5,13-2.4c0.2-63.5,3.8-132.3,8.7-196.3C1688,1800.8,1685.7,1800.8,1683.6,1800.4z"/>
	<path class="st1" d="M1796.4,2363.4c-10.1-5.4-20.4-11.2-30.7-17.6C1776.1,2352.2,1786.4,2358.1,1796.4,2363.4z"/>
	<path class="st1" d="M1643.9,2227c11.7,20.3,25.9,38.7,41.7,55.2c1.4-1.1,2.7-2.2,4-3.3c16.2-14,30.8-29,43.4-44.5
		c0.2,0.1,0.3,0.3,0.5,0.4c-6.8-6.9-13.2-14-18.9-21.3c-4.3-5.5-8-12.5-11.3-20.8c-12.5,8.6-25.7,16.7-39.7,24.3
		C1657.1,2220.5,1650.5,2223.9,1643.9,2227z"/>
	<path class="st1" d="M1609.7,2038.1c0-9.2,0.1-18.8,0.3-28.5C1609.8,2019.3,1609.7,2028.9,1609.7,2038.1z"/>
	<path class="st1" d="M1713.4,2306.6c-0.3,0.2-0.6,0.5-1,0.8c16.7,14.2,34.3,26.6,51.9,37.5c17.5-16,33-33,46.1-50.6
		c0.1,0,0.2,0.1,0.3,0.2c-17.5-11-34.5-22.8-50.2-35.5C1746.7,2275.5,1731,2291.4,1713.4,2306.6z"/>
	<path class="st1" d="M1614,2138.8c2.5,19.6,7.4,38,14,55.1c6.2-2.9,12.2-5.9,18.3-9.1c16.6-9,32.1-19,46.4-29.8
		c-2.2-11.1-4.1-23.3-5.6-36.3c-8.8,3.3-17.8,6.4-27,9.1C1644.6,2132.5,1629.2,2136.1,1614,2138.8z"/>
	<path class="st1" d="M1609.6,2040.5c0,22.3,0.4,43.1,1.3,61.6c12.9-2.4,25.8-5.4,38.8-9.3c11.8-3.5,23.2-7.6,34.2-12.2
		c0,0.1,0,0.1,0,0.1c-0.9-14.9-1.5-30.5-1.9-46.7c-2.5,0.5-5.1,0.9-7.6,1.3C1652.2,2038.8,1630.6,2040.5,1609.6,2040.5z"/>
	<path class="st1" d="M1611.9,2117.9c-0.1-1.3-0.2-2.8-0.3-4.1C1611.7,2115.2,1611.8,2116.6,1611.9,2117.9z"/>
	<path class="st1" d="M1876.1,2398.3c-0.6-0.2-1.2-0.4-1.8-0.6C1874.9,2397.8,1875.5,2398.1,1876.1,2398.3z"/>
	<path class="st1" d="M1685.3,2099.7c0,0.3,0.1,0.6,0.1,0.9C1685.4,2100.3,1685.4,2100,1685.3,2099.7z"/>
	<path class="st1" d="M1880.9,2399.9c17.2,5.9,27.9,8.7,27.9,8.7s-57.8,167.9-16.4,188.6c41.4,20.8,103.3-172,90.9-201
		c-5-11.6-37.1-28-78.7-49.4c5.7,2.9,11.1,5.8,16.4,8.5C1909.2,2370.6,1895.8,2385.6,1880.9,2399.9z"/>
	<path class="st1" d="M1868.6,2395.5c-1.4-0.5-2.7-1-4.2-1.5C1865.9,2394.5,1867.2,2395,1868.6,2395.5z"/>
	<path class="st1" d="M1860.3,2392.4c-2.1-0.8-4.1-1.6-6.3-2.5C1856.2,2390.8,1858.2,2391.6,1860.3,2392.4z"/>
	<path class="st1" d="M1850.6,2388.5c-2.4-1-4.8-1.9-7.3-3C1845.9,2386.6,1848.2,2387.6,1850.6,2388.5z"/>
	<path class="st2" d="M1044.7,598c2.6,25.7,3,71.6,27.8,87.7c0.1,0,0.1,0.1,0.2,0.1c11.6-12.2,22.4-24.9,24.6-26.7
		c6.9-5.4,14.3-9.8,21.7-14c3-103.9-4.1-274.8-102.4-333.2c-51.3-30.5-153.9-47.5-197.5,6.9c-50.4,63,28.4,90.6,78.6,89.8
		c0.7,0,1.1,0.1,1.7,0.2c0.1,0,0.3,0,0.4,0c35.5,2.6,35.7,26.7,2.4,35.6c-20.1,5.4-73,34.6-41.3,63.8
		c27.9,25.7,77.7,14.4,113.5,19.1C1021.9,533.6,1039.7,549.9,1044.7,598z"/>
	<path class="st2" d="M2001.9,697.4c1.7,4.8,4,9.3,6.7,13.6c1.5-20.1,2.6-40.3,7.5-59.7c10.6-42.2,50.8-51.6,89.9-53.7
		c36.8-1.9,132.9,8.9,115.1-52.7c-11.1-38.4-35.1-41.7-67.9-54.6c-42-16.6,8.2-39.7,28.6-38.6c45.4,2.4,103-9.3,92.3-67.8
		c-5.4-29.7-20.4-52.6-47.1-67.7c-74.8-42.4-185.6-33-233.2,46.1c-48.7,80.8-65.5,184.9-67.8,284.3c5.7,4,11.2,8.2,16.7,12.6
		C1966.6,633.1,1990.3,664.6,2001.9,697.4z"/>
	<g>
		<path class="st3" d="M2186.9,1971.9c-14.4,0-30.7-3.2-51.4-10.1c-23.9-8-39.2-22-46.6-42.9c-6.2-17.4-6.3-37-6.2-57.7
			c-5.6-1.4-11.6-3.4-18.3-6.2c-14.7-6-34.3-30.5-30.8-49.4c1.4-7.6,7.6-20.5,33.2-20.9c0.6,0,1.1,0,1.7,0c24.6,0,51.2,8.8,74,17.4
			c0.1,0,0.3,0,0.6,0c2.1,0,4.5-0.5,5.9-1c24.4-62,37.2-130.6,37.9-204.2c0.6-67.6-9.4-137.1-29-201.5c-0.7,0.2-1.4,0.4-2.1,0.6
			c-0.1,0.3-0.1,0.6-0.2,0.9c-2.9,12.9-6.4,28.9-16.5,42.8l-0.3,0.4l-0.3,0.4c-7.5,8.4-14.2,16.7-20.1,24.1c-1.2,1.5-2.4,3-3.6,4.5
			c-8.9,11.2-13.6,21.7-18.5,32.7c-3.8,8.6-7.7,17.4-13.8,27.2c-6.7,10.9-16.5,23.5-29.1,37.5c-6.2,6.9-10.6,12.8-15.2,19
			c-5.3,7.2-10.8,14.6-19,23.2c-12.5,13.2-33.3,30.2-54.3,38.2c-10.9,4.2-19.4,13.2-28.5,22.8c-9.8,10.4-20,21.2-34.5,27.6
			c-17.7,7.7-34.3,18.4-51.9,29.8c-15.1,9.8-30.8,19.8-47.2,27.9c-10.7,5.2-22.9,8.8-34.6,12.2c-13.4,3.9-27.3,7.9-38.4,14.4
			c-4.1,2.4-8.4,5.8-12.5,9c-1.3,1-2.6,2-3.8,3c-8.8,6.8-25.2,7.9-47.4,8.6c-7.7,0.3-16.4,0.6-19.4,1.4c-12,3.5-20.6,5-27.8,5
			c-5.1,0-8.8-0.8-12-1.4c-3-0.6-5.5-1.2-9.5-1.2c-2.6,0-5.5,0.2-8.9,0.7c-10.1,1.4-20.3,1.7-30.1,2c-13.1,0.4-25.5,0.8-37.2,3.6
			c-2.9,0.7-6.6,1-11.7,1c-25.9,0-83-8.4-97-14.3l-1.7-0.7c-9.3-3.9-18-7.6-26.7-7.6c-1.8,0-3.7,0.2-5.4,0.5
			c-5.1,1-10.6,1.5-16.3,1.5c-38.9,0-83.3-22.1-115.7-38.2c-10.8-5.4-20-10-26.1-12.2l-0.9-0.3l-0.8-0.5
			c-12.2-7.4-34.2-21.9-53.6-34.7c-17.2-11.4-33.5-22.1-39.1-25.4c-35.2-20.5-126.6-101.5-141.5-123.2c-5.7-8.2-11.7-15.8-18-23.8
			c-8.8-11.1-17.9-22.5-25.9-35.8c-39.6-66-65.7-126.7-81.9-190.4c-0.9,0.3-1.8,0.6-2.5,0.9c-31.3,70.7-50.2,142.8-56,214.2
			c-6.3,76.2,2.7,148.3,26.7,214.4c0.7-0.2,1.3-0.4,1.9-0.6c11.2-4.1,23.4-7.5,37.2-10.6c5.8-1.3,14.5-2.9,23.4-2.9
			c22.8,0,32.8,11.3,37.2,20.8c3.9,8.5,3.7,17.2-0.7,25.4c-7,13.2-24.4,22.5-37.2,24.6l-0.2,0c-0.8,0.1-1.7,0.3-2.6,0.5
			c0,2.2,0,4.4,0,6.5c0.1,26.7,0.3,54.3-29.7,74.5c-6.6,4.5-13.2,8.1-20.2,11.1l-0.7,0.3l-0.8,0.2c-11.6,3-25.1,4.8-40,5.3l-1.2,0
			l-1.2-0.3c-26.3-5.5-48.3-28-63.6-65c-33-79.6-30-175.6-22-267.5c9.3-105.2,39.9-213.5,91-321.8c4.9-10.4,11.3-21.1,17.5-31.3
			c13-21.5,26.5-43.8,27-65.5c0.5-20.8,2.9-41.6,5.2-61.7c0.4-3.4,0.8-6.8,1.2-10.2c1-9.4,11-52.4,11.1-52.8
			c8.5-36.1,23.2-70.1,37.4-103c6.7-15.4,13.6-31.4,19.6-47.2c12.4-32.3,42.2-67.1,63.9-92.4l3-3.6c5.8-6.8,9.8-12.5,14.1-18.6
			c7.8-11.1,15.9-22.5,34.3-40.1c5.5-5.2,10.8-9.7,15.9-14.1c6.2-5.3,12.1-10.3,18.1-16.3c17.7-18,37-28.9,57.5-40.4
			c11.7-6.6,23.8-13.4,35.8-21.8c17-11.9,36.4-20.2,55.2-28.3c10.3-4.4,20.1-8.6,29.4-13.4c8.1-4.1,16.6-7,24.8-9.8
			c9-3.1,17.5-5.9,24.7-10.2c19.6-11.4,33.4-13.1,46.7-14.8c6.9-0.9,14-1.8,22.4-4c40.6-10.9,88.9-12.3,89.4-12.4
			c8.1-0.2,16.9-0.5,26.2-0.8c31.3-1,66.7-2,93.1-2.2c0.7,0,1.5,0,2.2,0c27.6,0,63.2,3.9,84.8,9.2c12.2,1.9,69.5,14.4,99.9,23.2
			c16.5,4.8,33.9,13.2,45.4,18.7c4.7,2.3,10,4.8,11.6,5.3c15.7,4.6,24.8,10.3,36.2,17.6c7.3,4.6,15.6,9.9,27.6,16.1
			c21.5,11.1,42.9,26.3,63.7,45.1c0.7,0.3,2,0.6,3.5,0.7c5.9-8.4,12.6-10.3,17.4-10.3c11.8,0,22.6,10.8,33,33.2
			c3.8,8.2,4.5,15.3,5.1,21c0.7,6.8,1.1,10.5,5.8,15.1c25.9,25,50.7,49.7,69.4,75.6c12.7,17.6,23.6,38.4,34,58.6
			c5.8,11.1,11.2,21.6,16.9,31.5c23.4,40.5,37.9,86.3,49.1,125.7c17.2,60.7,23.5,127.1,19.3,203.1c-0.2,3.7-0.5,7.1-0.8,10.3
			c-1,11.5-1.7,19,3.1,29.5c8.9,19.4,17,39.5,23.8,56.7c15.3,38.7,28.8,81.1,42.5,133.2l0,0.2c18,73.8,28.5,145.8,31.2,213.7
			c3.1,77.5-4,149.9-21.1,215.3c-6.1,23.1-15,44.9-26.5,64.8C2234.5,1960.2,2214,1971.9,2186.9,1971.9z M1308.5,1316.5
			c0.6,0.9,25.8,34.5,59.5,34.5c1.4,0,2.8-0.1,4.2-0.2c36.8-3,52.2-23.1,52.9-23.9l5.1-7.1l7.6,4.1c0.2,0.1,23.2,12.1,43.2,12.1
			c8.6,0,14.9-2.2,19.1-6.7c5.9-6.3,8.3-18.2,7.1-34.3l0-0.4l0-0.4c0-0.7-0.4-75.1-18.1-149.2c-10.2-42.8-24.1-77.1-41.3-101.8
			c-20.5-29.5-45.8-45.2-75.2-46.6c-1.4-0.1-2.8-0.1-4.2-0.1c-45.6,0-80.5,36.4-101.8,67c-26.4,37.9-47.4,88.9-57.7,139.9
			c-5.8,28.6-7.6,55.4-5.1,75.4c2.3,18.5,8.2,30.6,16.4,34.1c18.3,7.7,34.3,11.7,47.4,11.7c17.2,0,23.5-6.8,24.4-7.9l7.5-13.9
			L1308.5,1316.5z M1636,1132.8c-22.6,0-40.9,18.4-40.9,41.1c0,22.7,18.3,41.1,40.9,41.1c22.6,0,41-18.4,41-41.1
			C1677,1151.3,1658.6,1132.8,1636,1132.8z M1124.8,1109.7c-22.6,0-41,18.4-41,41.1c0,22.7,18.4,41.1,41,41.1
			c22.6,0,40.9-18.4,40.9-41.1C1165.7,1128.1,1147.4,1109.7,1124.8,1109.7z"/>
		<path class="st1" d="M1573.1,534c28.5,0,63.4,4.1,82.9,9c10.1,1.4,68,14,99,23c24,7,50.3,22,57,24c24,7,31,17,62,33
			c22.5,11.6,43.3,27,62,44c1.9,1.7,6.7,2.9,10.6,2.9c2.7,0,5-0.6,5.7-1.9c3.5-6.1,7.1-8.4,10.7-8.4c10,0,19.7,18.4,23.9,27.4
			c7.4,15.9,0.5,26.8,13,39c23.2,22.5,49.3,48,68.3,74.3c19,26.3,33.9,60.7,50.3,89.2c21.9,38.1,36.2,81.4,48.2,123.5
			c18.5,65.1,22.6,132.6,18.9,199.8c-1,17.5-4.2,28.4,3.2,44.6c8.5,18.4,16.1,37.3,23.6,56.2c17,43,30.4,87.4,42.1,132.1
			c33.1,136.1,45.9,287.2,10.1,424.2c-5.7,21.8-14.1,42.8-25.4,62.3c-13,22.3-31.7,29.9-52.4,29.9c-15.5,0-32.1-4.2-48.2-9.6
			c-48.7-16.2-46-55.8-46-98.5c-0.3-0.6-0.9-0.9-1.6-0.9c-7.9-1.3-15.4-3.9-22.8-7c-16.2-6.6-46.6-50.4-1.2-51.1c0.5,0,1,0,1.6,0
			c23.5,0,49.4,8.8,71,17c0.9,0.3,2.1,0.5,3.6,0.5c5.2,0,13.1-1.9,14.4-5.3c52.4-131.2,49.9-287.8,7.9-420.7
			c-0.3-0.9-1.7-1.3-3.5-1.3c-5.3,0-14.5,3.1-15,5.6c-3,13.1-5.8,29.9-15.8,43.6c-9.3,10.3-17.1,20.4-24,29
			c-16.7,20.9-19.3,38.8-33,61c-8,13-19.4,26.5-28,36c-13.9,15.5-19.4,26.6-34,42c-13.4,14.1-33,29-50.6,35.8
			c-25.5,9.8-37.7,39.3-63.3,50.6c-34.3,15-65.2,41.1-99.5,57.9c-22,10.7-51.5,14-73.6,26.9c-6.1,3.6-11.9,8.5-17.4,12.8
			c-11,8.5-52.2,5.1-63.5,8.3c-12.3,3.6-19.7,4.6-25.1,4.6c-8.4,0-11.9-2.6-21.5-2.6c-2.8,0-6.2,0.2-10.3,0.8
			c-22.6,3.1-46.3,0.5-68.2,5.8c-2.1,0.5-5.3,0.7-9.4,0.7c-24.8,0-80.6-8.3-93.1-13.6c-10.4-4.4-21-9.1-32.3-9.1
			c-2.4,0-4.8,0.2-7.3,0.7c-4.6,0.9-9.5,1.3-14.4,1.3c-49.9,0-113.8-40.8-138.4-49.8c-22.8-13.9-80.6-53-92.9-60.2
			c-34.4-20-124.9-100.7-138.3-120.2c-14-20.4-30.5-37.2-43.5-59c-37.2-62.1-65.5-124.3-82.6-194.9c-0.2-1-1.5-1.4-3.2-1.4
			c-5.1,0-14.4,3.4-15.4,5.6c-61.7,138.1-83.2,299.7-28.4,444.5c0.4,1,1.6,1.3,3.1,1.3c3.3,0,8.2-1.6,9.4-2.1
			c11.7-4.3,23.7-7.5,35.9-10.2c6.5-1.4,14-2.7,21.2-2.7c11.7,0,22.8,3.3,28.1,15c8.8,19.1-16.6,33.7-30.4,35.9
			c-2.4,0.3-11.2,2.1-11.2,5.6c-0.4,31.5,3.8,57.9-25.3,77.6c-6.5,4.4-12.6,7.6-18.5,10.2c-10.5,2.7-23.1,4.5-37.8,5
			c-26.2-5.5-44.7-30.7-56.5-59c-33.1-80-28.6-178.6-21.2-262.8c9.8-110.6,42.8-218.3,90.1-318.4c15-31.9,44.7-65.4,45.5-100.8
			c0.6-23.8,3.7-47.4,6.3-71c0.9-8.4,10.4-49.4,10.9-51.7c12.2-52.1,37.6-99.5,56.6-148.9c12.4-32.1,43.1-67.3,65.2-93.1
			c16.9-19.8,20-31.5,47.7-57.9c11.9-11.3,23-19.1,34.2-30.6c26.8-27.3,59-38,91.8-60.9c25.1-17.5,56.3-27.3,83.3-41
			c16.1-8.2,34.9-11.4,50-20.2c27.5-16,40.9-10.9,66.7-17.9c36.1-9.7,79.8-11.8,87.1-12c35-1,85-2.8,119-3
			C1571.7,534,1572.4,534,1573.1,534 M1267.7,1334.8c24.9,0,32.8-12.4,32.8-12.4s27.9,38.7,67.6,38.7c1.7,0,3.4-0.1,5.1-0.2
			c42.4-3.5,60.1-27.9,60.1-27.9s25.1,13.3,47.9,13.3c20.5,0,39.2-10.8,36.1-51.7c0,0-0.7-300.5-144.1-307.5
			c-1.6-0.1-3.1-0.1-4.7-0.1c-140.4,0-217.6,308-152,335.6C1238.5,1331.7,1255.2,1334.8,1267.7,1334.8 M1124.8,1201.9
			c28.1,0,50.9-22.9,50.9-51.1c0-28.2-22.8-51.1-50.9-51.1c-28.1,0-51,22.9-51,51.1C1073.9,1179,1096.7,1201.9,1124.8,1201.9
			 M1636,1225c28.2,0,51-22.9,51-51.1c0-28.2-22.8-51.1-51-51.1c-28.1,0-50.9,22.9-50.9,51.1C1585.1,1202.1,1607.9,1225,1636,1225
			 M1573.1,514c-0.8,0-1.5,0-2.3,0c-26.4,0.2-61.9,1.3-93.3,2.2c-9.3,0.3-18.1,0.6-26.1,0.8c-0.5,0-50,1.5-91.7,12.7
			c-7.7,2.1-14.2,2.9-21,3.8c-14.3,1.8-29.1,3.7-50.5,16.1c-6.4,3.7-14.4,6.4-22.9,9.3c-8.5,2.9-17.4,5.9-26.1,10.3
			c-9,4.6-18.7,8.7-28.8,13.1c-19.2,8.3-39.1,16.8-56.9,29.3c-11.6,8.1-23.5,14.8-35,21.3c-20.2,11.3-41,23.1-59.7,42.1
			c-5.6,5.7-11.3,10.5-17.4,15.7c-5.2,4.4-10.7,9-16.4,14.4c-19.2,18.2-27.5,30.1-35.6,41.6c-4.2,5.9-8.1,11.5-13.6,17.9l-3,3.5
			c-22.2,25.9-52.6,61.5-65.6,95.3c-6,15.6-12.9,31.5-19.5,46.8c-14.4,33.3-29.2,67.7-37.9,104.7c-0.1,0.5-10.2,43.8-11.3,54
			c-0.4,3.4-0.8,6.7-1.2,10.1c-2.3,20.3-4.8,41.4-5.3,62.6c-0.4,19-13.2,40.1-25.5,60.5c-6.3,10.5-12.9,21.3-18,32.2
			c-51.6,109.4-82.5,218.8-91.9,325.2c-8.2,93.2-11.1,190.6,22.7,272.2c16.7,40.2,41.2,64.7,70.8,70.9l2.4,0.5l2.4-0.1
			c15.6-0.6,29.8-2.5,42.1-5.7l1.5-0.4l1.4-0.6c7.5-3.3,14.7-7.2,21.8-12c33.7-22.8,34.2-53.7,34.1-81.3
			c14.5-3.9,31.2-14.2,38.8-28.5c5.8-10.9,6.1-23.1,0.9-34.3c-4.6-9.9-16.7-26.6-46.3-26.6c-9.8,0-19.2,1.8-25.5,3.2
			c-11.2,2.5-21.4,5.2-30.9,8.3c-21-62.2-28.7-129.7-22.9-200.9c2.9-35.8,9.4-72.4,19.1-108.9c7.1-26.7,16.1-53.5,26.7-79.8
			c16.6,55.8,41.2,110,76.2,168.3c8.2,13.8,17.6,25.5,26.6,36.8c6.2,7.8,12.1,15.2,17.6,23.2c11.4,16.6,55.8,55.9,64.6,63.6
			c12.6,11.1,55.7,48.3,80.2,62.5c5.4,3.1,22.3,14.3,38.7,25.1c19.5,12.8,41.6,27.4,53.9,34.9l1.7,1l1.9,0.7
			c5.5,2,14.6,6.5,25.1,11.7c33.3,16.6,78.9,39.3,120.2,39.3c6.3,0,12.5-0.6,18.2-1.6c1.2-0.2,2.3-0.3,3.6-0.3
			c6.7,0,14.5,3.3,22.9,6.8l1.7,0.7c16.3,6.9,75.8,15.1,100.9,15.1c5.9,0,10.4-0.4,14-1.3c10.7-2.6,22.6-2.9,35.2-3.3
			c10.1-0.3,20.5-0.6,31.1-2.1c2.9-0.4,5.5-0.6,7.6-0.6c2.9,0,4.7,0.4,7.4,0.9c3.5,0.7,7.9,1.7,14.1,1.7c8.2,0,17.6-1.7,30.5-5.4
			c2.6-0.6,11-0.9,17.1-1.1c24.9-0.8,42-2.1,53.2-10.7c1.3-1,2.6-2,3.9-3.1c4-3.2,7.8-6.2,11.3-8.2c10-5.8,22.7-9.5,36.1-13.4
			c12.2-3.5,24.7-7.2,36.2-12.8c17-8.3,32.9-18.6,48.3-28.5c17.2-11.1,33.5-21.6,50.5-29c16.3-7.2,27.7-19.2,37.7-29.9
			c8.6-9.1,16-17,24.8-20.4c22.5-8.7,44.7-26.7,58-40.7c8.6-9.1,14.3-16.7,19.8-24.1c4.5-6,8.7-11.8,14.6-18.3
			c13-14.4,23.1-27.4,30.2-38.9c6.4-10.4,10.7-20,14.4-28.4c4.9-10.9,9-20.4,17.2-30.6c1.2-1.4,2.3-2.9,3.6-4.5
			c5.8-7.3,12.3-15.5,19.7-23.6l0.7-0.8l0.6-0.8c4-5.5,7.1-11.3,9.5-17.1c13.8,54.6,20.7,112.1,20.2,168.2
			c-0.3,35.5-3.6,70.4-9.8,103.9c-5.8,31.6-14.2,62-25,90.5c-22.8-8.5-48.9-16.6-73.6-16.6c-0.6,0-1.3,0-1.9,0
			c-33.9,0.6-41.3,20.5-42.9,29.1c-2.8,14.8,4.3,28.8,10.8,37.9c7.5,10.5,17.2,19,26.1,22.6c4.2,1.8,8.2,3.2,12,4.5
			c0.1,18.3,0.8,36.8,6.8,53.5c4.1,11.4,10.4,21.3,18.7,29.2c8.9,8.5,20.4,15.1,34.2,19.8c21.7,7.2,39.1,10.6,54.6,10.6
			c14.3,0,27.3-3,38.4-8.9c12.7-6.7,23.2-17.1,31.3-31c12-20.6,21.2-43.3,27.5-67.3c17.3-66.4,24.5-139.8,21.4-218.3
			c-2.7-68.6-13.3-141.2-31.4-215.7l0-0.2l0-0.2c-13.7-52.5-27.4-95.2-42.8-134.4c-6.9-17.4-15-37.5-24-57.2
			c-3.6-7.8-3.3-12.8-2.2-24.4c0.3-3.2,0.6-6.8,0.8-10.7c4.3-77.1-2.1-144.6-19.6-206.4c-11.4-40-26.2-86.5-50.1-128
			c-5.6-9.7-11-20.1-16.7-31.1c-10.6-20.5-21.6-41.7-34.8-59.9c-19.3-26.6-44.4-51.6-70.6-77c-1.9-1.8-2.1-2.2-2.8-8.9
			c-0.6-6.1-1.5-14.5-6-24.2c-12.2-26.2-26-38.9-42-38.9c-4.6,0-12.1,1.2-19.3,7.5c-19.8-17.3-40.1-31.3-60.6-41.9
			c-11.6-6-19.7-11.1-26.8-15.7c-11.6-7.4-21.6-13.7-38.5-18.7c-1.6-0.6-6.4-2.9-10.2-4.7c-11.8-5.7-29.7-14.3-47-19.3
			c-30.3-8.8-87.2-21.2-100.7-23.4C1637.6,517.9,1601.3,514,1573.1,514L1573.1,514z M1267.7,1314.8c-11.8,0-26.4-3.7-43.5-10.9
			c-2.8-1.2-8.1-8-10.4-26.2c-2.4-18.9-0.6-44.5,4.9-72.1c10-49.7,30.5-99.4,56.1-136.2c19.9-28.6,52.3-62.7,93.6-62.7
			c1.3,0,2.5,0,3.7,0.1c26.5,1.3,48.6,15.2,67.5,42.4c16.5,23.7,29.9,56.9,39.8,98.6c17.4,72.9,17.7,145.8,17.7,146.6l0,0.7l0.1,0.7
			c1.4,18.3-2.7,24.8-4.5,26.7c-2.2,2.3-6.1,3.5-11.7,3.5c-14.6,0-33.2-8.1-38.5-11l-15.9-8.5l-9.6,14.3c-1.5,1.8-15,17.4-45.6,19.9
			c-1.2,0.1-2.3,0.1-3.4,0.1c-28.7,0-51.1-30.1-51.4-30.4l-17.3-24l-15.2,24C1283.1,1311.6,1278.6,1314.8,1267.7,1314.8
			L1267.7,1314.8z M1124.8,1181.9c-17.1,0-31-14-31-31.1c0-17.1,13.9-31.1,31-31.1c17,0,30.9,13.9,30.9,31.1
			C1155.7,1167.9,1141.9,1181.9,1124.8,1181.9L1124.8,1181.9z M1636,1205c-17,0-30.9-14-30.9-31.1c0-17.2,13.9-31.1,30.9-31.1
			c17.1,0,31,14,31,31.1C1667,1191.1,1653.1,1205,1636,1205L1636,1205z"/>
	</g>
	<path class="st4" d="M1392.5,2581c-3.9,0-7.7-0.1-11.5-0.3c0,4.1,0,7.9,0,11.7c0,7.2,0.1,14.2,0.1,20.5h0c3.8,0.1,7.5,0.3,11.3,0.3
		c18.5,0,36.4-1.4,53.5-3.9l0,0c-0.5-3.7-1-7.6-1.4-11.4c-0.2-1.9-0.5-3.7-0.7-5.6c-0.5-4.1-0.9-8.4-1.4-12.7
		c-0.1-0.8-0.2-1.6-0.3-2.4C1426.3,2579.6,1409.7,2581,1392.5,2581z"/>
	<path class="st4" d="M1396.1,2493.9c-5.2,0-10.4-0.1-15.5-0.3c0,6.5,0,12.8,0.1,19.1c0,4.4,0,8.8,0,13.1h0
		c5.1,0.2,10.2,0.4,15.4,0.4c14.4,0,28.4-0.9,42-2.5v0c-0.4-8.1-0.8-16.6-1-25.3c-0.1-2.2-0.1-4.5-0.1-6.9
		C1423.7,2493,1410.1,2493.9,1396.1,2493.9z"/>
	<path class="st4" d="M1380.4,2406.4L1380.4,2406.4c0,5.7,0,11.3,0,17c0,5.1,0,10.3,0,15.3c6.4,0.3,12.8,0.5,19.3,0.5
		c13,0,25.6-0.7,37.9-1.9c0-1,0.1-2.1,0.1-3.2c0.3-9.2,0.6-19,1-29.5l0,0c-12.7,1.5-25.7,2.4-39,2.4
		C1393.2,2407,1386.8,2406.7,1380.4,2406.4z"/>
	<path class="st4" d="M1403.4,2320c-7.7,0-15.3-0.3-22.9-0.8l0,0c0,10.6-0.1,21.4-0.1,32.2h0c7.5,0.5,15.2,0.8,22.9,0.8
		c12.8,0,25.4-0.6,37.6-1.9h0c0.4-9.6,0.9-19.6,1.4-29.7c0.1-1,0.1-2,0.1-3C1429.8,2319.1,1416.8,2320,1403.4,2320z"/>
	<path class="st4" d="M1381,2231.9L1381,2231.9c-0.1,3.9-0.1,8.1-0.1,12.1c0,3.1,0,6.2-0.1,9.3c0,3.7,0,7.1-0.1,10.8h0
		c8.6,0.6,17.3,1,26.3,1c13.1,0,25.9-0.7,38.4-2c0.2-4.8,0.5-9.8,0.8-14.7c0.3-6,0.7-12,1-18.1l0,0c-13.1,1.6-26.5,2.5-40.2,2.5
		C1398.2,2233,1389.5,2232.6,1381,2231.9z"/>
	<path class="st4" d="M1382.6,2144.8L1382.6,2144.8c0,0.7,0,1.3-0.1,1.9c-0.1,3.3-0.2,6.6-0.3,9.8c-0.1,2.9-0.2,5.7-0.3,8.5
		c-0.1,2.6-0.1,5.1-0.2,7.6c0,1.4-0.1,2.9-0.1,4.3l0,0c9.5,0.7,19.1,1.2,28.9,1.2c13.6,0,26.8-0.7,39.7-2.1l0,0
		c0.6-10.8,1.3-21.7,1.9-32.7h0c-13.5,1.8-27.4,2.7-41.6,2.7C1401.1,2146,1391.7,2145.6,1382.6,2144.8z"/>
	<path class="st4" d="M1414.2,2059c-9.3,0-18.5-0.4-27.6-1.2l0,0c0,0.7-0.1,1.3-0.1,2c-0.5,8.9-1,17.6-1.4,26.2
		c-0.1,1.3-0.1,2.6-0.2,4l0,0c9.6,0.7,19.3,1.2,29.3,1.2c14.2,0,27.9-0.8,41.3-2.3c0.1-1.5,0.2-3.1,0.3-4.7
		c0.4-6.7,0.8-13.5,1.2-20.2c0.2-2.6,0.3-5.2,0.5-7.8C1443.6,2058,1429,2059,1414.2,2059z"/>
	<path class="st4" d="M1842.8,2385.3C1842.8,2385.3,1842.7,2385.3,1842.8,2385.3c0.2,0.1,0.4,0.2,0.6,0.3c2.5,1,4.9,2,7.3,3
		c1.1,0.4,2.3,0.9,3.3,1.4c2.2,0.9,4.2,1.7,6.3,2.5c1.4,0.5,2.8,1.1,4.1,1.6c1.4,0.5,2.8,1.1,4.2,1.5c2,0.8,3.9,1.5,5.8,2.1
		c0.6,0.2,1.2,0.4,1.8,0.6c1.6,0.6,3.3,1.2,4.8,1.7c0,0,0,0,0,0c14.9-14.4,28.3-29.4,40.1-44.7c-5.3-2.7-10.8-5.6-16.4-8.5
		c-5.2-2.7-10.7-5.5-16.2-8.4c-0.3-0.1-0.5-0.3-0.8-0.4C1874.7,2354.5,1859.6,2370.4,1842.8,2385.3z"/>
	<path class="st4" d="M1764.3,2344.9C1764.3,2345,1764.3,2345,1764.3,2344.9c0.5,0.3,0.9,0.6,1.4,0.9c10.3,6.4,20.6,12.2,30.7,17.6
		c0.4,0.2,0.8,0.4,1.2,0.6c0,0,0,0,0,0c16.9-16.3,31.8-33.3,44.7-50.7l0,0c-10.6-6-21.1-12.3-31.6-18.8c-0.1-0.1-0.2-0.1-0.3-0.2
		C1797.3,2311.9,1781.8,2329,1764.3,2344.9z"/>
	<path class="st4" d="M1689.6,2278.9c-1.3,1.1-2.6,2.2-4,3.3c0,0,0,0-0.1,0.1c0.8,0.8,1.6,1.6,2.4,2.4c2.6,2.7,5.4,5.4,8.1,8
		c1.5,1.4,3,2.8,4.5,4.2c3,2.8,6.1,5.5,9.1,8.1c1,0.8,1.8,1.7,2.8,2.5c0,0,0,0,0-0.1c0.3-0.3,0.6-0.6,1-0.8
		c17.5-15.2,33.2-31.1,47.1-47.6l0,0c-9.6-7.8-18.6-15.8-26.9-24.2c-0.2-0.1-0.3-0.3-0.5-0.4
		C1720.4,2249.9,1705.8,2264.9,1689.6,2278.9z"/>
	<path class="st4" d="M1628.1,2193.9c0,0-0.1,0-0.1,0c0.5,1.4,1.2,2.7,1.8,4.2c1.3,3.3,2.8,6.6,4.3,9.9c1,2.2,2.1,4.4,3.2,6.6
		c1.6,3.2,3.2,6.3,4.9,9.4c0.6,1,1.1,2.1,1.7,3.1c0,0,0.1,0,0.1-0.1c6.6-3.1,13.2-6.5,19.7-10c14-7.6,27.2-15.7,39.7-24.3l0,0
		c-4.2-10.6-7.7-23.3-10.6-37.7l0,0c-14.3,10.7-29.8,20.8-46.4,29.8C1640.3,2188,1634.2,2191.1,1628.1,2193.9z"/>
	<path class="st4" d="M1649.7,2092.8c-13,3.9-26,6.9-38.8,9.3h0c0.2,4,0.5,7.9,0.7,11.7c0.1,1.4,0.2,2.8,0.3,4.1
		c0.4,5.3,0.8,10.3,1.3,15c0.2,2,0.5,3.9,0.7,5.9c0.1,0,0.1,0,0.1,0c15.2-2.7,30.6-6.3,46.2-11c9.3-2.8,18.2-5.8,27-9.1l0,0
		c-0.7-5.9-1.3-11.9-1.8-18.1c0-0.3-0.1-0.6-0.1-0.9c-0.5-6.2-1-12.5-1.4-19c0,0,0-0.1,0-0.1
		C1672.9,2085.1,1661.6,2089.2,1649.7,2092.8z"/>
	<path class="st4" d="M1610,2003.6L1610,2003.6c-0.1,2.1-0.1,4-0.1,6.1c-0.1,9.7-0.3,19.3-0.3,28.5c0,0.8,0,1.6,0,2.3l0,0
		c20.9,0,42.6-1.7,64.8-5.2c2.5-0.4,5.1-0.8,7.6-1.3l0,0c-0.3-12.1-0.3-24.6-0.3-37.2l0,0c-4.3,0.8-8.6,1.7-13,2.4
		C1648.8,2002.2,1629.1,2003.6,1610,2003.6z"/>
	<path class="st1" d="M1373.1,986.9c-143.4-7-223,307.5-156.6,335.5c66.3,28,84,0,84,0s30.3,42,72.6,38.5
		c42.4-3.5,60.1-27.9,60.1-27.9s90.6,48,84-38.4C1517.2,1294.4,1516.4,993.9,1373.1,986.9z"/>
	<path class="st5" d="M1585.1,1173.9c0,28.2,22.8,51.1,50.9,51.1c28.2,0,51-22.9,51-51.1c0-28.2-22.8-51.1-51-51.1
		C1607.9,1122.8,1585.1,1145.7,1585.1,1173.9z M1659.1,1173.9c0,12.8-10.4,23.1-23.1,23.1c-12.8,0-23-10.4-23-23.1
		c0-12.8,10.3-23.2,23-23.2C1648.8,1150.7,1659.1,1161.1,1659.1,1173.9z"/>
	<path class="st1" d="M1613,1173.9c0,12.8,10.3,23.1,23,23.1c12.8,0,23.1-10.4,23.1-23.1c0-12.8-10.4-23.2-23.1-23.2
		C1623.3,1150.7,1613,1161.1,1613,1173.9z"/>
	<path class="st5" d="M1124.8,1099.7c-28.1,0-51,22.9-51,51.1c0,28.2,22.8,51.1,51,51.1c28.1,0,50.9-22.9,50.9-51.1
		C1175.7,1122.5,1152.9,1099.7,1124.8,1099.7z M1124.8,1173.9c-12.8,0-23.1-10.4-23.1-23.2c0-12.8,10.4-23.2,23.1-23.2
		c12.7,0,23.1,10.4,23.1,23.2C1147.9,1163.5,1137.6,1173.9,1124.8,1173.9z"/>
	<path class="st1" d="M1124.8,1127.6c-12.8,0-23.1,10.4-23.1,23.2c0,12.8,10.4,23.2,23.1,23.2c12.7,0,23.1-10.4,23.1-23.2
		C1147.9,1138,1137.6,1127.6,1124.8,1127.6z"/>
</g>
<g>
	<g>
		<path class="st1" d="M1519.2,1499c-11.1-0.5-28,4.9-51.3,12.5l-10.5,3.3c-28.2,9-69,9.3-98.3,7.9c-28.7-1.3-59.5-4.9-82.3-9.5
			c-5.5-1.1-10.6-1.8-15.2-2c-19.2-0.9-22.1,6.5-22.1,6.6l-0.4,1.2c-1.2,3.1-0.6,6.4,1.7,10.2c4.3,7,25.7,30.8,119.3,41.7
			c4.3,0.5,8.8,0.9,13.2,1.1c68.5,3.2,131.4-31.4,152.2-55.8c5.5-6.4,6.3-10.1,6.1-10.8C1528.9,1501.3,1525.1,1499.3,1519.2,1499z"
			/>
	</g>
	<g>
		<path class="st4" d="M1519.8,1484.9c-13.7-0.6-31.6,5.1-56.2,13.1l-10.5,3.4c-26.2,8.4-65.2,8.6-93.3,7.2c-28-1.3-58-4.7-80.2-9.2
			c-6.2-1.2-12-2-17.3-2.2c-29-1.4-35.3,13.3-36.4,17.3c-2.5,7.2-1.5,14.8,3,22.1c14.2,23.1,60.2,40.2,129.7,48.3
			c4.6,0.6,9.4,0.9,14.1,1.1c83.8,3.9,155-43,169.7-69.2c5.3-9.4,3.5-15.6,1-19.2C1538.1,1489.6,1530.3,1485.4,1519.8,1484.9z
			 M1525.7,1516.2c-20.9,24.4-83.7,59-152.2,55.8c-4.4-0.2-8.8-0.6-13.2-1.1c-93.6-10.9-115-34.6-119.3-41.7
			c-2.3-3.7-2.8-7-1.7-10.2l0.4-1.2c0-0.1,2.8-7.5,22.1-6.6c4.5,0.2,9.6,0.8,15.2,2c22.8,4.6,53.6,8.1,82.3,9.5
			c29.2,1.4,70.1,1.1,98.3-7.9l10.5-3.3c23.3-7.6,40.2-13,51.3-12.5c6,0.3,9.8,2.3,12.6,6.4
			C1531.9,1506.1,1531.1,1509.8,1525.7,1516.2z"/>
	</g>
</g>
</svg>
